<svg width="22" height="31" viewBox="0 0 22 31" fill="none" xmlns="http://www.w3.org/2000/svg">
<path fill-rule="evenodd" clip-rule="evenodd" d="M4.33174 2.97339C5.77866 1.91807 7.79193 1.24341 10.0999 1.05119L10.1024 1.04743C11.2789 0.950687 12.6016 1.00345 13.5821 1.1919C15.3189 1.51981 16.4686 2.19446 17.907 3.73096C19.0567 4.95463 19.8082 6.2851 20.2333 7.82662C20.3356 8.18845 20.4939 8.74752 20.5877 9.06537C20.8715 10.029 20.9421 10.4385 20.9701 11.2866C20.9982 12.1736 20.9421 12.8331 20.7692 13.5417C20.349 15.2667 19.8253 16.023 19.3771 15.5657C19.1615 15.3395 19.1432 15.1661 19.1383 13.4462C19.1383 11.7363 19.1335 11.6924 18.8996 11.6924C18.7267 11.6924 18.5537 11.7979 18.5257 11.9185C18.488 12.058 18.5123 12.1497 18.6707 12.607C18.8107 13.0015 18.8765 13.7013 18.8814 14.886C18.8814 15.4023 18.896 15.5317 18.9751 15.6863C19.0969 15.9375 19.3442 16.1398 19.7181 16.3031C20.1115 16.4677 20.2698 16.5783 20.3539 16.7466C20.69 17.4213 20.148 18.9251 19.4197 19.3196C19.1164 19.4879 18.5647 19.4641 17.9716 19.2618C17.4064 19.0646 17.0885 19.0495 16.7573 19.204C16.3127 19.4063 16.1678 19.6274 16.0094 20.341C15.8682 20.978 15.7987 21.0986 15.0607 21.9026L14.4907 22.5245L14.5333 22.7368C14.5516 22.8474 14.6271 23.0836 14.7014 23.257C14.8646 23.6615 14.8743 23.9844 14.7196 24.1527C14.4907 24.404 13.8549 24.4806 13.6405 24.2834C13.5516 24.2067 13.5467 24.1578 13.5699 23.7633C13.5894 23.522 13.6308 23.2243 13.6685 23.0987L13.7392 22.8625L13.5199 22.8914C13.3982 22.9052 13.1363 22.9291 12.9402 22.9441L12.5858 22.9781L12.6698 23.1276C12.7587 23.2859 12.8744 23.7394 12.9171 24.115C12.9499 24.4002 12.861 24.5007 12.4969 24.5686C12.1936 24.6264 11.7917 24.5736 11.6565 24.458C11.581 24.3902 11.5761 24.0246 11.6467 23.605C11.6833 23.3788 11.7357 23.2532 11.838 23.1326L11.978 22.9693H11.4592C11.1742 22.9693 10.9403 22.9781 10.9403 22.9881C10.9403 23.0032 10.983 23.0848 11.0341 23.1715C11.1462 23.3688 11.2765 24.0057 11.2582 24.2557C11.2497 24.3914 11.2168 24.453 11.1279 24.497C10.9878 24.5698 10.2546 24.5799 10.0817 24.512C9.9745 24.4731 9.95988 24.4392 9.95988 24.2181C9.95988 23.8462 10.0524 23.3499 10.1511 23.1816C10.2023 23.0999 10.24 23.017 10.24 22.9982C10.24 22.9831 10.0488 22.9693 9.81982 22.9693C9.59084 22.9693 9.39963 22.9781 9.39963 22.9881C9.39963 22.9982 9.46052 23.1477 9.53969 23.316C9.642 23.5421 9.67975 23.6866 9.67975 23.8939C9.67975 24.4103 9.56283 24.5208 8.96969 24.5497L8.55924 24.5686L8.39116 24.3952C8.22309 24.2218 8.21822 24.213 8.24623 23.9379C8.2645 23.7783 8.34001 23.4806 8.41431 23.2632L8.55437 22.8725L8.45206 22.8537C8.41344 22.8467 8.31927 22.8285 8.21541 22.8083L8.21509 22.8083C8.16838 22.7992 8.11972 22.7898 8.07328 22.7808C7.9186 22.7519 7.78828 22.7318 7.78341 22.7419C7.77853 22.7469 7.81629 22.9881 7.86257 23.2821C7.97462 23.9756 7.96975 24.0095 7.82969 24.159C7.72738 24.2658 7.67988 24.2796 7.46065 24.2608C7.10988 24.2319 6.96982 24.1263 6.96982 23.8902C6.96982 23.6778 7.16591 23.2494 7.42777 22.8976L7.60559 22.6564L7.31571 22.3675C6.88212 21.929 6.70917 21.5282 6.50821 20.4591C6.39251 19.8561 6.32187 19.6588 6.12578 19.4327C5.69219 18.9213 5.3877 18.9213 4.06623 19.4465C3.43167 19.6978 3.2027 19.7078 2.88969 19.4905C2.49263 19.2203 1.97379 18.4892 1.7777 17.92C1.59013 17.3798 1.66077 17.0858 2.02494 16.8936C2.3343 16.7353 2.60469 16.4464 2.74475 16.1184C2.87629 15.8245 2.87629 15.8207 2.8434 15.0493C2.75936 12.8419 2.7545 12.553 2.81539 12.1246C2.91283 11.3544 3.07238 10.8582 3.5486 9.79782L3.81046 9.2199L3.84821 8.37187C3.87135 7.81783 3.91764 7.39821 3.97853 7.14317C4.12347 6.53511 4.39507 5.7411 4.6143 5.26369C4.72635 5.02248 4.81039 4.82523 4.80065 4.81518C4.75802 4.77121 4.30981 5.47978 4.1186 5.88935C3.84212 6.48234 3.69353 7.04015 3.53885 8.10553C3.39392 9.08296 3.35129 9.24251 2.99687 10.1672C2.43661 11.6321 2.38058 11.9738 2.37084 13.9588C2.36231 15.5443 2.34283 15.7554 2.17962 15.9388C1.88975 16.2717 1.31975 15.6599 1.17968 14.8646C1.03962 14.0744 0.945837 10.9134 1.03475 9.95988C1.11879 9.09678 1.20283 8.73118 1.5061 7.90703C1.6559 7.50751 1.88975 6.81401 2.02007 6.3655C2.40251 5.07901 2.71552 4.50612 3.46334 3.74478C3.71058 3.48849 4.10276 3.14174 4.33174 2.97339ZM15.8085 11.7665C16.4065 11.921 16.929 12.2967 17.1348 12.7351C17.2566 12.9952 17.2615 13.0103 17.2335 13.7327C17.2006 14.6536 17.0508 15.6838 16.9107 15.9388C16.6866 16.3534 16.0228 16.5795 15.3603 16.4639C14.4492 16.3094 12.9268 15.0568 12.492 14.1033C12.3337 13.7515 12.291 13.1007 12.408 12.7778C12.7112 11.9587 14.4821 11.4336 15.8085 11.7665ZM9.12924 12.6283C8.88078 12.1233 8.10616 11.7765 6.96129 11.6459L6.96251 11.6471C6.36937 11.5843 5.70071 11.5931 5.39257 11.666C4.5802 11.872 4.27571 12.5329 4.39751 13.8143C4.46328 14.5367 4.61674 15.2742 4.76167 15.582C5.03693 16.1549 5.58257 16.68 6.05027 16.8107C6.22809 16.8584 6.31212 16.8584 6.48994 16.8057C7.20001 16.6134 8.72732 15.3508 9.02206 14.7101C9.28392 14.151 9.33995 13.0517 9.12924 12.6283Z" fill="#F8B025" stroke="black" stroke-miterlimit="10"/>
<path d="M16.7424 20.7966C17.1115 20.2187 17.3258 20.0013 17.5828 19.9435L17.584 19.9423C17.7984 19.8883 18.0505 19.9084 18.2003 19.99C18.2795 20.034 18.2843 20.0767 18.2612 20.4096C18.2234 20.9097 18.0322 21.8544 17.7752 22.8231C17.3599 24.3847 17.2905 24.7654 17.2199 25.7868C17.2004 26.0518 17.1723 26.3169 17.1492 26.3798C17.0688 26.5971 16.7936 26.8911 16.2893 27.2956C15.6304 27.822 15.36 28.0909 14.9204 28.655C14.4527 29.2568 14.1263 29.5796 13.8644 29.7103C13.5465 29.8699 13.1032 29.8837 12.225 29.7681C11.3286 29.6475 10.7818 29.6425 9.79158 29.7442C8.84889 29.8397 8.33004 29.8209 8.04504 29.6714C7.90984 29.5985 7.50792 29.2128 6.92452 28.606C6.22908 27.8786 5.86491 27.5356 5.37407 27.165C4.2767 26.327 4.18292 26.1197 4.27183 24.6937C4.351 23.45 4.25843 22.8243 3.82363 21.7062C3.51061 20.887 3.54837 20.5491 3.9783 20.3179C4.44965 20.0717 4.87472 20.3041 5.22061 20.9926C5.33754 21.2288 5.95869 23.1409 6.03298 23.4977C6.061 23.6183 6.11215 24.0141 6.15478 24.3847C6.24369 25.1799 6.346 25.4827 6.631 25.8106C6.8551 26.0707 7.06093 26.1963 7.47626 26.3458L7.72837 26.4375L7.69549 26.327C7.67722 26.2692 7.65408 26.033 7.63946 25.8069C7.61632 25.4023 7.61632 25.3935 7.73811 25.2918C7.98536 25.0945 8.70517 25.0945 8.89639 25.2918C8.9853 25.3835 8.99017 25.4312 8.96702 25.7641C8.95363 25.9664 8.89273 26.2604 8.8367 26.4099C8.78555 26.5644 8.74779 26.6938 8.75754 26.6989C8.76241 26.7089 8.96703 26.7278 9.20575 26.7428C9.6028 26.7667 9.64055 26.7629 9.61254 26.6901C9.39331 26.0971 9.30927 25.5581 9.42132 25.4036C9.481 25.3169 9.55164 25.3081 10.0327 25.293C10.7148 25.2679 10.8037 25.3119 10.8037 25.6586C10.8037 25.9337 10.7099 26.2943 10.5747 26.5695L10.4761 26.7768H10.8963C11.1252 26.7768 11.3164 26.7617 11.3164 26.7378C11.3164 26.7177 11.2836 26.5833 11.2458 26.4388C11.2081 26.2943 11.1752 26.0154 11.1752 25.827C11.1752 25.5091 11.1849 25.4714 11.2872 25.4036C11.465 25.283 12.0204 25.2541 12.2725 25.3508C12.51 25.4463 12.5758 25.538 12.5709 25.7742C12.5709 25.9275 12.4443 26.4677 12.37 26.6411C12.3371 26.7177 12.37 26.7278 12.739 26.7278C13.1081 26.7278 13.1409 26.7177 13.1129 26.6411C12.8474 25.9752 12.8425 25.8257 13.0947 25.5468C13.3614 25.2528 13.6184 25.1561 13.9594 25.2289C14.1031 25.2578 14.2529 25.3056 14.2858 25.3345C14.3796 25.4111 14.365 25.8785 14.2627 26.1825C14.2152 26.322 14.1969 26.4375 14.2249 26.4375C14.3321 26.4375 14.9204 26.0719 15.1493 25.8647C15.589 25.4651 15.7193 25.0845 15.8923 23.7163C16.0884 22.1848 16.2796 21.519 16.7424 20.7966Z" fill="#F8B025" stroke="black" stroke-miterlimit="10"/>
</svg>
