<svg width="38" height="38" viewBox="0 0 38 38" fill="none" xmlns="http://www.w3.org/2000/svg">
<g clip-path="url(#clip0_532_1018)">
<path d="M19 37.0586C28.9729 37.0586 37.0576 28.9739 37.0576 19.001C37.0576 9.02802 28.9729 0.943359 19 0.943359C9.02705 0.943359 0.942383 9.02802 0.942383 19.001C0.942383 28.9739 9.02705 37.0586 19 37.0586Z" fill="white" stroke="black"/>
<path d="M6.51296 5.95893L7.69096 7.15973M3.51096 25.1261C5.26656 26.8817 7.59976 26.6081 9.78856 26.6613M5.80616 11.1573C2.07456 13.8249 1.17016 19.2437 1.30696 19.2133M10.5486 11.5525C10.161 14.3873 11.187 17.5033 13.315 20.8245M12.5018 3.42813C13.695 2.23493 16.0434 1.39893 19.1366 0.927734M15.1238 32.1789C14.7438 33.1821 14.8426 34.5729 15.063 36.0549M15.5342 6.54413C17.6774 6.78733 21.5534 7.10653 24.6238 8.84693M21.5534 28.9413C23.9094 30.2561 26.4858 30.8185 29.6094 30.3093M27.0254 15.0485C25.1862 17.5869 22.967 19.9505 20.3982 22.1621M28.8266 6.05773C27.983 4.48453 26.577 3.20773 25.0342 1.99933M33.7438 11.7349C34.5038 11.7577 35.241 12.0693 35.9478 12.8065M32.619 16.5685C33.8198 18.8257 33.9946 22.0253 34.1694 25.2325" stroke="black"/>
<path d="M6.65747 6.07982C8.50427 4.91702 10.4423 3.77702 13.1631 2.85742C14.2347 3.74662 15.0859 5.19062 15.9903 6.59662C13.8015 8.68662 11.7191 10.731 10.4879 12.3422C8.40547 12.1522 7.37187 12.327 4.86387 11.8862C4.88667 10.0318 5.50227 8.09382 6.65747 6.07982ZM28.7279 5.77582C30.7875 7.66062 32.8091 9.56062 34.2303 11.7646C33.8123 13.7558 33.4323 15.9674 32.8623 17.115C31.0839 16.849 28.7887 16.165 26.6303 15.595C25.5815 12.8818 24.8747 10.845 24.0463 8.57262C25.6423 7.38702 27.2155 6.32302 28.7279 5.77582ZM3.85307 28.8266C1.82235 25.6831 0.818476 21.9863 0.980268 18.2474L1.42867 18.1942C1.83907 20.7934 2.37107 23.3166 3.79227 25.247C3.51867 26.6074 3.77707 27.7018 4.17987 28.7278L3.85307 28.8266ZM12.9503 20.2766C15.7243 20.7326 18.3995 21.1886 21.0063 21.6446C21.8119 24.1754 21.9183 26.7138 22.1919 29.2446C20.1931 30.9014 17.4419 31.4258 15.0175 32.4366C12.1903 30.6126 11.0427 28.5758 9.42387 26.5998C10.3511 24.4642 11.3771 22.3362 12.9503 20.2766ZM35.8491 25.4294C34.4887 29.0067 32.027 32.0593 28.8191 34.1466L27.9375 34.1086C28.5759 33.1434 28.8039 31.8514 28.8343 30.3998C30.5975 29.5562 32.3607 26.881 34.1239 24.5326C34.7775 24.7606 35.3323 25.0798 35.8491 25.4294ZM18.4679 37.0346C15.8435 36.955 13.2681 36.304 10.9211 35.127C12.4335 35.6894 13.7103 36.2138 15.0403 35.7578C15.4431 36.3278 16.3779 36.7762 18.4679 37.0346Z" fill="black"/>
</g>
<defs>
<clipPath id="clip0_532_1018">
<rect width="38" height="38" fill="white"/>
</clipPath>
</defs>
</svg>
