<svg width="404" height="235" viewBox="0 0 404 235" fill="none" xmlns="http://www.w3.org/2000/svg">
<path d="M17.1064 220.938L12.9189 165.185L101.196 158.554L105.383 214.308C105.767 219.419 101.9 223.915 96.7888 224.298L27.0966 229.533C21.9858 229.917 17.4902 226.049 17.1064 220.938Z" fill="#FFFDF9" fill-opacity="0.2"/>
<path d="M100.361 147.436L101.202 158.636L12.9255 165.266L12.0843 154.066C11.7758 149.959 15.705 146.285 20.8157 145.901L90.508 140.666C95.6187 140.283 100.053 143.329 100.361 147.436Z" fill="#FC6464" fill-opacity="0.01"/>
<path d="M100.112 147.454L100.934 158.405L13.1561 164.998L12.3336 154.047C12.0391 150.126 15.8077 146.528 20.8345 146.15L90.5267 140.916C95.5534 140.538 99.8173 143.533 100.112 147.454Z" stroke="#FFFDF9" stroke-opacity="0.2" stroke-width="0.5"/>
<path d="M77.7905 157.976C81.6395 157.686 84.5254 154.332 84.2363 150.483C83.9472 146.634 80.5926 143.748 76.7436 144.037C72.8946 144.326 70.0088 147.681 70.2978 151.53C70.5869 155.379 73.9415 158.265 77.7905 157.976Z" fill="#333333" fill-opacity="0.23"/>
<path d="M35.9751 161.116C39.8241 160.827 42.7099 157.473 42.4209 153.624C42.1318 149.775 38.7772 146.889 34.9282 147.178C31.0792 147.467 28.1933 150.821 28.4824 154.67C28.7715 158.519 32.1261 161.405 35.9751 161.116Z" fill="#333333" fill-opacity="0.23"/>
<g opacity="0.2">
<path d="M76.0456 134.745C73.4902 134.937 71.5564 137.185 71.7484 139.74L72.6208 151.355C72.8127 153.911 75.0605 155.844 77.6159 155.652C80.1712 155.461 82.105 153.213 81.9131 150.657L81.0407 139.042C80.8487 136.487 78.6009 134.553 76.0456 134.745Z" fill="#FFFDF9" fill-opacity="0.14"/>
<path d="M34.2301 137.885C31.6748 138.077 29.741 140.325 29.9329 142.881L30.8053 154.496C30.9972 157.051 33.245 158.985 35.8004 158.793C38.3558 158.601 40.2895 156.353 40.0976 153.798L39.2252 142.183C39.0333 139.627 36.7855 137.693 34.2301 137.885Z" fill="#FFFDF9" fill-opacity="0.14"/>
</g>
<path d="M41.8421 177.03L32.5498 177.728L33.2477 187.02L42.54 186.322L41.8421 177.03Z" fill="#333333" fill-opacity="0.23"/>
<path d="M55.7806 175.983L46.4883 176.681L47.1862 185.973L56.4785 185.275L55.7806 175.983Z" fill="#333333" fill-opacity="0.23"/>
<path d="M69.7191 174.936L60.4268 175.634L61.1247 184.926L70.417 184.228L69.7191 174.936Z" fill="#333333" fill-opacity="0.23"/>
<path d="M83.6575 173.889L74.3652 174.587L75.0631 183.879L84.3554 183.181L83.6575 173.889Z" fill="#333333" fill-opacity="0.23"/>
<path d="M42.889 190.968L33.5967 191.666L34.2946 200.958L43.5869 200.26L42.889 190.968Z" fill="#333333" fill-opacity="0.23"/>
<path d="M56.8275 189.921L47.5352 190.619L48.2331 199.911L57.5254 199.214L56.8275 189.921Z" fill="#333333" fill-opacity="0.23"/>
<path d="M70.7659 188.874L61.4736 189.572L62.1715 198.865L71.4638 198.167L70.7659 188.874Z" fill="#333333" fill-opacity="0.23"/>
<path d="M84.7044 187.828L75.4121 188.526L76.11 197.819L85.4023 197.121L84.7044 187.828Z" fill="#333333" fill-opacity="0.23"/>
<path d="M43.9359 204.906L34.6436 205.604L35.3415 214.896L44.6338 214.198L43.9359 204.906Z" fill="#333333" fill-opacity="0.23"/>
<path d="M57.8743 203.859L48.582 204.557L49.2799 213.849L58.5722 213.151L57.8743 203.859Z" fill="#333333" fill-opacity="0.23"/>
<path d="M71.8128 202.812L62.5205 203.51L63.2184 212.802L72.5107 212.104L71.8128 202.812Z" fill="#333333" fill-opacity="0.23"/>
<path d="M85.7503 201.765L76.458 202.463L77.1559 211.755L86.4482 211.057L85.7503 201.765Z" fill="#333333" fill-opacity="0.23"/>
<path d="M63.8403 92.76L62.5781 35.2861L153.578 33.2876L154.841 90.7615C154.956 96.0299 150.74 100.435 145.472 100.551L73.6297 102.129C68.3612 102.244 63.956 98.0284 63.8403 92.76Z" fill="#FFFDF9" fill-opacity="0.2"/>
<path d="M153.327 21.8258L153.58 33.3719L62.5798 35.3704L62.3263 23.8243C62.2333 19.5908 66.4678 16.0323 71.7362 15.9166L143.579 14.3388C148.847 14.2231 153.234 17.5923 153.327 21.8258Z" fill="#FC6464" fill-opacity="0.01"/>
<path d="M153.077 21.8313L153.325 33.1275L62.8243 35.115L62.5762 23.8188C62.4873 19.7716 66.5575 16.2804 71.7417 16.1665L143.584 14.5888C148.768 14.4749 152.988 17.7841 153.077 21.8313Z" stroke="#FFFDF9" stroke-opacity="0.2" stroke-width="0.5"/>
<path d="M129.579 31.4187C133.547 31.3316 136.692 28.0444 136.605 24.0767C136.518 20.1089 133.231 16.9631 129.263 17.0502C125.296 17.1374 122.15 20.4245 122.237 24.3922C122.324 28.36 125.611 31.5058 129.579 31.4187Z" fill="#333333" fill-opacity="0.23"/>
<path d="M86.4734 32.365C90.4412 32.2779 93.587 28.9907 93.4999 25.023C93.4127 21.0552 90.1256 17.9094 86.1579 17.9965C82.1901 18.0837 79.0443 21.3708 79.1314 25.3385C79.2185 29.3063 82.5057 32.4521 86.4734 32.365Z" fill="#333333" fill-opacity="0.23"/>
<g opacity="0.2">
<path d="M129.052 7.47099C126.418 7.52884 124.31 9.73144 124.368 12.3657L124.631 24.3394C124.689 26.9736 126.891 29.0815 129.526 29.0237C132.16 28.9658 134.268 26.7632 134.21 24.129L133.947 12.1553C133.889 9.52107 131.686 7.41314 129.052 7.47099Z" fill="#FFFDF9" fill-opacity="0.14"/>
<path d="M85.9467 8.41728C83.3125 8.47513 81.2046 10.6777 81.2624 13.312L81.5254 25.2857C81.5832 27.9199 83.7858 30.0278 86.42 29.97C89.0543 29.9121 91.1622 27.7095 91.1043 25.0753L90.8414 13.1016C90.7835 10.4674 88.5809 8.35943 85.9467 8.41728Z" fill="#FFFDF9" fill-opacity="0.14"/>
</g>
<path d="M91.6298 49.023L82.0508 49.2334L82.2611 58.8124L91.8401 58.602L91.6298 49.023Z" fill="#333333" fill-opacity="0.23"/>
<path d="M105.999 48.7086L96.4199 48.9189L96.6303 58.4979L106.209 58.2876L105.999 48.7086Z" fill="#333333" fill-opacity="0.23"/>
<path d="M120.366 48.3922L110.787 48.6025L110.997 58.1815L120.576 57.9711L120.366 48.3922Z" fill="#333333" fill-opacity="0.23"/>
<path d="M134.735 48.0767L125.156 48.2871L125.367 57.8661L134.946 57.6557L134.735 48.0767Z" fill="#333333" fill-opacity="0.23"/>
<path d="M91.9452 63.3922L82.3662 63.6025L82.5766 73.1815L92.1556 72.9711L91.9452 63.3922Z" fill="#333333" fill-opacity="0.23"/>
<path d="M106.314 63.0767L96.7354 63.2871L96.9457 72.8661L106.525 72.6557L106.314 63.0767Z" fill="#333333" fill-opacity="0.23"/>
<path d="M120.682 62.7613L111.104 62.9717L111.314 72.5507L120.893 72.3403L120.682 62.7613Z" fill="#333333" fill-opacity="0.23"/>
<path d="M135.051 62.4449L125.472 62.6553L125.682 72.2343L135.261 72.0239L135.051 62.4449Z" fill="#333333" fill-opacity="0.23"/>
<path d="M92.2616 77.7603L82.6826 77.9707L82.893 87.5497L92.472 87.3393L92.2616 77.7603Z" fill="#333333" fill-opacity="0.23"/>
<path d="M106.631 77.4439L97.0518 77.6543L97.2621 87.2333L106.841 87.0229L106.631 77.4439Z" fill="#333333" fill-opacity="0.23"/>
<path d="M120.998 77.1285L111.419 77.3389L111.629 86.9178L121.208 86.7075L120.998 77.1285Z" fill="#333333" fill-opacity="0.23"/>
<path d="M135.366 76.8131L125.787 77.0234L125.997 86.6024L135.576 86.392L135.366 76.8131Z" fill="#333333" fill-opacity="0.23"/>
<path d="M307.296 37.8855L303.246 19.373L332.558 12.9607L336.607 31.4732C336.979 33.1702 335.894 34.8624 334.197 35.2336L311.056 40.296C309.359 40.6672 307.667 39.5825 307.296 37.8855Z" fill="#FFFDF9" fill-opacity="0.2"/>
<path d="M331.749 9.26919L332.563 12.9882L303.251 19.4005L302.438 15.6815C302.14 14.3179 303.284 12.8984 304.981 12.5272L328.122 7.46482C329.818 7.09359 331.451 7.90555 331.749 9.26919Z" fill="#FC6464" fill-opacity="0.01"/>
<path d="M331.505 9.32262L332.265 12.7974L303.442 19.1029L302.682 15.6281C302.424 14.4465 303.42 13.1246 305.034 12.7714L328.175 7.70905C329.79 7.35582 331.247 8.14101 331.505 9.32262Z" stroke="#FFFDF9" stroke-opacity="0.2" stroke-width="0.5"/>
<path d="M324.676 13.8777C325.954 13.5982 326.764 12.3355 326.484 11.0575C326.204 9.77943 324.942 8.97004 323.664 9.24963C322.386 9.52921 321.576 10.7919 321.856 12.0699C322.135 13.3479 323.398 14.1573 324.676 13.8777Z" fill="#333333" fill-opacity="0.23"/>
<path d="M310.791 16.9149C312.069 16.6353 312.879 15.3726 312.599 14.0946C312.32 12.8165 311.057 12.0071 309.779 12.2867C308.501 12.5663 307.691 13.829 307.971 15.107C308.251 16.385 309.513 17.1944 310.791 16.9149Z" fill="#333333" fill-opacity="0.23"/>
<g opacity="0.2">
<path d="M322.987 6.16349C322.139 6.34911 321.596 7.19519 321.782 8.04368L322.626 11.9004C322.811 12.7489 323.657 13.2913 324.506 13.1057C325.354 12.92 325.897 12.074 325.711 11.2255L324.867 7.3687C324.682 6.52022 323.836 5.97787 322.987 6.16349Z" fill="#FFFDF9" fill-opacity="0.14"/>
<path d="M309.102 9.2006C308.254 9.38622 307.711 10.2323 307.897 11.0808L308.741 14.9376C308.926 15.786 309.772 16.3284 310.621 16.1428C311.469 15.9572 312.012 15.1111 311.826 14.2626L310.982 10.4058C310.797 9.55732 309.951 9.01498 309.102 9.2006Z" fill="#FFFDF9" fill-opacity="0.14"/>
</g>
<path d="M313.514 21.9764L310.429 22.6514L311.104 25.7368L314.189 25.0618L313.514 21.9764Z" fill="#333333" fill-opacity="0.23"/>
<path d="M318.143 20.9647L315.058 21.6396L315.733 24.7251L318.818 24.0501L318.143 20.9647Z" fill="#333333" fill-opacity="0.23"/>
<path d="M322.77 19.952L319.685 20.627L320.36 23.7124L323.445 23.0374L322.77 19.952Z" fill="#333333" fill-opacity="0.23"/>
<path d="M327.399 18.9393L324.313 19.6143L324.988 22.6997L328.074 22.0247L327.399 18.9393Z" fill="#333333" fill-opacity="0.23"/>
<path d="M314.527 26.6053L311.441 27.2803L312.116 30.3657L315.202 29.6907L314.527 26.6053Z" fill="#333333" fill-opacity="0.23"/>
<path d="M319.155 25.5926L316.069 26.2676L316.744 29.353L319.83 28.678L319.155 25.5926Z" fill="#333333" fill-opacity="0.23"/>
<path d="M323.783 24.5799L320.697 25.2549L321.372 28.3403L324.458 27.6653L323.783 24.5799Z" fill="#333333" fill-opacity="0.23"/>
<path d="M328.412 23.5672L325.326 24.2422L326.001 27.3276L329.087 26.6526L328.412 23.5672Z" fill="#333333" fill-opacity="0.23"/>
<path d="M315.54 31.2332L312.454 31.9082L313.129 34.9936L316.214 34.3186L315.54 31.2332Z" fill="#333333" fill-opacity="0.23"/>
<path d="M320.167 30.2205L317.082 30.8955L317.757 33.9809L320.842 33.3059L320.167 30.2205Z" fill="#333333" fill-opacity="0.23"/>
<path d="M324.795 29.2078L321.71 29.8828L322.385 32.9682L325.47 32.2932L324.795 29.2078Z" fill="#333333" fill-opacity="0.23"/>
<path d="M329.423 28.1951L326.338 28.8701L327.013 31.9555L330.098 31.2806L329.423 28.1951Z" fill="#333333" fill-opacity="0.23"/>
<path d="M266.618 90.7828L276.324 52.5322L336.888 67.9005L327.181 106.151C326.292 109.657 322.695 111.798 319.188 110.908L271.375 98.7756C267.869 97.8858 265.728 94.2891 266.618 90.7828Z" fill="#FFFDF9" fill-opacity="0.2"/>
<path d="M338.823 60.2724L336.873 67.9566L276.31 52.5883L278.26 44.9041C278.975 42.0865 282.428 40.5092 285.935 41.399L333.748 53.5318C337.254 54.4216 339.538 57.4548 338.823 60.2724Z" fill="#FC6464" fill-opacity="0.01"/>
<path d="M338.581 60.2109L336.692 67.6528L276.614 52.4075L278.502 44.9656C279.171 42.3286 282.449 40.7723 285.873 41.6413L333.686 53.7742C337.111 54.6432 339.25 57.574 338.581 60.2109Z" stroke="#FFFDF9" stroke-opacity="0.2" stroke-width="0.5"/>
<path d="M321.354 62.2622C323.994 62.9323 326.678 61.3349 327.348 58.6942C328.018 56.0536 326.421 53.3697 323.78 52.6996C321.14 52.0295 318.456 53.627 317.786 56.2676C317.116 58.9083 318.713 61.5922 321.354 62.2622Z" fill="#333333" fill-opacity="0.23"/>
<path d="M292.666 54.982C295.307 55.6521 297.991 54.0546 298.661 51.4139C299.331 48.7733 297.733 46.0894 295.093 45.4193C292.452 44.7493 289.768 46.3467 289.098 48.9874C288.428 51.628 290.026 54.3119 292.666 54.982Z" fill="#333333" fill-opacity="0.23"/>
<g opacity="0.2">
<path d="M325.398 46.3245C323.644 45.8796 321.846 46.95 321.401 48.7032L319.379 56.672C318.934 58.4252 320.004 60.2236 321.758 60.6684C323.511 61.1133 325.309 60.0429 325.754 58.2897L327.776 50.3209C328.221 48.5677 327.151 46.7694 325.398 46.3245Z" fill="#FFFDF9" fill-opacity="0.14"/>
<path d="M296.71 39.0442C294.957 38.5993 293.158 39.6697 292.714 41.4229L290.691 49.3918C290.247 51.1449 291.317 52.9433 293.07 53.3882C294.823 53.833 296.622 52.7626 297.067 51.0095L299.089 43.0406C299.534 41.2875 298.463 39.4891 296.71 39.0442Z" fill="#FFFDF9" fill-opacity="0.14"/>
</g>
<path d="M293.022 66.9468L286.646 65.3291L285.029 71.7042L291.404 73.3219L293.022 66.9468Z" fill="#333333" fill-opacity="0.23"/>
<path d="M302.584 69.3746L296.209 67.7568L294.591 74.1319L300.966 75.7496L302.584 69.3746Z" fill="#333333" fill-opacity="0.23"/>
<path d="M312.147 71.8003L305.771 70.1826L304.154 76.5577L310.529 78.1754L312.147 71.8003Z" fill="#333333" fill-opacity="0.23"/>
<path d="M321.709 74.2271L315.334 72.6094L313.716 78.9845L320.091 80.6022L321.709 74.2271Z" fill="#333333" fill-opacity="0.23"/>
<path d="M290.595 76.5103L284.22 74.8926L282.602 81.2677L288.977 82.8854L290.595 76.5103Z" fill="#333333" fill-opacity="0.23"/>
<path d="M300.158 78.9371L293.783 77.3193L292.165 83.6944L298.541 85.3121L300.158 78.9371Z" fill="#333333" fill-opacity="0.23"/>
<path d="M309.721 81.3628L303.346 79.7451L301.728 86.1202L308.103 87.7379L309.721 81.3628Z" fill="#333333" fill-opacity="0.23"/>
<path d="M319.283 83.7896L312.908 82.1719L311.29 88.547L317.666 90.1647L319.283 83.7896Z" fill="#333333" fill-opacity="0.23"/>
<path d="M288.169 86.0728L281.794 84.4551L280.176 90.8302L286.551 92.4479L288.169 86.0728Z" fill="#333333" fill-opacity="0.23"/>
<path d="M297.733 88.4986L291.357 86.8809L289.74 93.2559L296.115 94.8737L297.733 88.4986Z" fill="#333333" fill-opacity="0.23"/>
<path d="M307.294 90.9253L300.919 89.3076L299.301 95.6827L305.676 97.3004L307.294 90.9253Z" fill="#333333" fill-opacity="0.23"/>
<path d="M316.857 93.3521L310.481 91.7344L308.864 98.1095L315.239 99.7272L316.857 93.3521Z" fill="#333333" fill-opacity="0.23"/>
<path d="M292.642 191.187L302.496 151.973L364.585 167.574L354.731 206.788C353.828 210.383 350.148 212.585 346.553 211.682L297.536 199.365C293.941 198.461 291.739 194.781 292.642 191.187Z" fill="#FFFDF9" fill-opacity="0.2"/>
<path d="M366.549 159.754L364.57 167.632L302.481 152.03L304.461 144.152C305.186 141.264 308.721 139.639 312.316 140.543L361.333 152.86C364.928 153.763 367.275 156.866 366.549 159.754Z" fill="#FC6464" fill-opacity="0.01"/>
<path d="M366.307 159.693L364.388 167.328L302.784 151.849L304.703 144.213C305.383 141.505 308.742 139.902 312.255 140.785L361.272 153.102C364.785 153.985 366.987 156.985 366.307 159.693Z" stroke="#FFFDF9" stroke-opacity="0.2" stroke-width="0.5"/>
<path d="M348.655 161.835C351.362 162.515 354.108 160.872 354.789 158.165C355.469 155.458 353.826 152.712 351.119 152.032C348.411 151.351 345.665 152.994 344.985 155.702C344.305 158.409 345.948 161.155 348.655 161.835Z" fill="#333333" fill-opacity="0.23"/>
<path d="M319.245 154.444C321.952 155.125 324.698 153.482 325.378 150.774C326.059 148.067 324.416 145.321 321.708 144.641C319.001 143.961 316.255 145.604 315.575 148.311C314.895 151.018 316.538 153.764 319.245 154.444Z" fill="#333333" fill-opacity="0.23"/>
<g opacity="0.2">
<path d="M352.761 145.495C350.964 145.043 349.124 146.144 348.672 147.942L346.619 156.111C346.168 157.909 347.269 159.749 349.066 160.2C350.863 160.652 352.703 159.551 353.155 157.754L355.208 149.584C355.659 147.787 354.558 145.947 352.761 145.495Z" fill="#FFFDF9" fill-opacity="0.14"/>
<path d="M323.351 138.104C321.554 137.653 319.713 138.754 319.262 140.551L317.209 148.721C316.757 150.518 317.858 152.358 319.656 152.81C321.453 153.261 323.293 152.16 323.745 150.363L325.798 142.193C326.249 140.396 325.148 138.556 323.351 138.104Z" fill="#FFFDF9" fill-opacity="0.14"/>
</g>
<path d="M319.639 166.704L313.104 165.062L311.461 171.597L317.997 173.239L319.639 166.704Z" fill="#333333" fill-opacity="0.23"/>
<path d="M329.443 169.168L322.907 167.525L321.265 174.061L327.801 175.703L329.443 169.168Z" fill="#333333" fill-opacity="0.23"/>
<path d="M339.246 171.63L332.71 169.987L331.068 176.523L337.603 178.165L339.246 171.63Z" fill="#333333" fill-opacity="0.23"/>
<path d="M349.049 174.093L342.514 172.451L340.871 178.987L347.407 180.629L349.049 174.093Z" fill="#333333" fill-opacity="0.23"/>
<path d="M317.175 176.507L310.64 174.864L308.997 181.4L315.533 183.042L317.175 176.507Z" fill="#333333" fill-opacity="0.23"/>
<path d="M326.979 178.97L320.443 177.328L318.801 183.864L325.337 185.506L326.979 178.97Z" fill="#333333" fill-opacity="0.23"/>
<path d="M336.783 181.434L330.247 179.792L328.605 186.328L335.14 187.97L336.783 181.434Z" fill="#333333" fill-opacity="0.23"/>
<path d="M346.586 183.897L340.051 182.255L338.408 188.791L344.944 190.433L346.586 183.897Z" fill="#333333" fill-opacity="0.23"/>
<path d="M314.712 186.31L308.177 184.668L306.534 191.204L313.07 192.846L314.712 186.31Z" fill="#333333" fill-opacity="0.23"/>
<path d="M324.517 188.773L317.981 187.131L316.339 193.667L322.875 195.309L324.517 188.773Z" fill="#333333" fill-opacity="0.23"/>
<path d="M334.319 191.236L327.783 189.594L326.141 196.129L332.677 197.772L334.319 191.236Z" fill="#333333" fill-opacity="0.23"/>
<path d="M344.123 193.7L337.587 192.058L335.945 198.593L342.48 200.236L344.123 193.7Z" fill="#333333" fill-opacity="0.23"/>
<path d="M186.915 155.398L182.173 116.388L243.938 108.879L248.681 147.888C249.116 151.464 246.546 154.746 242.97 155.181L194.207 161.109C190.632 161.543 187.35 158.973 186.915 155.398Z" fill="#FFFDF9" fill-opacity="0.2"/>
<path d="M242.992 101.099L243.945 108.936L182.18 116.445L181.227 108.608C180.878 105.735 183.518 103.028 187.093 102.593L235.856 96.6652C239.432 96.2304 242.643 98.2258 242.992 101.099Z" fill="#FC6464" fill-opacity="0.01"/>
<path d="M242.744 101.129L243.667 108.718L182.398 116.167L181.475 108.578C181.148 105.89 183.631 103.266 187.124 102.842L235.886 96.9134C239.378 96.4888 242.417 98.4409 242.744 101.129Z" stroke="#FFFDF9" stroke-opacity="0.2" stroke-width="0.5"/>
<path d="M227.487 109.23C230.18 108.903 232.097 106.454 231.77 103.761C231.443 101.068 228.994 99.1501 226.301 99.4775C223.608 99.8049 221.69 102.253 222.018 104.947C222.345 107.64 224.794 109.557 227.487 109.23Z" fill="#333333" fill-opacity="0.23"/>
<path d="M198.229 112.787C200.922 112.459 202.84 110.011 202.512 107.318C202.185 104.624 199.736 102.707 197.043 103.034C194.35 103.362 192.432 105.81 192.76 108.503C193.087 111.196 195.536 113.114 198.229 112.787Z" fill="#333333" fill-opacity="0.23"/>
<g opacity="0.2">
<path d="M225.511 92.9749C223.723 93.1923 222.438 94.833 222.655 96.6209L223.643 104.748C223.86 106.536 225.501 107.821 227.289 107.604C229.077 107.386 230.362 105.746 230.145 103.958L229.157 95.8305C228.939 94.0426 227.299 92.7575 225.511 92.9749Z" fill="#FFFDF9" fill-opacity="0.14"/>
<path d="M196.253 96.5315C194.465 96.7489 193.18 98.3896 193.397 100.178L194.385 108.305C194.603 110.093 196.243 111.378 198.031 111.16C199.819 110.943 201.104 109.302 200.887 107.514L199.899 99.3872C199.681 97.5992 198.041 96.3142 196.253 96.5315Z" fill="#FFFDF9" fill-opacity="0.14"/>
</g>
<path d="M202.863 123.768L196.361 124.559L197.152 131.06L203.653 130.27L202.863 123.768Z" fill="#333333" fill-opacity="0.23"/>
<path d="M212.616 122.584L206.114 123.374L206.905 129.876L213.406 129.085L212.616 122.584Z" fill="#333333" fill-opacity="0.23"/>
<path d="M222.368 121.397L215.866 122.188L216.657 128.689L223.158 127.899L222.368 121.397Z" fill="#333333" fill-opacity="0.23"/>
<path d="M232.121 120.212L225.619 121.002L226.41 127.504L232.911 126.713L232.121 120.212Z" fill="#333333" fill-opacity="0.23"/>
<path d="M204.049 133.521L197.547 134.312L198.337 140.813L204.839 140.023L204.049 133.521Z" fill="#333333" fill-opacity="0.23"/>
<path d="M213.801 132.336L207.3 133.126L208.09 139.628L214.592 138.837L213.801 132.336Z" fill="#333333" fill-opacity="0.23"/>
<path d="M223.553 131.15L217.052 131.94L217.842 138.442L224.344 137.652L223.553 131.15Z" fill="#333333" fill-opacity="0.23"/>
<path d="M233.306 129.964L226.805 130.755L227.595 137.257L234.097 136.466L233.306 129.964Z" fill="#333333" fill-opacity="0.23"/>
<path d="M205.235 143.273L198.733 144.063L199.524 150.565L206.025 149.775L205.235 143.273Z" fill="#333333" fill-opacity="0.23"/>
<path d="M214.987 142.088L208.485 142.878L209.276 149.38L215.777 148.589L214.987 142.088Z" fill="#333333" fill-opacity="0.23"/>
<path d="M224.739 140.902L218.237 141.692L219.028 148.194L225.529 147.404L224.739 140.902Z" fill="#333333" fill-opacity="0.23"/>
<path d="M234.492 139.716L227.99 140.507L228.781 147.008L235.282 146.218L234.492 139.716Z" fill="#333333" fill-opacity="0.23"/>
<path d="M188.046 223.624L181.845 195.049L227.089 185.231L233.29 213.806C233.858 216.426 232.18 219.034 229.561 219.602L193.842 227.353C191.222 227.922 188.614 226.244 188.046 223.624Z" fill="#FFFDF9" fill-opacity="0.2"/>
<path d="M225.853 179.532L227.099 185.272L181.854 195.09L180.609 189.35C180.152 187.245 181.921 185.057 184.541 184.489L220.26 176.738C222.88 176.17 225.396 177.427 225.853 179.532Z" fill="#FC6464" fill-opacity="0.01"/>
<path d="M225.609 179.585L226.802 185.081L182.046 194.793L180.853 189.297C180.436 187.374 182.057 185.284 184.594 184.733L220.313 176.982C222.85 176.432 225.192 177.662 225.609 179.585Z" stroke="#FFFDF9" stroke-opacity="0.2" stroke-width="0.5"/>
<path d="M214.925 186.624C216.898 186.196 218.15 184.249 217.722 182.277C217.294 180.304 215.347 179.052 213.375 179.48C211.402 179.908 210.15 181.854 210.578 183.827C211.006 185.8 212.952 187.052 214.925 186.624Z" fill="#333333" fill-opacity="0.23"/>
<path d="M193.493 191.274C195.466 190.846 196.718 188.9 196.29 186.927C195.862 184.954 193.916 183.702 191.943 184.13C189.97 184.558 188.718 186.504 189.146 188.477C189.574 190.45 191.52 191.702 193.493 191.274Z" fill="#333333" fill-opacity="0.23"/>
<g opacity="0.2">
<path d="M212.341 174.717C211.032 175.001 210.192 176.305 210.477 177.615L211.769 183.568C212.053 184.878 213.357 185.717 214.667 185.432C215.976 185.148 216.815 183.844 216.531 182.534L215.239 176.581C214.955 175.272 213.651 174.432 212.341 174.717Z" fill="#FFFDF9" fill-opacity="0.14"/>
<path d="M190.91 179.367C189.6 179.651 188.761 180.955 189.045 182.265L190.337 188.218C190.621 189.528 191.925 190.367 193.235 190.083C194.545 189.799 195.384 188.495 195.099 187.185L193.808 181.232C193.523 179.922 192.219 179.083 190.91 179.367Z" fill="#FFFDF9" fill-opacity="0.14"/>
</g>
<path d="M197.682 199.093L192.92 200.126L193.953 204.889L198.716 203.855L197.682 199.093Z" fill="#333333" fill-opacity="0.23"/>
<path d="M204.827 197.543L200.064 198.576L201.098 203.339L205.86 202.305L204.827 197.543Z" fill="#333333" fill-opacity="0.23"/>
<path d="M211.97 195.992L207.207 197.025L208.24 201.788L213.003 200.754L211.97 195.992Z" fill="#333333" fill-opacity="0.23"/>
<path d="M219.114 194.442L214.352 195.476L215.385 200.238L220.148 199.205L219.114 194.442Z" fill="#333333" fill-opacity="0.23"/>
<path d="M199.232 206.237L194.47 207.271L195.503 212.033L200.266 211L199.232 206.237Z" fill="#333333" fill-opacity="0.23"/>
<path d="M206.377 204.686L201.614 205.72L202.648 210.482L207.41 209.449L206.377 204.686Z" fill="#333333" fill-opacity="0.23"/>
<path d="M213.52 203.136L208.758 204.17L209.791 208.932L214.554 207.899L213.52 203.136Z" fill="#333333" fill-opacity="0.23"/>
<path d="M220.664 201.586L215.901 202.619L216.935 207.382L221.697 206.348L220.664 201.586Z" fill="#333333" fill-opacity="0.23"/>
<path d="M200.783 213.381L196.021 214.414L197.054 219.177L201.817 218.143L200.783 213.381Z" fill="#333333" fill-opacity="0.23"/>
<path d="M207.928 211.83L203.165 212.863L204.199 217.626L208.961 216.592L207.928 211.83Z" fill="#333333" fill-opacity="0.23"/>
<path d="M215.071 210.28L210.309 211.313L211.342 216.076L216.105 215.043L215.071 210.28Z" fill="#333333" fill-opacity="0.23"/>
<path d="M222.215 208.729L217.452 209.763L218.486 214.525L223.248 213.492L222.215 208.729Z" fill="#333333" fill-opacity="0.23"/>
<path d="M108.597 160.135L112.178 128.499L162.268 134.168L158.687 165.804C158.359 168.703 155.718 170.808 152.818 170.479L113.273 166.004C110.373 165.676 108.269 163.035 108.597 160.135Z" fill="#FFFDF9" fill-opacity="0.2"/>
<path d="M162.981 127.859L162.262 134.214L112.172 128.545L112.892 122.19C113.155 119.86 115.744 118.222 118.644 118.55L158.188 123.025C161.088 123.353 163.245 125.529 162.981 127.859Z" fill="#FC6464" fill-opacity="0.01"/>
<path d="M162.733 127.831L162.042 133.938L112.449 128.325L113.14 122.218C113.383 120.073 115.799 118.48 118.616 118.798L158.16 123.274C160.976 123.592 162.976 125.686 162.733 127.831Z" stroke="#FFFDF9" stroke-opacity="0.2" stroke-width="0.5"/>
<path d="M149.235 131.358C151.419 131.606 153.39 130.035 153.637 127.851C153.884 125.667 152.314 123.697 150.13 123.449C147.946 123.202 145.975 124.772 145.728 126.956C145.481 129.14 147.051 131.111 149.235 131.358Z" fill="#333333" fill-opacity="0.23"/>
<path d="M125.509 128.673C127.693 128.92 129.663 127.35 129.911 125.166C130.158 122.982 128.588 121.011 126.404 120.764C124.22 120.517 122.249 122.087 122.002 124.271C121.755 126.455 123.325 128.426 125.509 128.673Z" fill="#333333" fill-opacity="0.23"/>
<g opacity="0.2">
<path d="M150.726 118.176C149.276 118.012 147.956 119.064 147.791 120.514L147.046 127.105C146.881 128.555 147.934 129.876 149.384 130.04C150.834 130.204 152.154 129.152 152.318 127.702L153.064 121.111C153.228 119.661 152.176 118.34 150.726 118.176Z" fill="#FFFDF9" fill-opacity="0.14"/>
<path d="M127 115.491C125.55 115.327 124.229 116.379 124.065 117.829L123.319 124.419C123.155 125.869 124.207 127.19 125.657 127.354C127.107 127.518 128.428 126.466 128.592 125.016L129.338 118.425C129.502 116.975 128.45 115.655 127 115.491Z" fill="#FFFDF9" fill-opacity="0.14"/>
</g>
<path d="M127.1 138.197L121.827 137.601L121.23 142.873L126.503 143.47L127.1 138.197Z" fill="#333333" fill-opacity="0.23"/>
<path d="M135.009 139.093L129.736 138.496L129.14 143.769L134.412 144.365L135.009 139.093Z" fill="#333333" fill-opacity="0.23"/>
<path d="M142.917 139.987L137.645 139.391L137.048 144.663L142.32 145.26L142.917 139.987Z" fill="#333333" fill-opacity="0.23"/>
<path d="M150.826 140.883L145.554 140.286L144.957 145.559L150.23 146.155L150.826 140.883Z" fill="#333333" fill-opacity="0.23"/>
<path d="M126.205 146.106L120.933 145.51L120.336 150.782L125.609 151.379L126.205 146.106Z" fill="#333333" fill-opacity="0.23"/>
<path d="M134.113 147.002L128.841 146.405L128.244 151.678L133.517 152.275L134.113 147.002Z" fill="#333333" fill-opacity="0.23"/>
<path d="M142.023 147.897L136.75 147.3L136.153 152.572L141.426 153.169L142.023 147.897Z" fill="#333333" fill-opacity="0.23"/>
<path d="M149.932 148.791L144.659 148.194L144.062 153.467L149.335 154.064L149.932 148.791Z" fill="#333333" fill-opacity="0.23"/>
<path d="M125.31 154.015L120.037 153.418L119.44 158.691L124.713 159.287L125.31 154.015Z" fill="#333333" fill-opacity="0.23"/>
<path d="M133.219 154.909L127.946 154.312L127.35 159.585L132.622 160.182L133.219 154.909Z" fill="#333333" fill-opacity="0.23"/>
<path d="M141.128 155.805L135.855 155.208L135.259 160.481L140.531 161.077L141.128 155.805Z" fill="#333333" fill-opacity="0.23"/>
<path d="M149.036 156.7L143.764 156.104L143.167 161.376L148.44 161.973L149.036 156.7Z" fill="#333333" fill-opacity="0.23"/>
</svg>
