<svg width="143" height="78" viewBox="0 0 143 78" fill="none" xmlns="http://www.w3.org/2000/svg">
<path d="M55.9228 17.2644L55.9228 17.2644C55.6242 17.932 54.8355 20.1747 54.1192 22.2576C53.7616 23.2976 53.4228 24.2955 53.1734 25.0334C53.0487 25.4024 52.9463 25.7063 52.8752 25.918L52.7929 26.163L52.7714 26.2272L52.7659 26.2436L52.7645 26.2478L52.7641 26.2488L52.7641 26.249L55.9228 17.2644ZM55.9228 17.2644C56.5132 15.944 58.0182 14.1448 60.9117 13.7807C62.3544 13.5992 63.1959 14.0035 63.6565 14.5362C64.1223 15.0749 64.2126 15.7599 64.1244 16.1614C64.1024 16.2615 64.0091 16.5437 63.8568 16.9741C63.7058 17.4011 63.4995 17.9663 63.2551 18.6267C62.7664 19.9473 62.1259 21.6467 61.4713 23.377C61.2133 24.0589 60.9531 24.7456 60.6992 25.4159C59.6648 28.1461 58.734 30.6031 58.4784 31.3431C58.1737 32.2257 57.4865 32.5842 56.7893 32.6119C56.0828 32.64 55.3824 32.3278 55.0682 31.8858L54.9867 31.9438M55.9228 17.2644L54.9867 31.9438M54.9867 31.9438L55.0682 31.8858C54.9592 31.7326 54.8259 31.5477 54.6786 31.3433M54.9867 31.9438L54.6786 31.3433M54.6786 31.3433C54.0742 30.5048 53.2342 29.3395 52.8766 28.6998M54.6786 31.3433L52.8766 28.6998M52.8766 28.6998C52.6574 28.3076 52.5409 27.9696 52.5214 27.5968M52.8766 28.6998L52.5214 27.5968M52.5214 27.5968C52.5018 27.222 52.5797 26.8034 52.764 26.2491L52.5214 27.5968Z" fill="white" stroke="black" stroke-width="0.2"/>
<path d="M51.9536 51.0194C51.8594 50.9859 51.8594 50.9859 51.8595 50.9858L51.8596 50.9855L51.86 50.9843L51.8617 50.9796L51.8683 50.9609L51.8943 50.8877L51.9933 50.609L52.3501 49.6044C52.6472 48.7674 53.0478 47.638 53.462 46.4685C54.2905 44.1288 55.1725 41.6299 55.3883 40.9877C55.8059 39.7449 55.2365 38.627 54.3518 38.2773C53.608 37.9833 52.1811 37.3969 50.94 36.8868C50.2142 36.5885 49.5519 36.3163 49.127 36.144C48.7107 36.0087 48.2764 35.9569 47.8442 35.9909L47.8403 35.9913L47.8403 35.9912C45.3357 36.088 42.9006 36.3038 40.5413 36.6148L40.3795 36.6361L40.434 36.4823C40.9357 35.0647 41.2836 34.0825 41.4215 33.6956C43.4743 27.9334 45.7479 21.3758 47.5296 16.1432C48.4205 13.5269 49.1883 11.2421 49.744 9.55366C50.0218 8.70941 50.2466 8.01459 50.4071 7.50213C50.5688 6.98607 50.6629 6.66235 50.6828 6.55428C50.7617 6.12615 50.6214 5.47533 50.0603 4.98029C49.5009 4.4868 48.51 4.13754 46.8712 4.34409C43.5893 4.75775 42.064 6.29259 41.3869 7.72065L41.2966 7.67781L41.3869 7.72066C41.0434 8.44517 39.6191 12.342 37.7544 17.5946C35.8912 22.843 33.5912 29.436 31.4982 35.5448C31.1957 36.4276 30.8465 37.4382 30.4618 38.5455L30.4443 38.5959L30.3927 38.6094C26.6866 39.5802 23.0358 40.7972 19.46 42.254L19.2577 42.3364L19.3275 42.1294C20.7003 38.058 22.6794 32.432 24.3435 27.7164C24.5556 27.1152 24.7627 26.5288 24.9627 25.9623C25.5471 24.3069 26.0716 22.8214 26.4886 21.633C27.0494 20.0346 27.4131 18.9808 27.4687 18.7696C27.5975 18.2812 27.6258 17.5708 27.2594 17.0354C26.8993 16.5092 26.1312 16.1157 24.5847 16.3125C23.036 16.5096 21.9731 17.0217 21.2207 17.67C20.4676 18.319 20.019 19.1102 19.7085 19.8761C19.0817 21.4225 14.6795 33.3925 11.3104 43.5833C11.0345 44.4179 10.6879 45.4371 10.2973 46.5692L10.2847 46.6058L10.2507 46.6244C7.3187 48.2266 4.99182 49.7164 3.36105 50.843C1.72703 51.9719 0.797539 52.7323 0.655525 52.8759L0.655132 52.8763C0.349352 53.1821 0.154148 53.605 0.109684 54.0645C0.0652807 54.5233 0.174656 54.9833 0.415161 55.356L0.441745 55.3938C0.749444 55.8321 1.43597 56.8099 2.29593 57.5786C3.1879 58.3759 4.22562 58.9129 5.20875 58.4683C5.50083 58.2927 5.79813 58.1163 6.10066 57.9389L6.33773 57.7999L6.24542 58.0588C5.97867 58.8068 5.72553 59.5159 5.49254 60.1687C4.75378 62.2383 4.21749 63.7406 4.09148 64.1164C3.93087 64.5952 3.87574 64.9657 3.94114 65.3412C4.00691 65.7188 4.1965 66.1129 4.54794 66.6351C4.69983 66.8607 6.17528 69.0062 6.35499 69.2584C6.89742 70.0195 7.63805 70.3 8.31346 70.1981C8.99063 70.096 9.61878 69.6071 9.92842 68.7945C10.2953 67.8318 13.2317 59.9257 15.6651 53.0221L15.6793 52.982L15.718 52.9644C19.1161 51.4162 22.825 49.934 26.7576 48.6353L26.9508 48.5715L26.8833 48.7634C26.4447 50.0107 26.0012 51.2709 25.5607 52.5228C24.2685 56.1948 23.0017 59.7949 21.9565 62.7852C20.5535 66.799 19.553 69.7056 19.4233 70.2197C19.2882 70.7555 19.2538 71.1682 19.3014 71.5253C19.3489 71.8812 19.4788 72.1891 19.6832 72.5144L19.5986 72.5676L19.6832 72.5144C19.8423 72.7675 20.4965 73.7416 21.1512 74.7164L21.1746 74.7512C21.82 75.7119 22.4601 76.6649 22.6131 76.9084C23.0649 77.6276 23.8324 77.9651 24.5675 77.8896C25.2999 77.8144 26.0085 77.3278 26.3405 76.3773C26.7249 75.2764 32.7792 58.135 37.1153 45.8675L37.134 45.8146L37.1889 45.803C40.0969 45.1876 43.0751 44.7051 46.0971 44.396L46.2553 44.3798L46.2014 44.5294L46.1073 44.4955C46.2014 44.5294 46.2014 44.5294 46.2013 44.5295L46.2012 44.5298L46.2008 44.531L46.1991 44.5358L46.1923 44.5546L46.1658 44.6282L46.0643 44.9099C45.9766 45.1536 45.8504 45.5043 45.6967 45.9321C45.3894 46.7878 44.972 47.9519 44.5318 49.1859C43.6513 51.6546 42.6806 54.4005 42.3172 55.5166C42.0978 56.1906 42.0761 56.6541 42.1417 57.0088C42.2059 57.3561 42.3549 57.6081 42.5077 57.8664L42.5187 57.885C42.5607 57.9562 43.1497 58.8299 43.7477 59.7108C44.0457 60.1499 44.3448 60.589 44.5769 60.9277C44.8112 61.2694 44.9731 61.5028 45.0004 61.5366C45.3321 61.9477 45.6851 62.2697 46.146 62.3999C46.6053 62.5296 47.1918 62.4741 48.0013 62.0856C48.6572 61.7709 54.1144 59.242 63.2254 56.0109L63.3545 55.9652L63.3588 56.102C63.4763 59.7964 64.1785 63.1307 65.7391 65.5768C67.2958 68.017 69.7108 69.5807 73.2789 69.7335C77.1894 69.901 82.0459 67.6147 86.8693 63.4265C91.689 59.2415 96.4613 53.1696 100.202 45.7963L100.224 45.7534L100.271 45.7437C113.552 43.0043 126.986 41.2814 140.477 40.5869L140.475 40.5797L140.618 40.5779C140.633 40.5777 140.644 40.5774 140.656 40.577C140.666 40.5767 140.677 40.5763 140.691 40.5761C140.897 40.5661 141.103 40.5564 141.31 40.5467C141.985 40.4912 142.394 40.3666 142.627 40.2155C142.742 40.1408 142.812 40.0612 142.852 39.9823C142.892 39.9035 142.905 39.8194 142.898 39.7306C142.883 39.5486 142.782 39.3513 142.652 39.1663C142.541 39.009 142.417 38.8706 142.325 38.7669C142.309 38.7498 142.295 38.7336 142.282 38.7184L142.356 38.6521L142.281 38.7184C141.494 37.828 140.445 37.8418 140.173 37.8454C140.158 37.8456 140.145 37.8458 140.135 37.8458C133.396 37.8565 126.664 38.3013 119.972 39.178C119.302 39.2681 118.879 39.0473 118.764 38.7114C118.648 38.3723 118.876 38.0068 119.324 37.8873C119.899 37.7337 124.419 36.6919 135.83 36.2174C136.06 36.2078 136.195 36.0505 136.271 35.8475C136.308 35.7467 136.328 35.6398 136.336 35.547C136.343 35.4518 136.337 35.3809 136.328 35.3498C136.325 35.338 136.322 35.3265 136.319 35.3151C136.302 35.2517 136.287 35.1948 136.247 35.1392C136.204 35.0803 136.126 35.0157 135.961 34.9758C125.196 35.3118 114.453 36.2748 103.778 37.8609L103.612 37.8855L103.669 37.7282C107.37 27.4326 108.204 17.9872 106.827 11.1342C105.449 4.27612 101.87 0.0530787 96.7682 0.100395C94.5543 0.120919 90.3685 0.841304 85.2284 5.26126C80.0862 9.68304 73.9862 17.8099 67.9545 32.6486C66.4735 36.2919 64.9359 41.4621 64.0622 46.7918L64.0523 46.8526L63.9935 46.871C60.1325 48.0821 57.1316 49.1424 55.0964 49.8999C54.0787 50.2787 53.3025 50.5817 52.7809 50.7899C52.52 50.8941 52.3228 50.9745 52.1909 51.0289C52.125 51.0561 52.0754 51.0767 52.0423 51.0906L52.005 51.1062L51.9958 51.1102L51.9935 51.1111L51.9929 51.1114L51.9928 51.1114L51.9536 51.0194ZM51.9536 51.0194L51.8594 50.9859L51.7831 51.2005L51.9928 51.1114L51.9536 51.0194ZM88.5775 48.5757L88.7027 48.3683L88.4677 48.427C82.0254 50.0366 76.1961 51.7321 71.0963 53.361L71.0269 53.3832L71.0267 53.4561C71.0222 55.6098 71.3658 57.3232 72.0847 58.5064C72.8077 59.6964 73.9069 60.3432 75.3853 60.3635C77.239 60.3887 79.3682 59.3744 81.6126 57.396C83.8592 55.4157 86.2329 52.4595 88.5775 48.5757ZM72.4255 44.2489L72.383 44.4152L72.5487 44.3701C78.3571 42.789 85.2657 41.1357 93.1021 39.6586L93.154 39.6488L93.1752 39.6005C94.0427 37.6232 94.8879 35.5118 95.7101 33.2662L95.7101 33.2661C98.0976 26.7218 99.1344 20.8655 98.8508 16.6669C98.709 14.5684 98.2367 12.8736 97.4283 11.7147C96.6161 10.5504 95.4668 9.93132 93.9942 9.98835C92.2681 10.0552 90.4784 10.9756 88.6975 12.5121C86.9154 14.0498 85.1324 16.2126 83.4185 18.7834C79.9903 23.9254 76.8289 30.7136 74.4964 37.4379L74.5909 37.4706L74.4964 37.4379C73.6562 39.8606 72.9647 42.1386 72.4255 44.2489Z" fill="white" stroke="black" stroke-width="0.2"/>
</svg>
