<svg width="143" height="78" viewBox="0 0 143 78" fill="none" xmlns="http://www.w3.org/2000/svg">
<path d="M56.0602 17.3246L56.0602 17.3246C56.6336 16.0422 58.0993 14.2848 60.9309 13.9286C62.3366 13.7517 63.1233 14.1473 63.5435 14.6333C63.9767 15.1343 64.0569 15.7705 63.9784 16.1282C63.9589 16.217 63.8696 16.4885 63.7159 16.9231C63.5652 17.349 63.3592 17.9135 63.1149 18.5736C62.6265 19.8937 61.9861 21.5927 61.3315 23.323C61.0738 24.0039 60.8139 24.6901 60.5601 25.3599C59.5257 28.0903 58.5935 30.5509 58.3371 31.2932L58.5734 31.3748L58.3371 31.2932C58.0555 32.1087 57.429 32.4354 56.7838 32.4611C56.1157 32.4876 55.4693 32.1895 55.1909 31.7979L55.1909 31.7979C55.0802 31.6422 54.9454 31.4552 54.7969 31.2492C54.1922 30.4103 53.3609 29.2568 53.008 28.6256C52.7962 28.2467 52.6896 27.9312 52.6717 27.588C52.6535 27.24 52.7252 26.8417 52.9069 26.2953L52.9072 26.2944L52.9086 26.2903L52.9141 26.2739L52.9356 26.2097L53.0178 25.9649C53.089 25.7532 53.1913 25.4493 53.316 25.0804C53.5653 24.3427 53.9041 23.345 54.2615 22.3054C54.9792 20.2186 55.7651 17.9844 56.0602 17.3246Z" fill="white" stroke="#333333" stroke-width="0.5"/>
<path d="M140.685 40.4261C140.668 40.4265 140.659 40.4268 140.65 40.4271C140.64 40.4274 140.632 40.4277 140.616 40.4279L140.258 40.4324L140.264 40.4478C126.834 41.1495 113.461 42.8698 100.241 45.5967L100.123 45.6211L100.069 45.7285C96.3353 53.0864 91.5745 59.1423 86.7709 63.3133C81.9582 67.4921 77.1387 69.7487 73.2853 69.5836C69.7659 69.4329 67.3957 67.8948 65.8655 65.4961C64.3258 63.0825 63.6259 59.7794 63.5087 56.0972L63.4978 55.7551L63.1753 55.8695C54.0592 59.1025 48.5971 61.6333 47.9364 61.9504C47.1464 62.3295 46.5988 62.3719 46.1868 62.2555C45.7707 62.138 45.4421 61.8452 45.1171 61.4424C45.1172 61.4425 45.1167 61.4419 45.1155 61.4403C45.114 61.4382 45.1111 61.4345 45.1068 61.4285C45.0998 61.419 45.0906 61.4062 45.0793 61.3902C45.0566 61.3582 45.0263 61.3151 44.9894 61.262C44.9157 61.1559 44.8167 61.0121 44.7006 60.8429C44.4687 60.5044 44.1698 60.0656 43.8718 59.6266C43.5738 59.1876 43.2769 58.7488 43.0491 58.4105C42.9352 58.2413 42.8387 58.0974 42.768 57.9913C42.7326 57.9383 42.7039 57.895 42.6828 57.8628L42.6575 57.824L42.6501 57.8124C42.6484 57.8097 42.6477 57.8086 42.6477 57.8086L42.6405 57.7963C42.4857 57.5345 42.3485 57.3024 42.2892 56.9815C42.2293 56.6579 42.2458 56.2205 42.4599 55.5631C42.8224 54.4494 43.7923 51.7058 44.6731 49.2363C45.1132 48.0024 45.5305 46.8384 45.8379 45.9828C45.9915 45.5551 46.1177 45.2044 46.2054 44.9607L46.3069 44.6791L46.3334 44.6054L46.3402 44.5866L46.3419 44.5819L46.3423 44.5807L46.3424 44.5804C46.3425 44.5804 46.3425 44.5803 46.3224 44.5731L46.3425 44.5803L46.4774 44.2063L46.0819 44.2468C43.0541 44.5565 40.0705 45.0398 37.1578 45.6562L37.0206 45.6852L36.9739 45.8175C32.6379 58.0848 26.5834 75.2266 26.1989 76.3279C25.8854 77.2256 25.2245 77.6713 24.5521 77.7404C23.8733 77.8101 23.1612 77.499 22.7401 76.8286C22.5857 76.5829 21.9449 75.6289 21.3015 74.671L21.2758 74.6328C20.6198 73.6562 19.9677 72.6852 19.8103 72.4346L19.5986 72.5676L19.8102 72.4346C19.6139 72.1221 19.494 71.8346 19.4501 71.5055C19.4058 71.1734 19.4365 70.7809 19.5688 70.2564C19.6963 69.7508 20.6931 66.8544 22.0981 62.8347C23.1433 59.8442 24.4103 56.2439 25.7025 52.5715C26.1429 51.32 26.5863 50.0601 27.0248 48.8132L27.1935 48.3333L26.7106 48.4928C22.7725 49.7934 19.0585 51.2776 15.6558 52.8279L15.559 52.8719L15.5237 52.9722C13.0906 59.8747 10.1547 67.7796 9.78825 68.7411C9.49597 69.5081 8.90964 69.9565 8.29109 70.0498C7.67696 70.1424 6.99008 69.8911 6.47714 69.1714C6.29852 68.9207 4.82389 66.7764 4.67237 66.5513C4.32513 66.0354 4.1493 65.6622 4.08891 65.3154C4.02946 64.9741 4.07721 64.6306 4.2337 64.1641C4.35919 63.7899 4.8944 62.2905 5.63262 60.2224C5.86588 59.5689 6.11942 58.8587 6.38671 58.1092L6.61747 57.4621L6.0248 57.8095C5.72447 57.9856 5.42925 58.1608 5.13916 58.3351C4.24797 58.7328 3.28063 58.2576 2.39589 57.4667C1.54911 56.7098 0.87095 55.744 0.563361 55.306L0.539643 55.2722C0.319199 54.9294 0.217815 54.5044 0.258986 54.0789C0.300308 53.6519 0.481507 53.2621 0.761199 52.9824L0.76218 52.9814C0.892995 52.8491 1.81133 52.096 3.44631 50.9665C5.07315 49.8425 7.39559 48.3555 10.3226 46.756L10.4075 46.7096L10.4391 46.6181C10.8298 45.4858 11.1766 44.4659 11.4528 43.6304C14.8215 33.4411 19.2225 21.4746 19.8476 19.9324C20.1527 19.1797 20.5897 18.4118 21.3186 17.7837C22.0457 17.1571 23.08 16.6552 24.6037 16.4613L24.5721 16.2133L24.6037 16.4613C26.1219 16.2681 26.8204 16.6595 27.1356 17.1201C27.4666 17.6038 27.4474 18.2622 27.3237 18.7314C27.2701 18.935 26.9096 19.9799 26.347 21.5834C25.9302 22.7715 25.4058 24.2568 24.8213 25.9121C24.6213 26.4787 24.4142 27.0651 24.202 27.6664C22.538 32.3819 20.5586 38.0089 19.1853 42.0815L19.0109 42.5989L19.5166 42.3929C23.0863 40.9386 26.7309 39.7237 30.4307 38.7546L30.5597 38.7208L30.6035 38.5948C30.9882 37.4873 31.3375 36.4764 31.6401 35.5934L31.4036 35.5123L31.6401 35.5934C33.733 29.4851 36.0327 22.8926 37.8957 17.6448C39.7625 12.3865 41.1832 8.50045 41.5225 7.78493L41.2966 7.67781L41.5225 7.78491C42.1761 6.40629 43.6553 4.90062 46.89 4.49291C48.5018 4.28976 49.4442 4.63681 49.961 5.09278C50.4822 5.55258 50.6048 6.15021 50.5353 6.5271C50.5175 6.62391 50.427 6.93685 50.264 7.45728C50.1038 7.96874 49.8793 8.66279 49.6015 9.50676C49.046 11.1945 48.2784 13.4788 47.3876 16.0948C45.6061 21.3269 43.3327 27.8838 41.2802 33.6453L41.5157 33.7292L41.2802 33.6453C41.1423 34.0324 40.7942 35.0147 40.2926 36.4323L40.1565 36.8168L40.5609 36.7635C42.9159 36.4531 45.3463 36.2377 47.8461 36.1411L47.8461 36.1413L47.856 36.1405C48.2667 36.1082 48.6794 36.1569 49.0756 36.285C49.4991 36.4567 50.1577 36.7274 50.8797 37.0242C52.1219 37.5347 53.552 38.1225 54.2967 38.4168C55.0975 38.7333 55.6418 39.7625 55.2461 40.9399C55.0308 41.5807 54.1494 44.0779 53.3206 46.4184C52.9065 47.5879 52.5058 48.7172 52.2087 49.5542L51.852 50.5588L51.753 50.8375L51.727 50.9106L51.7203 50.9293L51.7186 50.9341L51.7182 50.9353L51.7181 50.9356C51.7181 50.9356 51.7181 50.9357 51.9536 51.0194L51.7181 50.9357L51.5274 51.4722L52.0514 51.2495L52.0515 51.2494L52.0521 51.2492L52.0542 51.2483L52.0633 51.2444L52.1002 51.229C52.133 51.2152 52.1824 51.1946 52.2481 51.1676C52.3795 51.1134 52.5762 51.0332 52.8365 50.9292C53.3571 50.7214 54.1322 50.4188 55.1487 50.0405C57.1817 49.2839 60.18 48.2243 64.0384 47.0142L64.1854 46.9681L64.2103 46.8161C65.0821 41.4974 66.6167 36.3379 68.0935 32.705C74.1197 17.8799 80.2079 9.77617 85.3262 5.37499C90.4392 0.978382 94.5908 0.270588 96.7696 0.250388C101.762 0.204086 105.307 4.33177 106.68 11.1638C108.05 17.9829 107.222 27.3999 103.528 37.6774L103.386 38.0707L103.8 38.0093C114.462 36.4251 125.192 35.4628 135.945 35.1264C136.067 35.1592 136.108 35.2036 136.125 35.2271C136.148 35.2589 136.156 35.2877 136.173 35.3491C136.176 35.3613 136.18 35.3748 136.184 35.3899C136.184 35.3914 136.187 35.4046 136.188 35.4319C136.19 35.4595 136.189 35.4946 136.186 35.535C136.179 35.6166 136.162 35.7096 136.13 35.7953C136.065 35.9699 135.968 36.0615 135.824 36.0675L135.834 36.3173L135.824 36.0675C124.407 36.5422 119.875 37.5847 119.285 37.7423C118.78 37.8772 118.47 38.3146 118.622 38.76C118.772 39.1972 119.293 39.4205 119.991 39.3267C126.677 38.4509 133.403 38.0065 140.135 37.9958C140.145 37.9958 140.158 37.9956 140.173 37.9954C140.443 37.9922 141.429 37.9804 142.169 38.8178L142.356 38.6521L142.169 38.8178C142.183 38.8337 142.198 38.8504 142.214 38.8679C142.307 38.9718 142.424 39.1031 142.529 39.2525C142.655 39.4315 142.737 39.6017 142.749 39.7429C142.754 39.8082 142.744 39.8638 142.718 39.9143C142.692 39.9655 142.643 40.0265 142.545 40.0896C142.343 40.2203 141.965 40.3421 141.3 40.397C141.095 40.4066 140.89 40.4162 140.685 40.4261ZM88.7059 48.6533L89.019 48.1347L88.4313 48.2815C81.9857 49.8919 76.1533 51.5883 71.0506 53.2181L70.8771 53.2736L70.8767 53.4558C70.8722 55.6213 71.2169 57.367 71.9565 58.5842C72.7066 59.8188 73.8536 60.4925 75.3833 60.5134C77.2913 60.5395 79.4556 59.4973 81.7118 57.5085C83.9734 55.515 86.3563 52.5454 88.7059 48.6533ZM72.2802 44.2117L72.1739 44.6276L72.5881 44.5149C78.393 42.9347 85.2977 41.2823 93.1299 39.806L93.2596 39.7815L93.3126 39.6607C94.1814 37.6803 95.0278 35.566 95.8509 33.3178L95.851 33.3175C98.2424 26.7626 99.286 20.8841 99.0004 16.6568C98.8578 14.545 98.3817 12.8193 97.5513 11.6289C96.7114 10.4249 95.5146 9.77935 93.9884 9.83846C92.2138 9.90719 90.3924 10.8517 88.5995 12.3986C86.8035 13.9482 85.0119 16.1229 83.2936 18.7002C79.8566 23.8555 76.6901 30.656 74.3547 37.3887C73.5133 39.8148 72.8205 42.0968 72.2802 44.2117Z" fill="white" stroke="#333333" stroke-width="0.5"/>
</svg>
