<svg width="404" height="235" viewBox="0 0 404 235" fill="none" xmlns="http://www.w3.org/2000/svg">
<path d="M326.39 158.235C326.923 157.045 328.277 155.429 330.873 155.102C333.47 154.776 333.98 156.553 333.813 157.315C333.645 158.077 329.377 169.127 328.815 170.755C328.249 172.395 326.241 172.099 325.643 171.257C325.154 170.57 324.096 169.14 323.699 168.431C323.303 167.721 323.264 167.182 323.593 166.192C323.593 166.192 325.858 159.426 326.39 158.235Z" fill="white" fill-opacity="0.05"/>
<path d="M326.619 158.338L326.619 158.338C327.123 157.21 328.412 155.664 330.905 155.35C332.141 155.195 332.826 155.543 333.19 155.964C333.567 156.4 333.636 156.953 333.569 157.261C333.552 157.338 333.474 157.576 333.337 157.961C333.204 158.338 333.022 158.837 332.806 159.421C332.374 160.588 331.807 162.091 331.228 163.622C331 164.224 330.771 164.831 330.546 165.423C329.631 167.839 328.806 170.016 328.579 170.673L328.579 170.673C328.334 171.382 327.792 171.665 327.231 171.687C326.648 171.71 326.086 171.449 325.847 171.112L325.847 171.112C325.748 170.974 325.629 170.808 325.497 170.626C324.962 169.884 324.229 168.865 323.917 168.309C323.731 167.976 323.639 167.701 323.623 167.403C323.608 167.101 323.67 166.752 323.83 166.27L323.83 166.27L323.832 166.266L323.836 166.252L323.855 166.195L323.928 165.978C323.991 165.791 324.082 165.522 324.192 165.196C324.413 164.543 324.712 163.661 325.028 162.741C325.663 160.894 326.358 158.92 326.619 158.338Z" stroke="#333333" stroke-opacity="0.05" stroke-width="0.5"/>
<path fill-rule="evenodd" clip-rule="evenodd" d="M401.394 178.986C389.423 179.596 377.503 181.122 365.719 183.552C359.091 196.615 348.806 205.075 341.82 204.776C335.45 204.503 333.168 199.182 332.96 192.631C324.903 195.489 320.078 197.725 319.501 198.002C318.046 198.7 317.334 198.229 316.739 197.492C316.631 197.358 314.615 194.383 314.537 194.251C314.261 193.785 313.956 193.295 314.35 192.083C314.994 190.106 317.787 182.361 317.787 182.361C315.117 182.634 312.486 183.061 309.916 183.605C306.08 194.457 300.725 209.62 300.385 210.594C299.776 212.338 297.765 212.412 296.929 211.081C296.657 210.648 294.62 207.645 294.337 207.194C293.966 206.604 293.854 206.057 294.096 205.096C294.328 204.176 297.646 194.787 300.698 186.107C297.222 187.255 293.944 188.565 290.941 189.934C288.788 196.041 286.19 203.036 285.865 203.888C285.297 205.379 283.544 205.714 282.55 204.318C282.39 204.094 281.084 202.196 280.95 201.996C280.323 201.065 280.246 200.552 280.536 199.69C280.682 199.252 281.458 197.089 282.441 194.33C282.173 194.488 281.908 194.644 281.649 194.8C279.801 195.643 277.81 192.753 277.294 192.018C277.069 191.671 276.968 191.243 277.009 190.818C277.05 190.392 277.231 189.999 277.517 189.713C277.781 189.445 280.832 187.005 286.026 184.167C286.371 183.166 286.677 182.264 286.921 181.527C289.902 172.511 293.797 161.92 294.352 160.549C294.908 159.179 295.967 157.695 298.737 157.343C301.506 156.99 301.619 158.74 301.385 159.626C301.183 160.392 296.61 173.095 294.181 180.297C297.348 179.006 300.581 177.929 303.863 177.069C304.204 176.089 304.513 175.196 304.78 174.415C308.483 163.606 312.919 151.084 313.532 149.792C314.144 148.499 315.521 147.125 318.452 146.755C321.383 146.386 322.073 147.996 321.922 148.814C321.771 149.632 317.358 162.642 313.725 172.837C313.604 173.18 313.296 174.048 312.852 175.302C314.942 175.027 317.098 174.836 319.317 174.75C319.712 174.719 320.109 174.766 320.489 174.89C321.507 175.303 324.069 176.366 325.113 176.778C325.945 177.107 326.464 178.149 326.081 179.287C325.699 180.425 322.959 188.133 322.959 188.133C322.959 188.133 326.749 186.522 333.583 184.378C334.357 179.657 335.719 175.077 337.032 171.848C347.71 145.579 358.644 143.037 362.602 143C371.757 142.915 375.346 158.168 368.79 176.405C378.241 175.001 387.752 174.148 397.282 173.851C397.622 173.929 397.649 174.126 397.683 174.247C397.73 174.415 397.669 175.106 397.161 175.127C387.07 175.546 383.078 176.468 382.579 176.601C381.854 176.795 381.965 177.725 383.117 177.57C389.041 176.794 395 176.4 400.965 176.39C401.133 176.391 402.166 176.328 402.931 177.192C403.258 177.562 404.423 178.759 402.01 178.957C401.827 178.965 401.644 178.974 401.46 178.983C401.437 178.983 401.417 178.984 401.394 178.984L401.394 178.986ZM355.281 185.925C349.584 187.348 344.43 188.848 339.92 190.288C339.912 194.085 341.133 196.275 343.688 196.31C346.904 196.354 351.139 192.787 355.281 185.925ZM360.152 151.924C354.159 152.156 347.108 164.26 342.984 176.147C342.242 178.288 341.631 180.301 341.154 182.165C346.295 180.766 352.408 179.303 359.343 177.996C360.11 176.248 360.857 174.382 361.584 172.397C365.803 160.831 365.236 151.727 360.152 151.924Z" fill="white" fill-opacity="0.05"/>
<path d="M401.452 178.733C401.436 178.733 401.427 178.733 401.42 178.734C401.412 178.734 401.405 178.734 401.391 178.734L401.033 178.739L401.039 178.754C389.17 179.376 377.352 180.897 365.669 183.307L365.551 183.332L365.496 183.439C362.195 189.945 357.986 195.299 353.74 198.986C349.485 202.681 345.228 204.672 341.831 204.526C338.727 204.393 336.639 203.037 335.29 200.923C333.932 198.795 333.313 195.879 333.21 192.624L333.199 192.281L332.876 192.396C324.811 195.256 319.978 197.495 319.393 197.776C318.698 198.11 318.221 198.145 317.865 198.044C317.506 197.943 317.22 197.69 316.934 197.335L401.452 178.733ZM401.452 178.733C401.633 178.724 401.813 178.715 401.994 178.707C402.581 178.659 402.91 178.551 403.082 178.44C403.165 178.386 403.205 178.336 403.225 178.296C403.245 178.257 403.253 178.213 403.249 178.16C403.239 178.042 403.17 177.897 403.06 177.74C402.968 177.609 402.865 177.495 402.783 177.403C402.769 177.387 402.756 177.372 402.743 177.358L402.743 177.358C402.097 176.627 401.238 176.637 400.999 176.64L401.452 178.733ZM317.787 182.361L318.022 182.446L318.022 182.447L318.022 182.448L318.02 182.452L318.014 182.468L317.991 182.534L317.901 182.783C317.824 182.998 317.712 183.308 317.576 183.687C317.304 184.444 316.935 185.473 316.546 186.565C315.766 188.75 314.909 191.176 314.588 192.161C314.4 192.739 314.386 193.121 314.438 193.401C314.49 193.68 314.609 193.882 314.746 194.114L314.752 194.124L314.752 194.124C314.752 194.125 314.755 194.128 314.76 194.136L314.782 194.17C314.79 194.183 314.8 194.198 314.811 194.214C314.824 194.235 314.84 194.258 314.857 194.284C314.92 194.378 315.005 194.505 315.106 194.655C315.307 194.954 315.57 195.342 315.834 195.73C316.097 196.119 316.362 196.507 316.567 196.806C316.669 196.956 316.757 197.083 316.822 197.177C316.839 197.201 316.854 197.222 316.867 197.241C316.88 197.26 316.891 197.276 316.901 197.29L316.925 197.324L317.787 182.361ZM317.787 182.361L318.022 182.446L318.157 182.072L317.762 182.113C315.082 182.387 312.442 182.814 309.864 183.36L309.727 183.389L309.68 183.521C305.845 194.373 300.489 209.537 300.149 210.511C299.875 211.295 299.299 211.682 298.716 211.742C298.127 211.802 297.507 211.532 297.141 210.948C297.004 210.731 296.437 209.887 295.868 209.04L295.845 209.005C295.264 208.141 294.688 207.283 294.549 207.061L294.337 207.194L294.549 207.061C294.377 206.787 294.273 206.537 294.234 206.251C294.196 205.962 294.222 205.619 294.339 205.157C294.451 204.711 295.332 202.151 296.576 198.594C297.5 195.949 298.621 192.764 299.764 189.516C300.154 188.408 300.546 187.294 300.934 186.19L301.103 185.711L300.62 185.87C297.135 187.021 293.848 188.334 290.837 189.706L290.741 189.75L290.705 189.85C288.553 195.956 285.956 202.949 285.632 203.799C285.377 204.469 284.866 204.858 284.33 204.939C283.799 205.019 283.201 204.802 282.753 204.173C282.595 203.952 281.291 202.055 281.157 201.856C280.851 201.401 280.698 201.075 280.646 200.774C280.594 200.479 280.635 200.18 280.773 199.77L280.578 199.705L280.773 199.77C280.883 199.439 281.357 198.113 282.01 196.284C282.216 195.706 282.44 195.077 282.677 194.414L282.908 193.767L282.315 194.114C282.05 194.27 281.789 194.425 281.533 194.579C280.762 194.921 279.92 194.513 279.139 193.814C278.392 193.147 277.794 192.295 277.522 191.908L277.501 191.879C277.31 191.581 277.222 191.212 277.258 190.842C277.294 190.47 277.451 190.132 277.694 189.889L277.695 189.888C277.808 189.774 278.619 189.109 280.065 188.109C281.503 187.116 283.557 185.801 286.145 184.386L286.23 184.34L286.262 184.249C286.607 183.247 286.914 182.344 287.159 181.605C290.139 172.592 294.032 162.007 294.584 160.643C294.853 159.98 295.237 159.305 295.878 158.754C296.516 158.203 297.425 157.761 298.768 157.591L298.741 157.377L298.768 157.591C300.106 157.42 300.711 157.766 300.981 158.161C301.267 158.579 301.251 159.151 301.143 159.563C301.096 159.741 300.778 160.664 300.28 162.083C299.911 163.134 299.447 164.448 298.93 165.912C298.753 166.413 298.57 166.932 298.382 167.465C296.91 171.636 295.159 176.614 293.944 180.217L293.77 180.734L294.276 180.528C297.432 179.242 300.655 178.168 303.927 177.311L304.056 177.277L304.1 177.151C304.44 176.171 304.749 175.277 305.017 174.496C306.868 169.092 308.902 163.261 310.55 158.618C312.202 153.966 313.458 150.53 313.757 149.899L313.532 149.792L313.757 149.899C314.331 148.689 315.631 147.363 318.483 147.003C319.904 146.824 320.728 147.131 321.177 147.527C321.631 147.927 321.736 148.445 321.676 148.769C321.661 148.852 321.581 149.127 321.437 149.588C321.295 150.04 321.097 150.654 320.851 151.401C320.36 152.894 319.68 154.914 318.892 157.228C317.317 161.857 315.306 167.657 313.49 172.753L313.703 172.829L313.49 172.753C313.368 173.096 313.06 173.965 312.616 175.219L312.48 175.603L312.885 175.55C314.967 175.276 317.116 175.085 319.326 175L319.326 175L319.336 174.999C319.696 174.971 320.057 175.013 320.403 175.125C320.778 175.277 321.359 175.516 321.997 175.779C323.096 176.23 324.362 176.751 325.021 177.011C325.713 177.285 326.19 178.178 325.844 179.207C325.654 179.773 324.874 181.982 324.141 184.053C323.775 185.087 323.42 186.086 323.157 186.827L322.842 187.715L322.754 187.962L322.731 188.027L322.725 188.043L322.724 188.047L322.724 188.048L322.723 188.049L322.959 188.133L322.723 188.049L322.533 188.585L323.057 188.363L323.057 188.363L323.057 188.362L323.059 188.362L323.067 188.358L323.1 188.345C323.129 188.332 323.172 188.314 323.23 188.29C323.347 188.242 323.52 188.171 323.751 188.08C324.211 187.896 324.896 187.628 325.795 187.294C327.593 186.624 330.245 185.687 333.658 184.617L333.805 184.571L333.83 184.419C334.601 179.716 335.958 175.154 337.263 171.942C342.593 158.83 347.977 151.666 352.5 147.777C357.017 143.892 360.683 143.268 362.604 143.25C367 143.21 370.129 146.843 371.343 152.881C372.553 158.907 371.822 167.232 368.555 176.32L368.414 176.714L368.827 176.652C378.257 175.251 387.746 174.4 397.256 174.102C397.355 174.13 397.385 174.165 397.395 174.179C397.412 174.203 397.417 174.223 397.432 174.277C397.435 174.288 397.439 174.301 397.443 174.315L397.683 174.247M317.787 182.361L323.27 188.004C324.304 187.582 327.886 186.166 333.583 184.378C334.357 179.657 335.719 175.077 337.032 171.848C347.71 145.579 358.644 143.037 362.602 143C371.713 142.916 375.311 158.02 368.886 176.138C368.841 176.145 368.797 176.151 368.753 176.158L368.79 176.405L369.025 176.489C369.041 176.447 369.056 176.405 369.071 176.363C378.429 174.984 387.846 174.145 397.282 173.851C397.598 173.923 397.644 174.098 397.676 174.22C397.679 174.23 397.681 174.239 397.683 174.247M397.683 174.247C397.73 174.415 397.669 175.106 397.161 175.127C387.07 175.546 383.078 176.468 382.579 176.601M397.683 174.247L397.442 174.314C397.442 174.311 397.444 174.32 397.445 174.345C397.447 174.368 397.446 174.398 397.444 174.432C397.438 174.503 397.423 174.582 397.396 174.655C397.34 174.804 397.262 174.872 397.151 174.877C387.05 175.297 383.039 176.219 382.514 176.36M382.579 176.601L382.514 176.36M382.579 176.601C381.854 176.795 381.965 177.725 383.117 177.57L382.579 176.601ZM382.514 176.36C382.056 176.482 381.766 176.883 381.908 177.297C382.047 177.703 382.527 177.901 383.15 177.818M382.514 176.36L383.15 177.818M300.398 186.207C297.034 187.331 293.858 188.605 290.941 189.934C288.788 196.041 286.19 203.036 285.865 203.888C285.297 205.379 283.544 205.714 282.55 204.318C282.39 204.094 281.084 202.196 280.95 201.996C280.323 201.065 280.246 200.552 280.536 199.69C280.647 199.357 281.122 198.027 281.776 196.196C281.943 195.726 282.123 195.224 282.311 194.697C282.396 194.647 282.482 194.596 282.568 194.546L282.441 194.33L282.206 194.246C282.172 194.341 282.139 194.435 282.105 194.528C281.952 194.619 281.8 194.71 281.649 194.8C279.829 195.63 277.872 192.842 277.319 192.054L300.398 186.207ZM300.398 186.207C300.419 186.146 300.441 186.085 300.462 186.025L300.698 186.107L300.776 186.345C300.715 186.365 300.654 186.385 300.593 186.406L300.398 186.207ZM313.13 175.266C315.133 175.01 317.197 174.832 319.317 174.75C319.712 174.719 320.109 174.766 320.489 174.89C320.865 175.043 321.453 175.284 322.097 175.549C323.194 176 324.455 176.518 325.113 176.778C325.945 177.107 326.464 178.149 326.081 179.287L313.13 175.266ZM313.13 175.266C313.116 175.306 313.102 175.345 313.088 175.386L312.852 175.302L312.819 175.054C312.861 175.049 312.903 175.043 312.945 175.038L313.13 175.266ZM383.15 177.818C389.063 177.043 395.011 176.65 400.965 176.64L383.15 177.818ZM277.517 189.713C277.781 189.445 280.832 187.005 286.026 184.167C286.371 183.166 286.677 182.264 286.921 181.527C289.902 172.511 293.797 161.92 294.352 160.549C294.908 159.179 295.967 157.695 298.737 157.343C301.506 156.99 301.619 158.74 301.385 159.626C301.297 159.96 300.377 162.566 299.166 165.996C297.641 170.315 295.654 175.942 294.287 179.984C294.22 180.011 294.154 180.038 294.087 180.065L294.181 180.297L294.418 180.376C294.441 180.309 294.464 180.241 294.487 180.173C297.556 178.937 300.687 177.901 303.863 177.069L277.517 189.713ZM355.495 186.054L355.808 185.536L355.221 185.683C349.518 187.107 344.358 188.608 339.844 190.05L339.67 190.106L339.67 190.288C339.666 192.206 339.971 193.756 340.629 194.839C341.298 195.94 342.322 196.541 343.685 196.56C345.383 196.583 347.304 195.656 349.303 193.895C351.306 192.129 353.416 189.499 355.495 186.054ZM340.912 182.103L340.806 182.519L341.22 182.406C346.355 181.009 352.462 179.547 359.39 178.241L359.519 178.217L359.572 178.096C360.341 176.344 361.09 174.473 361.818 172.483L361.818 172.483C363.935 166.682 364.859 161.478 364.606 157.733C364.48 155.862 364.058 154.33 363.319 153.271C362.571 152.198 361.503 151.622 360.143 151.674C358.563 151.736 356.946 152.576 355.358 153.946C353.766 155.319 352.18 157.245 350.659 159.526C347.617 164.09 344.815 170.108 342.748 176.065L342.984 176.147L342.748 176.065C342.004 178.212 341.39 180.231 340.912 182.103Z" stroke="#333333" stroke-opacity="0.05" stroke-width="0.5"/>
<path d="M85.4974 21.4383C86.2464 19.7633 88.1524 17.489 91.8055 17.0294C95.4587 16.5698 96.177 19.071 95.9416 20.1429C95.7061 21.215 89.7007 36.7644 88.9098 39.0544C88.1127 41.3627 85.2875 40.9453 84.4459 39.7614C83.7582 38.7944 82.2687 36.7824 81.7106 35.7842C81.1526 34.7859 81.0978 34.0268 81.5611 32.6335C81.5611 32.6335 84.7483 23.1134 85.4974 21.4383Z" fill="white" fill-opacity="0.05"/>
<path d="M85.7256 21.5404L85.7256 21.5404C86.4463 19.9286 88.2868 17.7241 91.8367 17.2774C93.6015 17.0554 94.6032 17.5513 95.1427 18.1753C95.6952 18.8144 95.7992 19.6262 95.6974 20.0893C95.6722 20.2044 95.5594 20.5468 95.3686 21.0861C95.1809 21.6166 94.9244 22.3196 94.6203 23.1414C94.0122 24.7847 93.215 26.8997 92.4002 29.0535C92.0793 29.9015 91.7557 30.7559 91.4397 31.5899C90.1521 34.9884 88.9923 38.0497 88.6735 38.9728L88.8863 39.0463L88.6735 38.9728C88.3136 40.0152 87.509 40.435 86.6846 40.4677C85.8374 40.5014 85.0107 40.1245 84.6496 39.6166L84.6496 39.6166C84.5125 39.4238 84.3453 39.1918 84.161 38.9361C83.4084 37.892 82.37 36.4513 81.9288 35.6622C81.6622 35.1851 81.5255 34.7832 81.5025 34.3439C81.4793 33.8998 81.5711 33.3957 81.7983 32.7124L81.7987 32.7112L81.8005 32.706L81.8073 32.6856L81.8341 32.6057L81.9365 32.3009C82.0251 32.0374 82.1524 31.6591 82.3076 31.1999C82.6181 30.2815 83.0397 29.0396 83.4847 27.7454C84.3774 25.1494 85.3569 22.3649 85.7256 21.5404Z" stroke="#333333" stroke-opacity="0.05" stroke-width="0.5"/>
<path fill-rule="evenodd" clip-rule="evenodd" d="M191.037 50.6364C174.192 51.4947 157.419 53.6415 140.838 57.0616C131.512 75.4429 117.039 87.3467 107.209 86.9255C98.2456 86.5415 95.0351 79.0549 94.7418 69.8372C83.405 73.8577 76.6162 77.0037 75.8037 77.3936C73.7561 78.3763 72.7545 77.7134 71.9176 76.6762C71.7657 76.4879 68.9282 72.3021 68.8182 72.116C68.4306 71.4601 68.0011 70.7714 68.5562 69.0661C69.4622 66.2835 73.3923 55.386 73.3923 55.386C69.6355 55.7702 65.9326 56.3701 62.3168 57.1352C56.9194 72.4056 49.3833 93.742 48.905 95.1121C48.048 97.566 45.2181 97.67 44.0424 95.7984C43.6596 95.1891 40.794 90.9633 40.3954 90.3289C39.873 89.4977 39.7155 88.7285 40.0566 87.3759C40.383 86.0818 45.0508 72.8701 49.3457 60.6572C44.4552 62.2723 39.8427 64.1156 35.6167 66.0409C32.5873 74.6351 28.9319 84.4773 28.4748 85.6767C27.6751 87.7751 25.2084 88.2454 23.809 86.282C23.5844 85.9668 21.7472 83.2952 21.5578 83.0139C20.6759 81.7036 20.5682 80.9822 20.9749 79.7696C21.1817 79.1529 22.2724 76.1091 23.6568 72.2272C23.2785 72.4489 22.9068 72.6696 22.5416 72.8891C19.941 74.0745 17.1404 70.0084 16.4135 68.9742C16.0975 68.4856 15.9547 67.8839 16.0126 67.285C16.0706 66.6861 16.3252 66.1323 16.7275 65.73C17.0996 65.3537 21.3924 61.92 28.6999 57.9267C29.1861 56.5177 29.6173 55.2496 29.9604 54.2115C34.1547 41.5252 39.6353 26.6226 40.417 24.6941C41.1987 22.7655 42.6891 20.6775 46.5863 20.1816C50.4833 19.6856 50.6411 22.1476 50.3122 23.3953C50.0285 24.4719 43.5929 42.3468 40.1759 52.4806C44.6319 50.6652 49.1814 49.1486 53.7999 47.9389C54.2787 46.5606 54.7134 45.3028 55.0898 44.2042C60.3007 28.9955 66.5417 11.3756 67.4041 9.557C68.2664 7.73838 70.2033 5.80368 74.3276 5.28383C78.4521 4.76398 79.4222 7.03015 79.2102 8.18103C78.9981 9.33189 72.7877 27.6381 67.6768 41.9846C67.5053 42.466 67.0723 43.6885 66.4477 45.4531C69.3881 45.0655 72.423 44.7965 75.5446 44.6758C76.1005 44.6321 76.6589 44.6989 77.1938 44.8734C78.6269 45.4544 82.2321 46.9498 83.7005 47.5301C84.8713 47.9929 85.601 49.458 85.0629 51.0593C84.5248 52.6606 80.6696 63.5067 80.6696 63.5067C80.6696 63.5067 86.0025 61.2405 95.619 58.2242C96.708 51.5809 98.6244 45.1362 100.471 40.5926C115.497 3.62911 130.882 0.0521301 136.452 0.000496421C149.334 -0.118979 154.384 21.3436 145.159 47.0045C158.458 45.0286 171.841 43.8293 185.251 43.4114C185.729 43.5207 185.767 43.7974 185.815 43.9688C185.88 44.2044 185.795 45.1765 185.08 45.2061C170.881 45.7966 165.264 47.0927 164.561 47.2806C163.541 47.5529 163.698 48.8616 165.319 48.6437C173.654 47.5517 182.04 46.9976 190.434 46.9842C190.669 46.9847 192.123 46.8958 193.199 48.1124C193.66 48.6332 195.298 50.3166 191.904 50.595C191.646 50.6071 191.388 50.6192 191.13 50.6317C191.098 50.6323 191.069 50.6336 191.036 50.634L191.037 50.6364ZM126.151 60.4006C118.135 62.4034 110.881 64.5131 104.535 66.54C104.524 71.882 106.242 74.9641 109.838 75.0133C114.363 75.075 120.322 70.0554 126.151 60.4006ZM133.005 12.5574C124.571 12.8841 114.649 29.9156 108.847 46.6418C107.803 49.6547 106.943 52.4868 106.273 55.1098C113.506 53.1409 122.108 51.0822 131.866 49.2429C132.945 46.7842 133.996 44.1585 135.019 41.3655C140.956 25.091 140.158 12.2804 133.005 12.5574Z" fill="white" fill-opacity="0.05"/>
<path d="M191.121 50.3818C191.101 50.3822 191.089 50.3826 191.077 50.383C191.064 50.3834 191.053 50.3838 191.033 50.3841L190.675 50.3885L190.682 50.4044C173.939 51.2748 157.269 53.4173 140.788 56.8167L140.67 56.841L140.615 56.9484C135.965 66.1135 130.035 73.6581 124.049 78.8557C118.054 84.0611 112.04 86.8822 107.22 86.6757C102.819 86.4872 99.8504 84.5622 97.9349 81.5595C96.0098 78.5419 95.1376 74.4177 94.9917 69.8292L94.9808 69.4872L94.6582 69.6016C83.313 73.625 76.516 76.7745 75.6955 77.1682C74.7042 77.644 74.0068 77.7021 73.4746 77.5518C72.9384 77.4003 72.5194 77.0239 72.1122 76.5192L71.9176 76.6762L72.1121 76.5192C72.1122 76.5193 72.1111 76.5178 72.1082 76.514L72.0975 76.4995C72.0886 76.4874 72.077 76.4713 72.0628 76.4512C72.0343 76.4112 71.9966 76.3572 71.9506 76.2911C71.8587 76.1589 71.7353 75.9798 71.5909 75.7691C71.3021 75.3477 70.93 74.8013 70.559 74.2549C70.1881 73.7084 69.8185 73.1621 69.5349 72.7409C69.393 72.5303 69.2728 72.3511 69.1847 72.219C69.1406 72.1528 69.1048 72.0988 69.0784 72.0586L69.0466 72.0097L69.0371 71.9947L69.0343 71.9903L69.0334 71.9888L69.0227 71.9706C68.8309 71.6463 68.6554 71.3493 68.5795 70.9391C68.5027 70.5237 68.5253 69.9686 68.794 69.1435C69.2456 67.7563 70.4532 64.3402 71.5495 61.2665C72.0973 59.7307 72.6168 58.2817 72.9994 57.2167C73.1906 56.6842 73.3477 56.2477 73.4569 55.9443L73.5832 55.5938L73.6162 55.5021L73.6246 55.4787L73.6268 55.4728L73.6273 55.4713L73.6274 55.4709C73.6275 55.4708 73.6275 55.4708 73.3923 55.386L73.6275 55.4708L73.7624 55.0968L73.3669 55.1373C69.6004 55.5225 65.8887 56.1238 62.2651 56.8907L62.1278 56.9197L62.0811 57.0519C56.6839 72.3218 49.1475 93.659 48.6689 95.0297C48.2712 96.1687 47.429 96.7401 46.5677 96.8286C45.6997 96.9178 44.7908 96.5197 44.2541 95.6654C44.0625 95.3604 43.2651 94.1734 42.4634 92.9799L42.4323 92.9336C41.6163 91.7188 40.8037 90.5088 40.6071 90.1959L40.3954 90.3289L40.6071 90.1959C40.3593 89.8017 40.2061 89.4355 40.15 89.0149C40.0935 88.5913 40.1332 88.0946 40.299 87.437C40.4586 86.8043 41.7009 83.1947 43.4489 78.1936C44.75 74.4714 46.3269 69.9902 47.9353 65.4193C48.4836 63.8612 49.0356 62.2926 49.5815 60.7401L49.7503 60.2603L49.2673 60.4198C44.3676 62.0379 39.7467 63.8846 35.513 65.8134L35.4162 65.8575L35.3809 65.9578C32.3521 74.5501 28.6975 84.3903 28.2412 85.5877C27.8703 86.561 27.1234 87.1356 26.3295 87.2553C25.5401 87.3744 24.6631 87.0497 24.0126 86.1369C23.7898 85.8243 21.954 83.1547 21.7652 82.8743C21.3313 82.2295 21.1068 81.7564 21.0294 81.3122C20.953 80.8734 21.0154 80.4349 21.2119 79.8491L20.9749 79.7696L21.2119 79.8491C21.3683 79.3827 22.0348 77.5156 22.9538 74.9412C23.2441 74.1278 23.5596 73.2438 23.8923 72.3111L24.123 71.664L23.5303 72.0115C23.1556 72.2312 22.7873 72.4498 22.4254 72.6673C21.2786 73.1814 20.0458 72.5647 18.9415 71.5776C17.8821 70.6306 17.0345 69.4236 16.6516 68.8783C16.641 68.8632 16.6308 68.8486 16.6209 68.8345C16.3384 68.3956 16.2089 67.8523 16.2615 67.3091C16.3142 66.7643 16.5454 66.2656 16.9042 65.9068L16.9052 65.9058C17.0726 65.7365 18.2203 64.7962 20.255 63.3904C22.2817 61.9903 25.1743 60.1382 28.8198 58.1461L28.9047 58.0997L28.9363 58.0082C29.4225 56.5988 29.8541 55.3296 30.1978 54.2899C34.3912 41.6061 39.8699 26.7094 40.6486 24.788C41.0306 23.8456 41.5793 22.8803 42.4965 22.09C43.4119 21.3012 44.711 20.6722 46.6178 20.4296C48.5192 20.1876 49.417 20.6756 49.8276 21.2758C50.2541 21.899 50.2265 22.7398 50.0705 23.3316C50.0029 23.5881 49.5529 24.8924 48.8533 26.8863C48.3345 28.3652 47.6817 30.2139 46.9543 32.2742C46.7053 32.9795 46.4475 33.7097 46.1833 34.4583C44.1119 40.328 41.6482 47.3318 39.939 52.4007L39.7646 52.9181L40.2703 52.7121C44.7162 50.9008 49.2554 49.3877 53.8632 48.1807L53.9923 48.1469L54.036 48.0209C54.5149 46.6424 54.9497 45.3843 55.3263 44.2852C57.9315 36.6817 60.7942 28.4754 63.1133 21.943C65.4361 15.4 67.2059 10.5584 67.63 9.66412L67.4041 9.557L67.63 9.6641C68.4532 7.92788 70.3133 6.04179 74.3589 5.53187C76.3762 5.27761 77.569 5.7105 78.2297 6.29338C78.8948 6.88009 79.0546 7.64569 78.9643 8.13573C78.9412 8.26082 78.8271 8.65476 78.6247 9.30079C78.4252 9.93784 78.1457 10.8021 77.7999 11.8527C77.1083 13.9538 76.1527 16.7974 75.0439 20.0539C72.8262 26.5667 69.9963 34.7287 67.4413 41.9007C67.2697 42.3824 66.8365 43.6052 66.2121 45.3697L66.076 45.7542L66.4804 45.7009C69.4135 45.3143 72.4408 45.046 75.5543 44.9256L75.5543 44.9258L75.5642 44.925C76.0842 44.8841 76.6067 44.946 77.1081 45.1084C77.6358 45.3224 78.4569 45.6599 79.3571 46.0299C80.9029 46.6652 82.6819 47.3964 83.6086 47.7626C84.6396 48.1701 85.3274 49.4874 84.8259 50.9797C84.5577 51.7778 83.4603 54.8869 82.4288 57.8C81.9133 59.2558 81.4146 60.6615 81.0448 61.7033L80.6007 62.9538L80.4774 63.3007L80.4451 63.3918L80.4368 63.4151L80.4347 63.4209L80.4342 63.4224L80.4341 63.4228C80.434 63.4229 80.434 63.4229 80.6696 63.5067M191.121 50.3818L80.9808 63.3773C82.2483 62.8568 87.35 60.8178 95.619 58.2242C96.708 51.5809 98.6244 45.1362 100.471 40.5926C115.497 3.62911 130.882 0.0521301 136.452 0.000496421C149.29 -0.118565 154.349 21.195 145.255 46.7376C145.211 46.7441 145.167 46.7506 145.123 46.7572L145.159 47.0045L145.395 47.089C145.41 47.047 145.425 47.0049 145.44 46.9629C158.646 45.0118 171.935 43.8264 185.251 43.4114C185.695 43.5129 185.76 43.7584 185.805 43.9302C185.809 43.9435 185.812 43.9564 185.815 43.9688M191.121 50.3818C191.377 50.3695 191.632 50.3574 191.888 50.3455C192.72 50.2768 193.203 50.1241 193.467 49.9531C193.596 49.8698 193.666 49.7863 193.704 49.7113C193.742 49.6369 193.756 49.556 193.748 49.4652C193.732 49.2727 193.622 49.0498 193.464 48.8246C193.331 48.6354 193.182 48.4691 193.067 48.3399C193.047 48.3182 193.029 48.2976 193.012 48.2781L193.199 48.1124L193.012 48.2781C192.071 47.2141 190.819 47.2296 190.481 47.2338C190.463 47.2341 190.447 47.2343 190.434 47.2342M191.121 50.3818L190.434 47.2342M80.6696 63.5067L80.434 63.4229L80.2433 63.9594L80.7673 63.7367L80.6696 63.5067ZM80.6696 63.5067L80.7674 63.7367L80.7675 63.7367L80.7682 63.7364L80.7709 63.7352L80.7823 63.7304L80.8284 63.7111C80.8693 63.6939 80.9309 63.6683 81.0128 63.6345C81.1765 63.567 81.4216 63.4671 81.7458 63.3376C82.3942 63.0787 83.3595 62.7019 84.6253 62.2308C87.1568 61.2886 90.89 59.9695 95.6938 58.4627L95.8408 58.4166L95.8657 58.2646C96.9517 51.6397 98.8631 45.213 100.703 40.6867C108.206 22.2276 115.79 12.131 122.17 6.64416C128.546 1.16193 133.727 0.275762 136.454 0.250486C142.713 0.192437 147.14 5.36929 148.851 13.8841C150.559 22.3861 149.526 34.1195 144.924 46.9199L144.783 47.3132L145.196 47.2518C158.474 45.279 171.836 44.0809 185.225 43.6623C185.395 43.7063 185.461 43.7699 185.492 43.8132C185.527 43.8625 185.54 43.9096 185.561 43.9872C185.565 44.0024 185.57 44.0186 185.575 44.0363L185.815 43.9688M185.815 43.9688C185.88 44.2044 185.795 45.1765 185.08 45.2061C170.881 45.7966 165.264 47.0927 164.561 47.2806C163.541 47.5529 163.698 48.8616 165.319 48.6437L165.351 48.8916C165.351 48.8915 165.352 48.8915 165.352 48.8915M185.815 43.9688L185.574 44.0353C185.579 44.0535 185.588 44.125 185.579 44.2373C185.571 44.3434 185.548 44.4648 185.506 44.5777C185.421 44.8066 185.284 44.9475 185.07 44.9564C170.861 45.5472 165.224 46.8446 164.497 47.0391C163.892 47.2007 163.538 47.7158 163.713 48.2269C163.885 48.7297 164.494 49.0067 165.352 48.8915M165.352 48.8915C173.677 47.8009 182.051 47.2476 190.434 47.2342M165.352 48.8915L190.434 47.2342M23.3209 72.4248C23.0579 72.5801 22.7981 72.7349 22.5416 72.8891C19.9814 74.0561 17.2274 70.1335 16.4489 69.0246L23.3209 72.4248ZM23.3209 72.4248C23.3542 72.3314 23.3876 72.2376 23.4213 72.1432L23.6568 72.2272L23.7832 72.4428C23.6971 72.4933 23.6113 72.5437 23.5259 72.5941L23.3209 72.4248ZM66.7258 45.4168C69.5793 45.0487 72.5213 44.7927 75.5446 44.6758C76.1005 44.6321 76.6589 44.6989 77.1938 44.8734C77.7236 45.0882 78.5504 45.428 79.4562 45.8003C81.0006 46.4351 82.775 47.1643 83.7005 47.5301C84.8713 47.9929 85.601 49.458 85.0629 51.0593C84.5797 52.497 81.4225 61.3875 80.7826 63.1886L66.7258 45.4168ZM66.7258 45.4168C66.7118 45.4564 66.6976 45.4963 66.6834 45.5365L66.4477 45.4531L66.4151 45.2052C66.4571 45.1997 66.4992 45.1941 66.5413 45.1886L66.7258 45.4168ZM28.6999 57.9267C29.1861 56.5177 29.6173 55.2496 29.9604 54.2115C34.1547 41.5252 39.6353 26.6226 40.417 24.6941C41.1987 22.7655 42.6891 20.6775 46.5863 20.1816C50.4833 19.6856 50.6411 22.1476 50.3122 23.3953C50.1885 23.865 48.894 27.5314 47.1901 32.3573C45.028 38.4812 42.2066 46.4721 40.2815 52.1679C40.2149 52.1949 40.1482 52.2219 40.0816 52.2491L40.1759 52.4806L40.4128 52.5605C40.4356 52.4929 40.4586 52.4249 40.4816 52.3566C44.8399 50.596 49.287 49.121 53.7999 47.9389L28.6999 57.9267ZM126.365 60.5298L126.678 60.0112L126.09 60.158C118.068 62.1623 110.81 64.2735 104.459 66.3018L104.286 66.3573L104.285 66.5395C104.28 69.2302 104.708 71.39 105.62 72.8913C106.543 74.4099 107.951 75.2375 109.835 75.2632C112.187 75.2953 114.867 74.0094 117.671 71.5382C120.48 69.0621 123.442 65.3711 126.365 60.5298ZM106.03 55.0479L105.924 55.4638L106.338 55.351C113.565 53.3837 122.162 51.3265 131.913 49.4885L132.042 49.4641L132.095 49.3433C133.176 46.8794 134.229 44.2488 135.253 41.4515L135.254 41.4512C138.229 33.2962 139.525 25.988 139.17 20.7378C138.993 18.1145 138.402 15.979 137.377 14.5102C136.343 13.0276 134.873 12.2349 132.995 12.3076C130.806 12.3924 128.552 13.5583 126.325 15.4795C124.095 17.4035 121.868 20.1057 119.731 23.3111C115.456 29.7228 111.517 38.1827 108.611 46.5598L108.847 46.6418L108.611 46.5598C107.564 49.5784 106.703 52.4172 106.03 55.0479Z" stroke="#333333" stroke-opacity="0.05" stroke-width="0.5"/>
<path d="M211.756 120.999C212.303 119.749 213.695 118.052 216.363 117.709C219.031 117.366 219.556 119.232 219.384 120.032C219.212 120.832 214.826 132.437 214.248 134.146C213.666 135.869 211.603 135.557 210.988 134.674C210.486 133.952 209.398 132.45 208.99 131.705C208.583 130.96 208.543 130.394 208.881 129.354C208.881 129.354 211.209 122.249 211.756 120.999Z" fill="white" fill-opacity="0.05"/>
<path d="M211.985 121.099L211.985 121.099C212.505 119.911 213.832 118.286 216.395 117.957C217.665 117.793 218.371 118.158 218.748 118.603C219.138 119.064 219.21 119.651 219.139 119.98C219.122 120.061 219.041 120.312 218.901 120.717C218.764 121.112 218.577 121.636 218.355 122.25C217.911 123.476 217.329 125.054 216.734 126.661C216.5 127.294 216.263 127.931 216.033 128.553C215.092 131.09 214.245 133.376 214.011 134.066L214.224 134.138L214.011 134.066C213.758 134.817 213.196 135.114 212.62 135.137C212.021 135.162 211.442 134.888 211.193 134.531L211.193 134.531C211.092 134.386 210.97 134.212 210.835 134.02C210.285 133.241 209.53 132.171 209.21 131.585C209.018 131.235 208.922 130.944 208.906 130.627C208.889 130.306 208.954 129.938 209.119 129.431L209.119 129.431L209.12 129.427L209.125 129.411L209.145 129.352L209.22 129.124C209.284 128.928 209.378 128.645 209.491 128.303C209.718 127.617 210.025 126.691 210.35 125.725C211.003 123.786 211.717 121.711 211.985 121.099Z" stroke="#333333" stroke-opacity="0.05" stroke-width="0.5"/>
<path fill-rule="evenodd" clip-rule="evenodd" d="M288.836 142.79C276.534 143.431 264.284 145.033 252.174 147.585C245.363 161.303 234.792 170.187 227.613 169.873C221.067 169.586 218.722 163.999 218.508 157.12C210.228 160.12 205.27 162.468 204.677 162.759C203.181 163.492 202.45 162.998 201.839 162.223C201.728 162.083 199.655 158.959 199.575 158.82C199.292 158.331 198.978 157.817 199.384 156.544C200.045 154.467 202.916 146.335 202.916 146.335C200.172 146.621 197.468 147.069 194.827 147.64C190.885 159.036 185.381 174.96 185.032 175.982C184.406 177.814 182.339 177.891 181.48 176.494C181.201 176.04 179.108 172.886 178.817 172.413C178.435 171.792 178.32 171.218 178.569 170.209C178.808 169.243 182.217 159.383 185.354 150.269C181.782 151.474 178.413 152.85 175.327 154.286C173.114 160.7 170.445 168.045 170.111 168.941C169.527 170.507 167.725 170.858 166.703 169.392C166.539 169.157 165.197 167.163 165.059 166.953C164.415 165.975 164.336 165.437 164.633 164.532C164.784 164.072 165.581 161.8 166.592 158.903C166.316 159.069 166.044 159.233 165.778 159.397C163.878 160.282 161.833 157.247 161.302 156.476C161.071 156.111 160.967 155.662 161.009 155.215C161.052 154.768 161.237 154.355 161.531 154.054C161.803 153.774 164.938 151.211 170.275 148.231C170.63 147.179 170.945 146.233 171.196 145.458C174.259 135.99 178.262 124.868 178.833 123.429C179.404 121.99 180.492 120.432 183.338 120.062C186.184 119.691 186.3 121.529 186.059 122.46C185.852 123.263 181.152 136.603 178.657 144.166C181.911 142.811 185.234 141.68 188.607 140.777C188.956 139.748 189.274 138.81 189.549 137.99C193.354 126.639 197.912 113.49 198.542 112.132C199.172 110.775 200.587 109.331 203.599 108.943C206.611 108.555 207.32 110.247 207.165 111.106C207.01 111.964 202.474 125.626 198.742 136.333C198.616 136.692 198.3 137.605 197.844 138.922C199.991 138.632 202.208 138.432 204.488 138.342C204.894 138.309 205.301 138.359 205.692 138.489C206.739 138.923 209.372 140.039 210.444 140.472C211.299 140.817 211.832 141.911 211.439 143.106C211.046 144.301 208.231 152.395 208.231 152.395C208.231 152.395 212.125 150.704 219.149 148.453C219.944 143.495 221.344 138.685 222.693 135.294C233.666 107.708 244.903 105.039 248.97 105C258.379 104.911 262.067 120.929 255.33 140.079C265.042 138.605 274.816 137.71 284.61 137.398C284.959 137.48 284.987 137.686 285.023 137.814C285.07 137.99 285.008 138.715 284.486 138.737C274.116 139.178 270.013 140.145 269.5 140.286C268.755 140.489 268.869 141.465 270.053 141.303C276.141 140.488 282.265 140.074 288.395 140.064C288.568 140.065 289.629 139.998 290.415 140.906C290.752 141.295 291.948 142.551 289.469 142.759C289.281 142.768 289.092 142.777 288.904 142.786C288.88 142.787 288.859 142.788 288.835 142.788L288.836 142.79ZM241.447 150.077C235.593 151.572 230.295 153.146 225.661 154.659C225.653 158.646 226.907 160.946 229.533 160.982C232.838 161.029 237.19 157.282 241.447 150.077ZM246.453 114.372C240.293 114.615 233.047 127.326 228.81 139.809C228.047 142.057 227.419 144.171 226.929 146.129C232.212 144.659 238.495 143.123 245.621 141.75C246.409 139.915 247.177 137.956 247.924 135.871C252.26 123.725 251.678 114.165 246.453 114.372Z" fill="white" fill-opacity="0.05"/>
<path d="M288.895 142.537C288.861 142.537 288.86 142.538 288.832 142.538L288.477 142.543L288.483 142.558C276.282 143.211 264.133 144.809 252.123 147.34L252.004 147.365L251.95 147.474C248.557 154.308 244.23 159.931 239.866 163.804C235.492 167.685 231.117 169.776 227.624 169.623C224.434 169.483 222.286 168.059 220.898 165.836C219.501 163.597 218.864 160.532 218.758 157.112L218.747 156.767L218.423 156.885C210.135 159.888 205.168 162.24 204.567 162.534C203.852 162.885 203.361 162.922 202.996 162.816C202.625 162.709 202.33 162.442 202.035 162.069C202.035 162.069 202.035 162.069 202.035 162.068C202.034 162.068 202.032 162.064 202.026 162.056L202.001 162.021C201.981 161.991 201.953 161.951 201.92 161.902C201.853 161.804 201.763 161.67 201.657 161.513C201.446 161.198 201.175 160.791 200.904 160.383C200.633 159.975 200.363 159.568 200.156 159.253C200.052 159.096 199.964 158.962 199.9 158.864C199.885 158.84 199.871 158.819 199.858 158.8C199.845 158.779 199.833 158.76 199.823 158.745L199.8 158.709C199.794 158.7 199.792 158.696 199.792 158.695L199.791 158.695L199.785 158.684C199.644 158.441 199.521 158.227 199.467 157.931C199.413 157.633 199.428 157.229 199.622 156.62C199.951 155.586 200.833 153.037 201.634 150.743C202.034 149.597 202.413 148.515 202.693 147.721C202.832 147.323 202.947 146.998 203.027 146.771L203.119 146.51L203.143 146.441L203.149 146.424L203.151 146.419L203.151 146.418L203.151 146.418L202.916 146.335L203.151 146.418L203.283 146.045L202.89 146.086C200.136 146.374 197.423 146.823 194.774 147.396L194.637 147.425L194.591 147.558C190.649 158.954 185.145 174.878 184.795 175.901C184.512 176.731 183.917 177.137 183.317 177.2C182.712 177.264 182.073 176.981 181.693 176.363C181.553 176.135 180.972 175.251 180.388 174.362L180.362 174.323C179.765 173.416 179.173 172.514 179.03 172.282L178.817 172.413L179.03 172.282C178.852 171.993 178.744 171.728 178.705 171.424C178.665 171.118 178.692 170.755 178.812 170.269C178.928 169.8 179.834 167.11 181.111 163.375C182.061 160.598 183.213 157.253 184.388 153.842C184.788 152.679 185.191 151.509 185.59 150.35L185.755 149.869L185.274 150.032C181.693 151.24 178.315 152.619 175.221 154.06L175.125 154.105L175.09 154.205C172.879 160.617 170.21 167.96 169.877 168.853C169.612 169.562 169.084 169.971 168.533 170.056C167.987 170.14 167.371 169.913 166.908 169.249C166.746 169.017 165.406 167.025 165.268 166.816C164.953 166.337 164.794 165.993 164.74 165.673C164.686 165.359 164.729 165.042 164.871 164.61L164.677 164.547L164.871 164.61C164.985 164.263 165.471 162.87 166.142 160.949C166.354 160.342 166.585 159.682 166.828 158.986L167.055 158.334L166.464 158.689C166.191 158.852 165.923 159.015 165.659 159.176C164.866 159.537 164 159.108 163.195 158.373C162.427 157.671 161.812 156.776 161.532 156.369L161.511 156.338C161.313 156.023 161.221 155.631 161.258 155.238C161.295 154.844 161.459 154.486 161.71 154.229L161.711 154.228C161.828 154.107 162.662 153.408 164.148 152.359C165.626 151.315 167.737 149.934 170.397 148.449L170.481 148.402L170.512 148.311C170.867 147.259 171.183 146.311 171.434 145.535C174.496 136.07 178.497 124.954 179.065 123.521C179.342 122.823 179.738 122.113 180.397 121.532C181.055 120.953 181.99 120.489 183.371 120.309C184.744 120.131 185.368 120.493 185.649 120.912C185.946 121.356 185.929 121.963 185.817 122.398C185.769 122.586 185.441 123.556 184.93 125.046C184.551 126.15 184.074 127.529 183.543 129.067C183.361 129.593 183.173 130.138 182.98 130.697C181.467 135.077 179.668 140.305 178.419 144.088L178.248 144.607L178.753 144.397C181.997 143.047 185.309 141.918 188.671 141.018L188.8 140.984L188.843 140.857C189.193 139.828 189.511 138.889 189.786 138.069L189.549 137.99L189.786 138.069C191.688 132.395 193.779 126.271 195.473 121.396C197.17 116.51 198.461 112.901 198.769 112.238L198.551 112.136L198.769 112.238C199.361 110.962 200.7 109.569 203.631 109.191C205.09 109.003 205.939 109.325 206.402 109.743C206.871 110.165 206.981 110.715 206.919 111.061C206.903 111.15 206.821 111.44 206.672 111.924C206.527 112.399 206.323 113.043 206.07 113.827C205.565 115.395 204.867 117.517 204.058 119.947C202.438 124.808 200.371 130.899 198.505 136.251L198.742 136.333L198.505 136.251C198.38 136.61 198.064 137.523 197.608 138.84L197.475 139.224L197.877 139.169C200.017 138.881 202.226 138.681 204.498 138.591L204.498 138.592L204.508 138.591C204.877 138.561 205.248 138.606 205.605 138.723C205.99 138.883 206.588 139.134 207.243 139.41C208.373 139.884 209.673 140.43 210.351 140.704C211.065 140.992 211.56 141.937 211.202 143.027C211.006 143.623 210.205 145.942 209.451 148.117C209.075 149.203 208.711 150.252 208.441 151.03L208.116 151.963L208.026 152.222L208.003 152.29L207.997 152.307L207.995 152.311L207.995 152.313L207.994 152.313L208.231 152.395M288.895 142.537L270.086 141.551L270.053 141.303M288.895 142.537C289.081 142.527 289.267 142.518 289.453 142.51L288.895 142.537ZM208.231 152.395L207.994 152.313L207.807 152.852L208.33 152.624L208.231 152.395ZM208.231 152.395L208.33 152.624L208.33 152.624L208.331 152.624L208.333 152.623L208.341 152.62L208.374 152.605C208.404 152.593 208.449 152.574 208.509 152.548C208.628 152.498 208.807 152.424 209.043 152.327C209.516 152.134 210.221 151.853 211.145 151.502C212.993 150.799 215.718 149.815 219.225 148.691L219.371 148.644L219.396 148.492C220.188 143.552 221.583 138.76 222.925 135.387C228.403 121.616 233.936 114.091 238.586 110.005C243.23 105.924 246.999 105.269 248.973 105.25C251.245 105.229 253.172 106.176 254.693 107.915C256.218 109.66 257.337 112.207 257.96 115.373C259.205 121.705 258.452 130.451 255.094 139.997L254.956 140.389L255.367 140.327C265.058 138.855 274.811 137.962 284.583 137.649C284.686 137.678 284.718 137.715 284.73 137.733C284.749 137.76 284.756 137.784 284.771 137.841C284.774 137.852 284.777 137.865 284.781 137.879M284.781 137.879C284.781 137.879 284.784 137.89 284.785 137.916C284.786 137.941 284.786 137.973 284.783 138.01C284.777 138.085 284.761 138.17 284.733 138.248C284.674 138.409 284.59 138.483 284.475 138.488C274.095 138.929 269.973 139.897 269.434 140.044C269.434 140.044 269.434 140.044 269.434 140.044L269.5 140.286M284.781 137.879C284.781 137.879 284.781 137.879 284.781 137.879L285.022 137.814L284.781 137.88C284.781 137.88 284.781 137.879 284.781 137.879ZM269.5 140.286C268.755 140.489 268.869 141.465 270.053 141.303M269.5 140.286C270.013 140.145 274.116 139.178 284.486 138.737C285.008 138.715 285.07 137.99 285.023 137.814C285.02 137.805 285.017 137.795 285.015 137.785C284.982 137.657 284.934 137.474 284.61 137.398L269.5 140.286ZM270.053 141.303C276.141 140.488 282.265 140.074 288.395 140.064L288.396 140.314C282.277 140.324 276.164 140.737 270.087 141.55L270.053 141.303ZM241.662 150.204L241.969 149.686L241.385 149.835C235.525 151.331 230.222 152.907 225.583 154.421L225.411 154.477L225.411 154.658C225.407 156.671 225.72 158.295 226.394 159.43C227.079 160.582 228.129 161.213 229.53 161.232C231.275 161.257 233.248 160.283 235.3 158.435C237.359 156.581 239.526 153.821 241.662 150.204ZM226.687 146.068L226.583 146.484L226.996 146.369C232.273 144.902 238.549 143.367 245.669 141.995L245.799 141.97L245.851 141.849C246.641 140.009 247.411 138.044 248.159 135.955L248.159 135.955C250.334 129.865 251.283 124.402 251.023 120.473C250.893 118.51 250.46 116.904 249.703 115.795C248.936 114.672 247.841 114.066 246.443 114.122C244.821 114.186 243.159 115.068 241.528 116.506C239.893 117.947 238.264 119.969 236.701 122.364C233.576 127.155 230.697 133.473 228.573 139.728C227.808 141.983 227.178 144.103 226.687 146.068Z" stroke="#333333" stroke-opacity="0.05" stroke-width="0.5"/>
<path d="M40.9953 188.923C41.4372 187.913 42.5615 186.542 44.7164 186.265C46.8714 185.988 47.2951 187.496 47.1562 188.142C47.0173 188.788 43.4748 198.161 43.0083 199.541C42.5381 200.933 40.8715 200.681 40.375 199.968C39.9694 199.385 39.0907 198.172 38.7616 197.57C38.4324 196.968 38.4 196.511 38.6734 195.671C38.6734 195.671 40.5534 189.932 40.9953 188.923Z" fill="white" fill-opacity="0.05"/>
<path d="M41.2243 189.023L41.2244 189.023C41.6391 188.075 42.6988 186.776 44.7483 186.513C45.7619 186.383 46.3145 186.675 46.6057 187.019C46.9104 187.379 46.966 187.837 46.9118 188.089C46.8984 188.152 46.8345 188.351 46.721 188.679C46.6105 188.998 46.4594 189.421 46.2801 189.916C45.9215 190.907 45.4513 192.181 44.9707 193.479C44.7816 193.99 44.5909 194.505 44.4046 195.007C43.645 197.056 42.96 198.903 42.7714 199.461L42.7714 199.461C42.5736 200.047 42.1389 200.276 41.6914 200.294C41.22 200.313 40.7697 200.097 40.5802 199.825L40.5802 199.825C40.4982 199.707 40.3986 199.566 40.2891 199.41C39.8451 198.781 39.238 197.92 38.9809 197.45C38.8283 197.171 38.7538 196.943 38.7412 196.697C38.7284 196.446 38.7787 196.155 38.9111 195.748L38.9113 195.748L38.9123 195.745L38.9163 195.732L38.9321 195.684L38.9925 195.501C39.0447 195.342 39.1198 195.114 39.2114 194.837C39.3944 194.284 39.6431 193.535 39.9056 192.755C40.433 191.188 41.009 189.515 41.2243 189.023Z" stroke="#333333" stroke-opacity="0.05" stroke-width="0.5"/>
<path fill-rule="evenodd" clip-rule="evenodd" d="M103.252 206.523C93.3155 207.04 83.4214 208.334 73.6406 210.396C68.1392 221.476 59.6016 228.651 53.803 228.397C48.5157 228.166 46.6218 223.653 46.4488 218.097C39.7614 220.52 35.7567 222.416 35.2775 222.651C34.0696 223.244 33.4788 222.844 32.9851 222.219C32.8955 222.105 31.2217 219.582 31.1568 219.47C30.9281 219.075 30.6748 218.66 31.0023 217.632C31.5367 215.954 33.855 209.386 33.855 209.386C31.6389 209.617 29.4546 209.979 27.3217 210.44C24.1379 219.645 19.6924 232.506 19.4102 233.332C18.9047 234.811 17.2354 234.874 16.5418 233.745C16.316 233.378 14.6256 230.831 14.3906 230.449C14.0824 229.948 13.9895 229.484 14.1907 228.669C14.3832 227.889 17.1367 219.925 19.6702 212.563C16.7854 213.537 14.0645 214.648 11.5716 215.808C9.78463 220.989 7.62835 226.921 7.35871 227.644C6.887 228.909 5.43191 229.193 4.60646 228.009C4.47397 227.819 3.3902 226.209 3.27848 226.039C2.75827 225.249 2.69471 224.815 2.93462 224.084C3.05662 223.712 3.70002 221.877 4.51664 219.537C4.29348 219.671 4.07421 219.804 3.85883 219.936C2.32472 220.651 0.672729 218.2 0.243933 217.576C0.0574932 217.282 -0.0267351 216.919 0.00745194 216.558C0.041639 216.197 0.191826 215.863 0.42912 215.621C0.648637 215.394 3.18093 213.324 7.49153 210.917C7.77829 210.068 8.03265 209.303 8.23509 208.678C10.7092 201.031 13.9422 192.048 14.4033 190.885C14.8644 189.723 15.7436 188.464 18.0425 188.165C20.3413 187.866 20.4343 189.35 20.2404 190.102C20.073 190.751 16.2767 201.526 14.2611 207.634C16.8896 206.54 19.5733 205.626 22.2977 204.897C22.5801 204.066 22.8365 203.308 23.0586 202.645C26.1324 193.478 29.8139 182.857 30.3227 181.761C30.8313 180.665 31.9738 179.498 34.4067 179.185C36.8397 178.872 37.412 180.238 37.2869 180.931C37.1618 181.625 33.4984 192.66 30.4835 201.308C30.3824 201.598 30.1269 202.335 29.7585 203.398C31.493 203.165 33.2832 203.003 35.1246 202.93C35.4525 202.903 35.7819 202.944 36.0975 203.049C36.9428 203.399 39.0695 204.3 39.9357 204.65C40.6263 204.929 41.0568 205.812 40.7393 206.778C40.4219 207.743 38.1478 214.281 38.1478 214.281C38.1478 214.281 41.2936 212.915 46.9663 211.096C47.6086 207.092 48.7391 203.207 49.8287 200.468C58.6918 178.188 67.7675 176.031 71.0529 176C78.6523 175.928 81.6311 188.866 76.1895 204.333C84.0341 203.142 91.9285 202.419 99.8392 202.168C100.121 202.233 100.144 202.4 100.172 202.504C100.21 202.646 100.16 203.232 99.7384 203.249C91.3625 203.605 88.0493 204.387 87.6345 204.5C87.0329 204.664 87.1253 205.453 88.0813 205.322C92.9984 204.663 97.945 204.329 102.896 204.321C103.035 204.322 103.893 204.268 104.527 205.001C104.799 205.315 105.766 206.33 103.764 206.498C103.611 206.505 103.459 206.512 103.307 206.52C103.288 206.52 103.271 206.521 103.252 206.521L103.252 206.523ZM64.9766 212.408C60.2479 213.616 55.9692 214.887 52.2259 216.109C52.2193 219.329 53.2329 221.187 55.3539 221.217C58.023 221.254 61.5384 218.228 64.9766 212.408ZM69.0196 183.569C64.0447 183.766 58.192 194.033 54.7695 204.115C54.1532 205.931 53.646 207.638 53.2507 209.219C57.5174 208.032 62.592 206.791 68.3481 205.683C68.9844 204.201 69.6045 202.618 70.2077 200.934C73.7099 191.124 73.2395 183.402 69.0196 183.569Z" fill="white" fill-opacity="0.05"/>
<path d="M103.298 206.27C103.269 206.271 103.272 206.271 103.249 206.271L102.894 206.276L102.899 206.291C93.0639 206.821 83.271 208.11 73.5891 210.151L73.4706 210.176L73.4167 210.284C70.6786 215.799 67.1875 220.336 63.6673 223.46C60.1377 226.591 56.6161 228.27 53.8139 228.147C51.2536 228.035 49.533 226.894 48.4201 225.111C47.2977 223.313 46.7846 220.847 46.6987 218.089L46.688 217.744L46.3636 217.862C39.6677 220.288 35.6547 222.188 35.1674 222.427C34.5962 222.707 34.2128 222.732 33.9328 222.652C33.6481 222.569 33.4175 222.363 33.1813 222.064L33.0018 222.206L33.1813 222.064C33.1814 222.064 33.1742 222.054 33.1558 222.028C33.1393 222.004 33.1172 221.972 33.0902 221.932C33.0362 221.853 32.9635 221.745 32.8784 221.618C32.7081 221.364 32.4887 221.035 32.2699 220.706C32.0511 220.376 31.8332 220.047 31.666 219.793C31.5823 219.667 31.5115 219.559 31.4597 219.479C31.4337 219.439 31.4128 219.407 31.3974 219.383L31.3791 219.355C31.3756 219.349 31.3739 219.346 31.3733 219.345C31.373 219.345 31.373 219.345 31.3732 219.345L31.3695 219.339C31.2549 219.14 31.1587 218.974 31.117 218.744C31.0752 218.513 31.0854 218.194 31.2405 217.708C31.5064 216.873 32.2182 214.815 32.8651 212.962C33.1882 212.036 33.4946 211.163 33.7203 210.521C33.8331 210.2 33.9257 209.937 33.9902 209.754L34.0646 209.543L34.0841 209.488L34.0891 209.474L34.0903 209.47L34.0907 209.469L34.0907 209.469L33.855 209.386L34.0908 209.469L34.2224 209.096L33.829 209.137C31.6031 209.37 29.4098 209.733 27.2689 210.196L27.1314 210.225L27.0854 210.358C23.9017 219.563 19.4561 232.425 19.1737 233.251C18.9504 233.904 18.4847 234.219 18.0205 234.268C17.5498 234.317 17.0517 234.097 16.7548 233.615C16.641 233.429 16.1712 232.715 15.7 231.998L15.6786 231.965C15.1965 231.232 14.7185 230.505 14.6035 230.318L14.6035 230.318C14.4626 230.089 14.3784 229.881 14.3475 229.644C14.3162 229.404 14.3373 229.118 14.4334 228.728C14.5262 228.352 15.2567 226.183 16.2891 223.165C17.0566 220.921 17.9869 218.22 18.9358 215.464C19.2592 214.525 19.5846 213.58 19.9066 212.644L20.0721 212.164L19.5903 212.326C16.6961 213.303 13.9667 214.417 11.4661 215.582L11.3699 215.626L11.3353 215.727C9.54892 220.905 7.39334 226.836 7.12447 227.557L7.35871 227.644L7.12447 227.557C6.91635 228.115 6.50306 228.432 6.07716 228.498C5.65629 228.563 5.17621 228.389 4.81151 227.866C4.68079 227.679 3.59836 226.07 3.48725 225.902C3.23409 225.517 3.11025 225.246 3.06795 224.997C3.02651 224.754 3.05884 224.507 3.17215 224.162L2.97755 224.098L3.17216 224.162C3.2641 223.881 3.6567 222.758 4.19858 221.206C4.36995 220.716 4.55624 220.182 4.75268 219.62L4.98 218.968L4.38816 219.323C4.16867 219.454 3.95289 219.585 3.74082 219.715C3.13002 219.991 2.45289 219.665 1.80549 219.073C1.18929 218.511 0.694787 217.791 0.46894 217.462L0.452761 217.439C0.298871 217.194 0.227299 216.888 0.256338 216.582C0.285528 216.273 0.413393 215.994 0.607799 215.796L0.608769 215.795C0.70002 215.7 1.36948 215.139 2.57035 214.291C3.76314 213.449 5.46644 212.334 7.61342 211.135L7.69757 211.088L7.7284 210.997C8.01531 210.147 8.27005 209.382 8.47295 208.755C10.9463 201.11 14.1774 192.133 14.6356 190.977C14.8577 190.418 15.174 189.851 15.6989 189.389C16.2218 188.929 16.9681 188.557 18.0747 188.413C19.1747 188.27 19.6561 188.561 19.8685 188.879C20.0977 189.221 20.0872 189.695 19.9983 190.04C19.9597 190.19 19.6962 190.97 19.2825 192.175C18.9764 193.067 18.5914 194.181 18.1623 195.423C18.0154 195.848 17.8634 196.288 17.7075 196.739C16.4857 200.277 15.0321 204.5 14.0237 207.556L13.8523 208.075L14.3572 207.865C16.9756 206.775 19.6487 205.865 22.3623 205.138L22.4914 205.104L22.5344 204.977C22.8169 204.146 23.0734 203.388 23.2956 202.725C24.8323 198.142 26.5208 193.196 27.8887 189.258C29.2602 185.311 30.3019 182.399 30.5494 181.866L30.5494 181.866C31.0202 180.851 32.0868 179.736 34.4387 179.433C35.6087 179.282 36.2781 179.541 36.6387 179.866C37.0044 180.196 37.0884 180.623 37.0409 180.887C37.0285 180.955 36.9635 181.186 36.8433 181.578C36.7257 181.961 36.561 182.482 36.3571 183.115C35.9493 184.381 35.3857 186.095 34.7317 188.058C33.4236 191.983 31.7544 196.903 30.2475 201.225C30.1462 201.516 29.8906 202.253 29.5223 203.316L29.3893 203.7L29.7919 203.646C31.519 203.413 33.3014 203.252 35.1345 203.18L35.1345 203.18L35.1447 203.179C35.4359 203.156 35.7287 203.191 36.0102 203.283C36.3206 203.412 36.8026 203.614 37.3311 203.836C38.2436 204.22 39.295 204.661 39.8421 204.882C40.3918 205.104 40.7848 205.839 40.5019 206.699C40.3439 207.18 39.697 209.053 39.0883 210.809C38.7842 211.687 38.4901 212.534 38.2719 213.162L38.01 213.916L37.9373 214.125L37.9182 214.18L37.9133 214.194L37.9121 214.197L37.9118 214.198L37.9117 214.198L38.1478 214.281L37.9117 214.198L37.7243 214.737L38.2474 214.51L38.2474 214.51L38.2478 214.51L38.2493 214.509L38.2559 214.506L38.2828 214.495C38.3068 214.484 38.343 214.469 38.3911 214.449C38.4873 214.408 38.6315 214.348 38.8224 214.27C39.2042 214.115 39.7728 213.888 40.5186 213.604C42.0103 213.037 44.2107 212.242 47.0426 211.335L47.1888 211.288L47.2131 211.136C47.8526 207.15 48.9782 203.283 50.0609 200.561C54.4837 189.443 58.9495 183.372 62.6974 180.079C66.4399 176.79 69.4724 176.265 71.0553 176.25C72.875 176.233 74.4187 176.991 75.6385 178.386C76.8635 179.787 77.7645 181.836 78.2663 184.388C79.2699 189.491 78.6641 196.546 75.9537 204.25L75.8156 204.643L76.227 204.581C84.0499 203.393 91.9223 202.671 99.8109 202.419C99.8774 202.438 99.8932 202.461 99.8963 202.466L99.8966 202.466C99.9068 202.48 99.9097 202.491 99.9216 202.535C99.9242 202.545 99.9273 202.556 99.9309 202.57L100.172 202.504M103.298 206.27L38.4579 214.15C39.3793 213.767 42.3282 212.583 46.9663 211.096C47.6086 207.092 48.7391 203.207 49.8287 200.468C58.6918 178.188 67.7675 176.031 71.0529 176C78.6085 175.929 81.5967 188.717 76.2827 204.066C76.2391 204.073 76.1956 204.08 76.152 204.086L76.1895 204.333L76.4253 204.416C76.44 204.375 76.4547 204.333 76.4692 204.291C84.2217 203.125 92.0225 202.416 99.8392 202.168C100.101 202.229 100.139 202.377 100.166 202.48C100.168 202.488 100.17 202.496 100.172 202.504M103.298 206.27C103.448 206.263 103.597 206.255 103.747 206.248C104.231 206.207 104.494 206.117 104.628 206.029C104.691 205.987 104.72 205.949 104.733 205.922C104.746 205.895 104.752 205.865 104.749 205.824C104.742 205.734 104.689 205.617 104.598 205.486C104.524 205.377 104.44 205.281 104.372 205.203C104.36 205.19 104.349 205.177 104.338 205.165L104.338 205.165C103.815 204.561 103.121 204.569 102.924 204.571C102.913 204.571 102.904 204.571 102.896 204.571L102.896 204.321L102.897 204.571C97.9565 204.579 93.0209 204.912 88.1147 205.569C87.5858 205.642 87.1604 205.47 87.0367 205.101C86.9118 204.728 87.1682 204.368 87.5686 204.259M103.298 206.27L87.5686 204.259M100.172 202.504C100.21 202.646 100.16 203.232 99.7384 203.249C91.3625 203.605 88.0493 204.387 87.6345 204.5M100.172 202.504L99.9307 202.569C99.9304 202.568 99.9305 202.568 99.9307 202.57C99.9315 202.578 99.9344 202.608 99.9305 202.658C99.926 202.715 99.9139 202.779 99.8927 202.838C99.8485 202.959 99.7928 202.997 99.7278 203L99.7372 203.222L99.7278 203C91.3425 203.356 88.0087 204.139 87.5687 204.259L87.6345 204.5M87.6345 204.5C87.0329 204.664 87.1253 205.453 88.0813 205.322L87.5686 204.259M87.6345 204.5L87.5686 204.259M4.60646 228.009C4.47397 227.819 3.3902 226.209 3.27848 226.039C2.75827 225.249 2.69471 224.815 2.93462 224.084C3.02736 223.801 3.42145 222.673 3.96388 221.12C4.09698 220.739 4.239 220.333 4.38769 219.907C4.47291 219.855 4.55872 219.803 4.64511 219.752L4.51664 219.537L4.2806 219.455C4.2472 219.551 4.21409 219.645 4.18129 219.739C4.07285 219.805 3.96536 219.871 3.85883 219.936C2.34856 220.64 0.724055 218.275 0.264809 217.607L4.60646 228.009ZM0.42912 215.621C0.648637 215.394 3.18093 213.324 7.49153 210.917C7.77829 210.068 8.03265 209.303 8.23509 208.678C10.7092 201.031 13.9422 192.048 14.4033 190.885C14.8644 189.723 15.7436 188.464 18.0425 188.165C20.3413 187.866 20.4343 189.35 20.2404 190.102C20.1673 190.385 19.4037 192.595 18.3986 195.504C17.1386 199.151 15.4991 203.896 14.3648 207.321C14.2981 207.348 14.2316 207.376 14.165 207.404L14.2611 207.634L14.4985 207.713C14.5208 207.645 14.5433 207.577 14.566 207.508C17.0971 206.47 19.6786 205.598 22.2977 204.897C22.5801 204.066 22.8365 203.308 23.0586 202.645C26.1324 193.478 29.8139 182.857 30.3227 181.761C30.8313 180.665 31.9738 179.498 34.4067 179.185C36.8397 178.872 37.412 180.238 37.2869 180.931C37.1618 181.625 33.4984 192.66 30.4835 201.308C30.391 201.573 30.1693 202.212 29.8501 203.134C29.8084 203.139 29.7668 203.145 29.7251 203.15L29.7585 203.398L29.9947 203.48C30.0086 203.44 30.0223 203.401 30.0358 203.362C31.6836 203.148 33.3812 202.999 35.1246 202.93C35.4525 202.903 35.7819 202.944 36.0975 203.049C36.41 203.178 36.8977 203.383 37.4322 203.608C38.3431 203.99 39.3897 204.43 39.9357 204.65C40.6263 204.929 41.0568 205.812 40.7393 206.778C40.4641 207.614 38.7181 212.64 38.2585 213.962L0.42912 215.621ZM46.4583 218.359C46.4835 218.35 46.5087 218.341 46.534 218.332L46.4488 218.097L46.1989 218.104C46.1998 218.132 46.2007 218.159 46.2016 218.186C39.6627 220.567 35.7508 222.419 35.2775 222.651C34.0696 223.244 33.4788 222.844 32.9851 222.219C32.8955 222.105 31.2217 219.582 31.1568 219.47L31.1472 219.454C30.9212 219.063 30.6794 218.645 31.0023 217.632C31.4729 216.155 33.3272 210.884 33.763 209.647C33.8023 209.643 33.8416 209.638 33.881 209.634L46.4583 218.359ZM27.3217 210.44C24.1379 219.645 19.6924 232.506 19.4102 233.332C18.9047 234.811 17.2354 234.874 16.5418 233.745C16.4301 233.564 15.9593 232.848 15.4839 232.124C14.999 231.387 14.5093 230.642 14.3906 230.449L27.3217 210.44ZM65.1918 212.535L65.498 212.017L64.9147 212.166C60.1803 213.375 55.8963 214.648 52.1483 215.871L51.9763 215.928L51.9759 216.109C51.9726 217.738 52.226 219.06 52.7772 219.987C53.3388 220.932 54.202 221.451 55.3504 221.467C56.7773 221.486 58.3828 220.691 60.0441 219.195C61.7111 217.693 63.4646 215.459 65.1918 212.535ZM53.0082 209.159L52.904 209.575L53.3177 209.46C57.5784 208.275 62.6465 207.035 68.3954 205.928L68.5256 205.903L68.5778 205.781C69.2164 204.294 69.8382 202.707 70.443 201.019L70.4431 201.018C72.2005 196.096 72.9693 191.677 72.7589 188.494C72.6538 186.905 72.303 185.598 71.6845 184.692C71.0566 183.772 70.1566 183.274 69.0097 183.32C67.6835 183.372 66.3315 184.092 65.0102 185.257C63.6854 186.425 62.3664 188.062 61.103 189.998C58.5757 193.872 56.2487 198.98 54.5328 204.034C53.9146 205.856 53.4054 207.57 53.0082 209.159Z" stroke="#333333" stroke-opacity="0.05" stroke-width="0.5"/>
<path d="M288.772 63.2857C289.371 62.3602 290.701 61.1879 292.872 61.2609C295.044 61.3339 295.219 62.8901 294.979 63.5055C294.738 64.121 289.734 72.8024 289.052 74.0898C288.364 75.3876 286.76 74.8713 286.384 74.0871C286.078 73.4466 285.405 72.1083 285.177 71.4615C284.949 70.8146 284.991 70.3579 285.396 69.5729C285.396 69.5729 288.174 64.2112 288.772 63.2857Z" fill="white" fill-opacity="0.05"/>
<path d="M288.982 63.4214L288.982 63.4214C289.544 62.5527 290.799 61.4413 292.864 61.5107C293.885 61.5451 294.384 61.922 294.616 62.3085C294.859 62.713 294.84 63.1742 294.746 63.4144C294.723 63.4736 294.627 63.6603 294.463 63.9655C294.302 64.2628 294.085 64.6562 293.828 65.1161C293.315 66.0358 292.646 67.2182 291.963 68.4223C291.695 68.8959 291.424 69.373 291.159 69.8389C290.08 71.739 289.107 73.4524 288.831 73.9728L288.831 73.9728C288.542 74.5188 288.076 74.675 287.631 74.621C287.163 74.5641 286.753 74.2783 286.61 73.9792L286.61 73.9792C286.548 73.8497 286.472 73.6943 286.389 73.5234C286.052 72.8307 285.591 71.8836 285.413 71.3783C285.307 71.0785 285.27 70.8416 285.298 70.5965C285.325 70.3468 285.422 70.0676 285.618 69.6874L285.618 69.6869L285.62 69.684L285.625 69.6725L285.649 69.6276L285.738 69.456C285.815 69.3077 285.926 69.0947 286.061 68.8363C286.33 68.3194 286.696 67.6207 287.081 66.8931C287.853 65.431 288.691 63.8724 288.982 63.4214Z" stroke="#333333" stroke-opacity="0.05" stroke-width="0.5"/>
<path fill-rule="evenodd" clip-rule="evenodd" d="M347.39 90.6659C337.499 89.5791 327.526 89.2656 317.541 89.7279C310.329 99.7792 300.749 105.489 295.067 104.306C289.886 103.227 288.742 98.4688 289.464 92.957C282.474 94.2738 278.217 95.5017 277.706 95.6566C276.419 96.047 275.9 95.5577 275.513 94.8612C275.443 94.7348 274.196 91.9754 274.15 91.8542C273.988 91.4273 273.805 90.9768 274.294 90.0149C275.091 88.4453 278.435 82.3347 278.435 82.3347C276.21 82.207 273.996 82.2127 271.817 82.325C267.195 90.8981 260.739 102.877 260.328 103.647C259.591 105.026 257.934 104.819 257.431 103.594C257.267 103.195 256.008 100.41 255.837 99.9943C255.614 99.4502 255.597 98.9777 255.926 98.2053C256.242 97.4664 260.24 90.0489 263.924 83.1902C260.92 83.6873 258.056 84.3465 255.409 85.0912C252.812 89.9169 249.73 95.4258 249.348 96.096C248.679 97.2686 247.197 97.3145 246.573 96.0137C246.472 95.8049 245.662 94.0412 245.579 93.8558C245.192 92.9927 245.199 92.5532 245.554 91.8704C245.734 91.5231 246.664 89.8156 247.846 87.6374C247.604 87.7335 247.367 87.8295 247.133 87.9255C245.504 88.3841 244.267 85.6994 243.944 85.0152C243.808 84.6945 243.783 84.323 243.875 83.9722C243.966 83.6214 244.168 83.316 244.441 83.1149C244.695 82.9263 247.527 81.2905 252.168 79.6078C252.588 78.8156 252.962 78.1021 253.262 77.517C256.933 70.3672 261.569 62.0208 262.211 60.9476C262.853 59.8743 263.923 58.7734 266.24 58.848C268.557 58.9225 268.41 60.4021 268.098 61.1133C267.828 61.7269 262.349 71.751 259.377 77.456C262.148 76.7986 264.943 76.3277 267.75 76.046C268.162 75.2714 268.537 74.5643 268.863 73.9464C273.37 65.3924 278.711 55.5014 279.39 54.5013C280.068 53.5011 281.383 52.5337 283.835 52.6156C286.287 52.6974 286.632 54.1377 286.397 54.8023C286.162 55.4669 280.772 65.769 276.406 73.8196C276.259 74.0898 275.889 74.776 275.354 75.7666C277.104 75.8149 278.897 75.9426 280.726 76.1669C281.054 76.1936 281.372 76.2863 281.667 76.4408C282.445 76.9224 284.399 78.154 285.198 78.6385C285.835 79.0248 286.117 79.9657 285.649 80.8673C285.18 81.769 281.885 87.8561 281.885 87.8561C281.885 87.8561 285.209 87.0136 291.101 86.1311C292.378 82.2821 294.119 78.6296 295.634 76.1016C307.964 55.5354 317.269 54.8664 320.516 55.3639C328.028 56.5146 328.889 69.7625 321.031 84.1543C328.965 84.24 336.873 84.7956 344.721 85.8188C344.989 85.9292 344.984 86.0974 344.996 86.2039C345.011 86.3502 344.867 86.9205 344.448 86.8704C336.124 85.875 332.728 86.1135 332.3 86.1586C331.68 86.2239 331.644 87.0173 332.609 87.0414C337.568 87.1822 342.504 87.6479 347.392 88.4359C347.53 88.4586 348.384 88.5435 348.893 89.3694C349.111 89.7229 349.902 90.8798 347.898 90.7235C347.747 90.7062 347.595 90.689 347.444 90.6719C347.425 90.6693 347.409 90.6673 347.389 90.6645L347.39 90.6659ZM308.666 90.3215C303.804 90.7528 299.377 91.3201 295.486 91.9241C294.962 95.1013 295.663 97.0979 297.752 97.4681C300.38 97.9339 304.337 95.5127 308.666 90.3215ZM317.293 62.5077C312.351 61.9022 304.924 71.094 299.925 80.4948C299.024 82.1883 298.249 83.7917 297.605 85.2886C302.007 84.8032 307.215 84.3942 313.075 84.2254C313.941 82.8649 314.807 81.4024 315.673 79.8378C320.707 70.7184 321.484 63.0213 317.293 62.5077Z" fill="white" fill-opacity="0.05"/>
<path d="M347.476 90.4239C347.446 90.4198 347.45 90.4207 347.426 90.4172L347.076 90.3646L347.079 90.3806C337.286 89.3221 327.413 89.0205 317.529 89.4781L317.408 89.4837L317.337 89.5821C313.748 94.5849 309.573 98.5016 305.597 101.018C301.61 103.542 297.864 104.633 295.118 104.061C292.609 103.539 291.094 102.136 290.282 100.197C289.464 98.2424 289.354 95.7258 289.712 92.9895L289.757 92.6474L289.418 92.7113C282.419 94.0298 278.153 95.2598 277.634 95.4173C277.025 95.602 276.642 95.5653 276.379 95.4406C276.111 95.3137 275.917 95.073 275.732 94.7398L275.532 94.8509L275.732 94.7398C275.732 94.7399 275.726 94.7293 275.712 94.7001C275.7 94.674 275.683 94.6387 275.663 94.5951C275.622 94.5081 275.568 94.39 275.504 94.251C275.377 93.9731 275.213 93.6129 275.05 93.2527C274.888 92.8925 274.725 92.5325 274.601 92.2552C274.539 92.1165 274.486 91.9986 274.448 91.9119C274.429 91.8684 274.413 91.8331 274.402 91.807L274.389 91.7758C274.386 91.7698 274.385 91.7667 274.384 91.7657C274.384 91.7652 274.384 91.7651 274.384 91.7655L274.382 91.7585C274.3 91.5445 274.232 91.365 274.228 91.1308C274.224 90.8962 274.285 90.5837 274.516 90.1281C274.913 89.3471 275.946 87.4306 276.883 85.7054C277.351 84.8437 277.793 84.031 278.119 83.4337C278.282 83.1351 278.416 82.8903 278.509 82.7202L278.616 82.5236L278.645 82.4722L278.652 82.4591L278.654 82.4558L278.654 82.455L278.654 82.4548L278.435 82.3347L278.654 82.4547L278.844 82.1077L278.449 82.0851C276.215 81.9568 273.992 81.9626 271.804 82.0753L271.664 82.0826L271.597 82.2064C266.975 90.779 260.519 102.759 260.108 103.529C259.782 104.138 259.272 104.374 258.806 104.347C258.334 104.32 257.877 104.023 257.662 103.499C257.579 103.298 257.23 102.517 256.881 101.734L256.865 101.698C256.507 100.897 256.152 100.102 256.069 99.8993L256.069 99.8993C255.966 99.6505 255.917 99.4319 255.924 99.1934C255.932 98.9518 255.999 98.6722 256.156 98.3035C256.308 97.9473 257.378 95.9236 258.882 93.1105C260 91.0193 261.353 88.5026 262.733 85.9354C263.203 85.0607 263.676 84.1801 264.144 83.3085L264.385 82.8606L263.883 82.9436C260.869 83.4423 257.996 84.1036 255.341 84.8506L255.239 84.8793L255.189 84.9728C252.593 89.7968 249.512 95.3038 249.131 95.9721L249.348 96.096L249.131 95.9721C248.836 96.4895 248.377 96.7361 247.946 96.7324C247.52 96.7287 247.074 96.4802 246.798 95.9055C246.699 95.6995 245.889 93.938 245.807 93.7536C245.619 93.3336 245.54 93.0454 245.538 92.7937C245.537 92.547 245.608 92.308 245.776 91.9855L245.594 91.8912L245.776 91.9855C245.911 91.7238 246.48 90.6776 247.264 89.2337C247.512 88.7771 247.781 88.2806 248.066 87.7567L248.395 87.1503L247.754 87.4051C247.516 87.4996 247.282 87.594 247.052 87.6885C246.405 87.8626 245.789 87.4315 245.245 86.7438C244.727 86.0892 244.355 85.2995 244.185 84.9388L244.172 84.913C244.06 84.6464 244.038 84.3335 244.116 84.0355C244.195 83.7359 244.366 83.481 244.59 83.3162L244.591 83.3153C244.696 83.237 245.447 82.7901 246.769 82.1464C248.081 81.507 249.942 80.6809 252.253 79.8428L252.344 79.81L252.389 79.7248C252.809 78.9322 253.183 78.2176 253.484 77.6312C257.155 70.4836 261.787 62.1426 262.425 61.0759C262.734 60.5591 263.137 60.0509 263.73 59.6791C264.32 59.3087 265.116 59.062 266.232 59.0979C267.34 59.1335 267.769 59.4986 267.927 59.8458C268.098 60.2205 268.012 60.6867 267.869 61.0128C267.806 61.1544 267.421 61.8825 266.819 63.0053C266.373 63.8359 265.814 64.8738 265.191 66.0306C264.978 66.4266 264.757 66.8365 264.531 67.2569C262.756 70.5524 260.642 74.4862 259.156 77.3405L258.903 77.8255L259.435 77.6993C262.195 77.0443 264.98 76.5754 267.775 76.2948L267.907 76.2814L267.97 76.1635C268.383 75.3887 268.758 74.6813 269.084 74.063C271.337 69.7867 273.799 65.1762 275.782 61.5101C277.77 57.8343 279.267 55.1282 279.597 54.6416L279.597 54.6416C280.224 53.7158 281.456 52.7863 283.826 52.8654C285.006 52.9048 285.625 53.268 285.928 53.6468C286.236 54.031 286.25 54.4662 286.161 54.7189C286.138 54.7844 286.037 55.0015 285.855 55.3693C285.677 55.7288 285.431 56.216 285.128 56.8081C284.522 57.9921 283.69 59.593 282.729 61.425C280.807 65.0891 278.369 69.6763 276.186 73.7004C276.04 73.9709 275.669 74.6573 275.134 75.6478L274.941 76.0053L275.347 76.0165C277.089 76.0646 278.875 76.1918 280.695 76.415L280.695 76.4152L280.706 76.416C280.997 76.4398 281.28 76.5215 281.543 76.6582C281.829 76.835 282.272 77.1123 282.758 77.4164C283.597 77.9414 284.564 78.5462 285.068 78.8522C285.575 79.1597 285.845 79.9484 285.427 80.7521C285.194 81.2006 284.254 82.9453 283.371 84.5811C282.93 85.3983 282.503 86.1873 282.187 86.772L281.808 87.4738L281.702 87.6685L281.674 87.7196L281.667 87.7327L281.666 87.736L281.665 87.7368L281.665 87.737L281.885 87.8561L281.665 87.7371L281.394 88.2385L281.946 88.0985L281.946 88.0985L281.947 88.0984L281.948 88.0979L281.955 88.0962L281.984 88.0891C282.009 88.0828 282.047 88.0735 282.098 88.0612C282.199 88.0367 282.351 88.0005 282.552 87.9543C282.954 87.862 283.552 87.7295 284.334 87.5695C285.897 87.2494 288.197 86.8189 291.138 86.3784L291.289 86.3556L291.338 86.2099C292.61 82.3781 294.343 78.7423 295.849 76.2301C302.002 65.9674 307.385 60.6937 311.614 58.0458C315.836 55.4018 318.914 55.3714 320.478 55.611C322.277 55.8866 323.679 56.8831 324.659 58.4562C325.642 60.0359 326.202 62.2023 326.287 64.8019C326.457 70.0004 324.725 76.8662 320.812 84.0345L320.612 84.3998L321.028 84.4043C328.94 84.4897 336.826 85.0431 344.653 86.062C344.715 86.0923 344.727 86.1172 344.73 86.1221L344.73 86.1224C344.738 86.1384 344.739 86.1493 344.743 86.195C344.744 86.205 344.746 86.2167 344.747 86.2305L344.996 86.2039M347.476 90.4239L282.212 87.7769C283.183 87.5475 286.284 86.8527 291.101 86.1311C292.378 82.2821 294.119 78.6296 295.634 76.1016C307.964 55.5354 317.269 54.8664 320.516 55.3639C327.985 56.508 328.878 69.6103 321.166 83.9058C321.122 83.9053 321.078 83.9048 321.034 83.9043L321.031 84.1543L321.25 84.2741C321.272 84.2352 321.293 84.1964 321.314 84.1575C329.153 84.2532 336.966 84.8078 344.721 85.8188C344.97 85.9212 344.984 86.0734 344.993 86.18C344.994 86.1882 344.995 86.1962 344.996 86.2039M347.476 90.4239C347.625 90.4407 347.773 90.4576 347.922 90.4746C348.406 90.512 348.68 90.4656 348.827 90.3997C348.896 90.3684 348.93 90.3358 348.948 90.3112C348.965 90.2869 348.976 90.2575 348.979 90.2174C348.987 90.1271 348.953 90.0031 348.885 89.8588C348.829 89.7393 348.762 89.6317 348.707 89.5437C348.698 89.5287 348.689 89.5143 348.68 89.5005L348.68 89.5005C348.261 88.8199 347.575 88.7163 347.38 88.6869C347.369 88.6853 347.359 88.6838 347.351 88.6826L347.392 88.4359L347.352 88.6827C342.475 87.8964 337.55 87.4318 332.602 87.2913C332.069 87.2778 331.676 87.0403 331.614 86.6557C331.55 86.2674 331.861 85.9534 332.274 85.91M347.476 90.4239L332.274 85.91M344.996 86.2039C345.011 86.3502 344.867 86.9205 344.448 86.8704C336.124 85.875 332.728 86.1135 332.3 86.1586M344.996 86.2039L344.747 86.2294C344.747 86.2285 344.747 86.2291 344.747 86.2311C344.746 86.2389 344.744 86.2685 344.732 86.3174C344.719 86.3729 344.697 86.4345 344.666 86.4888C344.603 86.6017 344.542 86.6299 344.477 86.6221L344.451 86.8428L344.477 86.6221C336.144 85.6257 332.728 85.8621 332.274 85.91L332.3 86.1586M332.3 86.1586C331.68 86.2239 331.644 87.0173 332.609 87.0414L332.274 85.91M332.3 86.1586L332.274 85.91M246.573 96.0137C246.472 95.8049 245.662 94.0412 245.579 93.8558C245.192 92.9927 245.199 92.5532 245.554 91.8704C245.691 91.6064 246.261 90.5563 247.046 89.1109C247.239 88.7562 247.444 88.3778 247.659 87.9813C247.752 87.9441 247.845 87.9069 247.938 87.8697L247.846 87.6374L247.626 87.5182C247.578 87.6073 247.53 87.6956 247.483 87.783C247.365 87.8305 247.248 87.878 247.133 87.9255C245.529 88.377 244.306 85.7821 243.96 85.0485L246.573 96.0137ZM244.441 83.1149C244.695 82.9263 247.527 81.2905 252.168 79.6078C252.588 78.8156 252.962 78.1021 253.262 77.517C256.933 70.3672 261.569 62.0208 262.211 60.9476C262.853 59.8743 263.923 58.7734 266.24 58.848C268.557 58.9225 268.41 60.4021 268.098 61.1133C267.98 61.381 266.871 63.4395 265.411 66.1491C263.581 69.5458 261.2 73.9657 259.53 77.1632C259.46 77.1796 259.39 77.1961 259.32 77.2128L259.377 77.456L259.599 77.5715C259.632 77.5084 259.665 77.4448 259.699 77.3806C262.364 76.7625 265.052 76.3169 267.75 76.046C268.162 75.2714 268.537 74.5643 268.863 73.9464C273.37 65.3924 278.711 55.5014 279.39 54.5013C280.068 53.5011 281.383 52.5337 283.835 52.6156C286.287 52.6974 286.632 54.1377 286.397 54.8023C286.162 55.4669 280.772 65.769 276.406 73.8196C276.272 74.0668 275.95 74.6622 275.487 75.5203C275.445 75.519 275.403 75.5178 275.361 75.5167L275.354 75.7666L275.574 75.8853C275.594 75.8481 275.614 75.8113 275.634 75.775C277.295 75.8287 278.994 75.9546 280.726 76.1669C281.054 76.1936 281.372 76.2863 281.667 76.4408C281.955 76.6189 282.403 76.8995 282.894 77.2069C283.732 77.731 284.694 78.3331 285.198 78.6385C285.835 79.0248 286.117 79.9657 285.649 80.8673C285.243 81.6491 282.712 86.3286 282.045 87.5596L244.441 83.1149ZM289.432 93.2176C289.458 93.2126 289.484 93.2076 289.511 93.2027L289.464 92.957L289.217 92.9245C289.213 92.9516 289.209 92.9787 289.206 93.0059C282.369 94.304 278.211 95.5036 277.706 95.6566C276.419 96.047 275.9 95.5577 275.513 94.8612C275.443 94.7348 274.196 91.9754 274.15 91.8542L274.144 91.8363C273.983 91.4146 273.812 90.9634 274.294 90.0149C274.996 88.6326 277.673 83.7283 278.302 82.5776C278.342 82.5798 278.381 82.582 278.421 82.5842L289.432 93.2176ZM271.817 82.325C267.195 90.8981 260.739 102.877 260.328 103.647C259.591 105.026 257.934 104.819 257.431 103.594C257.35 103.397 257 102.614 256.647 101.824C256.287 101.018 255.923 100.204 255.837 99.9943L271.817 82.325ZM308.858 90.4816L309.243 90.0192L308.644 90.0724C303.776 90.5043 299.343 91.0723 295.448 91.6771L295.269 91.7049L295.239 91.8834C294.974 93.4909 295.012 94.8367 295.407 95.8403C295.809 96.8628 296.578 97.5138 297.708 97.7143C299.114 97.9633 300.826 97.4363 302.706 96.2264C304.593 95.0124 306.683 93.0895 308.858 90.4816ZM297.375 85.1898L297.206 85.5842L297.632 85.5371C302.028 85.0524 307.23 84.6439 313.082 84.4752L313.214 84.4714L313.286 84.3596C314.155 82.9944 315.024 81.5275 315.892 79.9588L315.892 79.9586C318.418 75.3826 319.887 71.1445 320.191 67.9694C320.343 66.3838 320.207 65.0374 319.742 64.0438C319.27 63.035 318.462 62.3991 317.323 62.2595C316.006 62.0981 314.555 62.5917 313.064 63.5291C311.569 64.4688 310.004 65.8723 308.445 67.5804C305.328 70.9973 302.21 75.6641 299.704 80.3774C298.801 82.076 298.023 83.6856 297.375 85.1898Z" stroke="#333333" stroke-opacity="0.05" stroke-width="0.5"/>
<path d="M125.915 110.611C126.216 109.938 126.982 109.024 128.449 108.84C129.917 108.655 130.205 109.66 130.111 110.09C130.016 110.521 127.604 116.767 127.286 117.687C126.966 118.614 125.831 118.446 125.493 117.971C125.217 117.582 124.619 116.774 124.394 116.373C124.17 115.972 124.148 115.667 124.334 115.108C124.334 115.108 125.615 111.284 125.915 110.611Z" fill="white" fill-opacity="0.05"/>
<path d="M127.05 117.605L127.05 117.605C127.179 117.232 127.646 115.999 128.163 114.633C128.29 114.299 128.42 113.956 128.548 113.617C128.876 112.752 129.196 111.903 129.44 111.243C129.562 110.913 129.665 110.631 129.74 110.419C129.818 110.199 129.859 110.072 129.867 110.037C129.867 110.037 129.867 110.037 129.867 110.037L127.05 117.605ZM127.05 117.605C126.928 117.957 126.666 118.094 126.386 118.105C126.084 118.117 125.806 117.98 125.697 117.826L125.697 117.826M127.05 117.605L125.697 117.826M125.697 117.826C125.64 117.746 125.571 117.651 125.496 117.546M125.697 117.826L125.496 117.546M125.496 117.546C125.194 117.127 124.785 116.56 124.613 116.251L125.496 117.546ZM126.144 110.713L126.144 110.713L124.613 116.251C124.513 116.073 124.468 115.934 124.46 115.787C124.452 115.635 124.483 115.453 124.572 115.187L124.572 115.186L124.572 115.184L124.575 115.176L124.586 115.144L124.627 115.022C124.662 114.916 124.714 114.764 124.776 114.58C124.901 114.211 125.07 113.712 125.248 113.193C125.608 112.146 125.999 111.036 126.144 110.713Z" stroke="#333333" stroke-opacity="0.05" stroke-width="0.5"/>
<path fill-rule="evenodd" clip-rule="evenodd" d="M168.31 122.34C161.543 122.685 154.806 123.547 148.146 124.921C144.4 132.304 138.586 137.086 134.637 136.917C131.037 136.762 129.747 133.755 129.629 130.053C125.076 131.668 122.349 132.931 122.022 133.088C121.2 133.483 120.797 133.216 120.461 132.8C120.4 132.724 119.26 131.043 119.216 130.968C119.061 130.704 118.888 130.428 119.111 129.743C119.475 128.625 121.054 124.248 121.054 124.248C119.545 124.402 118.057 124.643 116.605 124.95C114.437 131.084 111.41 139.655 111.217 140.205C110.873 141.191 109.737 141.233 109.264 140.481C109.11 140.236 107.959 138.539 107.799 138.284C107.589 137.95 107.526 137.641 107.663 137.098C107.794 136.578 109.669 131.271 111.394 126.365C109.43 127.014 107.577 127.754 105.88 128.528C104.663 131.98 103.195 135.933 103.011 136.415C102.69 137.258 101.699 137.447 101.137 136.658C101.047 136.532 100.309 135.458 100.232 135.345C99.8782 134.819 99.835 134.529 99.9983 134.042C100.081 133.795 100.52 132.572 101.076 131.013C100.924 131.102 100.774 131.19 100.628 131.278C99.583 131.755 98.4581 130.121 98.1661 129.706C98.0392 129.51 97.9818 129.268 98.0051 129.027C98.0284 128.787 98.1306 128.564 98.2922 128.403C98.4417 128.252 100.166 126.872 103.101 125.268C103.297 124.702 103.47 124.193 103.608 123.776C105.292 118.68 107.494 112.694 107.808 111.919C108.122 111.145 108.721 110.306 110.286 110.107C111.851 109.907 111.915 110.896 111.783 111.398C111.669 111.83 109.084 119.01 107.711 123.081C109.501 122.351 111.328 121.742 113.184 121.256C113.376 120.703 113.551 120.197 113.702 119.756C115.795 113.647 118.302 106.569 118.648 105.839C118.995 105.108 119.773 104.331 121.429 104.122C123.086 103.914 123.476 104.824 123.391 105.286C123.305 105.748 120.811 113.102 118.758 118.865C118.689 119.058 118.515 119.549 118.264 120.258C119.445 120.102 120.664 119.994 121.918 119.946C122.141 119.928 122.366 119.955 122.581 120.025C123.156 120.258 124.604 120.859 125.194 121.092C125.665 121.278 125.958 121.867 125.742 122.51C125.525 123.153 123.977 127.51 123.977 127.51C123.977 127.51 126.119 126.599 129.982 125.388C130.419 122.719 131.189 120.131 131.931 118.305C137.966 103.458 144.146 102.021 146.384 102C151.558 101.952 153.587 110.573 149.881 120.881C155.223 120.087 160.599 119.606 165.986 119.438C166.178 119.482 166.193 119.593 166.212 119.662C166.238 119.756 166.204 120.147 165.917 120.159C160.214 120.396 157.957 120.916 157.675 120.992C157.265 121.101 157.328 121.627 157.979 121.539C161.327 121.101 164.696 120.878 168.067 120.873C168.162 120.873 168.746 120.837 169.178 121.326C169.363 121.535 170.022 122.211 168.658 122.323C168.554 122.328 168.451 122.333 168.347 122.338C168.334 122.338 168.323 122.339 168.309 122.339L168.31 122.34ZM142.246 126.262C139.026 127.067 136.112 127.914 133.563 128.728C133.559 130.874 134.249 132.112 135.693 132.132C137.511 132.157 139.905 130.14 142.246 126.262ZM144.999 107.044C141.611 107.175 137.626 114.017 135.295 120.735C134.876 121.946 134.53 123.083 134.261 124.137C137.167 123.346 140.622 122.519 144.542 121.78C144.975 120.793 145.397 119.738 145.808 118.616C148.193 112.079 147.873 106.933 144.999 107.044Z" fill="white" fill-opacity="0.05"/>
<path d="M168.642 122.074L168.342 122.088C168.341 122.088 168.34 122.088 168.339 122.088C168.327 122.088 168.324 122.089 168.32 122.089C168.317 122.089 168.315 122.089 168.306 122.089L167.949 122.093L167.954 122.108C161.29 122.465 154.655 123.323 148.095 124.676L147.977 124.7L147.923 124.808C146.063 128.474 143.692 131.488 141.303 133.562C138.906 135.644 136.527 136.747 134.648 136.667C132.929 136.593 131.781 135.846 131.038 134.681C130.286 133.501 129.938 131.876 129.879 130.045L129.868 129.703L129.546 129.817C124.984 131.435 122.248 132.702 121.914 132.862L122.004 133.05L121.914 132.862C121.535 133.044 121.294 133.055 121.127 133.007C120.957 132.959 120.813 132.837 120.656 132.643C120.657 132.644 120.656 132.643 120.655 132.642C120.653 132.639 120.649 132.633 120.642 132.623C120.637 132.617 120.633 132.61 120.627 132.602C120.619 132.59 120.609 132.576 120.597 132.56C120.561 132.507 120.511 132.435 120.453 132.351C120.338 132.182 120.188 131.962 120.039 131.743C119.89 131.524 119.742 131.304 119.628 131.135C119.571 131.051 119.523 130.979 119.488 130.926L119.446 130.863C119.438 130.851 119.434 130.845 119.432 130.842C119.431 130.841 119.431 130.84 119.431 130.841C119.352 130.705 119.293 130.606 119.267 130.468C119.242 130.332 119.246 130.135 119.349 129.82C119.529 129.265 120.014 127.896 120.454 126.66C120.674 126.043 120.883 125.461 121.037 125.034L121.22 124.523L121.271 124.382L121.284 124.345L121.288 124.336L121.289 124.333L121.289 124.333L121.289 124.333L121.054 124.248L121.289 124.333L121.424 123.959L121.028 123.999C119.51 124.154 118.013 124.397 116.553 124.706L116.416 124.735L116.369 124.867C114.201 131.001 111.174 139.572 110.981 140.123C110.84 140.528 110.549 140.716 110.263 140.746C109.971 140.776 109.661 140.642 109.476 140.348C109.398 140.223 109.078 139.748 108.759 139.272L108.742 139.247C108.413 138.757 108.088 138.274 108.011 138.151L108.011 138.151C107.919 138.005 107.868 137.878 107.849 137.736C107.83 137.591 107.842 137.412 107.906 137.159C107.968 136.913 108.463 135.473 109.167 133.459C109.69 131.964 110.323 130.164 110.969 128.328C111.189 127.702 111.411 127.072 111.63 126.448L111.799 125.968L111.316 126.128C109.342 126.78 107.481 127.523 105.776 128.3L105.679 128.344L105.644 128.445C104.428 131.895 102.96 135.846 102.777 136.326L103.011 136.415L102.777 136.326C102.646 136.672 102.387 136.862 102.127 136.901C101.871 136.94 101.572 136.838 101.34 136.513C101.252 136.389 100.515 135.318 100.44 135.206C100.27 134.953 100.193 134.784 100.168 134.636C100.143 134.494 100.161 134.345 100.235 134.122L100.022 134.05L100.235 134.122C100.298 133.936 100.564 133.189 100.933 132.155C101.05 131.828 101.177 131.472 101.311 131.097L101.542 130.449L100.949 130.797C100.801 130.884 100.655 130.97 100.512 131.056C100.142 131.217 99.7171 131.03 99.2813 130.64C98.8688 130.271 98.5367 129.799 98.383 129.58L98.3736 129.566C98.2801 129.42 98.236 129.236 98.2539 129.051C98.272 128.865 98.3509 128.698 98.469 128.58L98.47 128.579C98.526 128.522 98.9759 128.151 99.7942 127.586C100.604 127.026 101.762 126.285 103.221 125.488L103.306 125.441L103.338 125.35C103.533 124.783 103.707 124.273 103.845 123.854C105.529 118.761 107.729 112.781 108.04 112.013C108.188 111.648 108.397 111.283 108.741 110.987C109.083 110.691 109.577 110.449 110.318 110.355C111.053 110.261 111.344 110.455 111.465 110.631C111.601 110.829 111.599 111.115 111.541 111.334C111.516 111.429 111.338 111.944 111.056 112.75C110.847 113.344 110.585 114.087 110.293 114.915C110.193 115.198 110.089 115.491 109.983 115.792C109.151 118.149 108.161 120.964 107.474 123.001L107.3 123.518L107.805 123.312C109.585 122.587 111.402 121.981 113.247 121.498L113.376 121.464L113.42 121.338C113.612 120.785 113.787 120.279 113.938 119.837L113.702 119.756L113.938 119.837C114.985 116.783 116.134 113.488 117.066 110.864C118.001 108.23 118.708 106.296 118.874 105.946L118.874 105.946C119.181 105.298 119.883 104.569 121.461 104.37C122.244 104.272 122.675 104.443 122.898 104.64C123.125 104.841 123.172 105.095 123.145 105.241C123.138 105.28 123.095 105.427 123.013 105.691C122.933 105.946 122.821 106.293 122.682 106.714C122.404 107.558 122.021 108.699 121.575 110.007C120.685 112.623 119.548 115.901 118.522 118.781L118.758 118.865L118.522 118.781C118.453 118.974 118.279 119.466 118.028 120.174L117.892 120.559L118.297 120.506C119.471 120.351 120.682 120.244 121.928 120.195L121.928 120.196L121.938 120.195C122.125 120.18 122.314 120.202 122.495 120.26C122.706 120.346 123.032 120.48 123.39 120.627C124.012 120.882 124.729 121.177 125.102 121.325C125.433 121.455 125.684 121.896 125.505 122.43C125.397 122.749 124.957 123.997 124.542 125.167C124.335 125.752 124.135 126.317 123.987 126.735L123.808 127.238L123.759 127.377L123.746 127.413L123.742 127.423L123.742 127.425L123.741 127.426L123.741 127.426L123.977 127.51L123.741 127.426L123.551 127.962L124.075 127.74L124.075 127.74L124.075 127.74L124.075 127.74L124.076 127.739L124.08 127.737L124.098 127.73L124.172 127.699C124.237 127.672 124.335 127.632 124.465 127.581C124.724 127.477 125.111 127.326 125.618 127.137C126.633 126.76 128.13 126.231 130.057 125.626L130.204 125.58L130.228 125.428C130.663 122.778 131.428 120.207 132.163 118.4L131.931 118.305L132.163 118.4C135.171 110.998 138.205 106.966 140.745 104.782C143.278 102.603 145.326 102.26 146.386 102.25C148.791 102.228 150.536 104.212 151.218 107.607C151.897 110.988 151.488 115.673 149.646 120.796L149.505 121.19L149.918 121.128C155.238 120.338 160.591 119.857 165.956 119.689C165.958 119.69 165.96 119.69 165.961 119.691C165.962 119.693 165.963 119.696 165.964 119.7L165.967 119.712L165.969 119.72C165.969 119.72 165.969 119.721 165.969 119.722C165.97 119.73 165.97 119.742 165.968 119.757C165.966 119.789 165.959 119.824 165.948 119.854C165.936 119.885 165.924 119.9 165.919 119.905C165.917 119.907 165.917 119.908 165.907 119.909L165.917 120.159L165.907 119.909C160.194 120.146 157.918 120.668 157.61 120.75C157.31 120.831 157.086 121.109 157.193 121.42C157.296 121.724 157.639 121.837 158.012 121.787L157.979 121.539L158.012 121.787C161.349 121.35 164.707 121.128 168.068 121.123L168.067 120.873L168.067 121.123C168.072 121.123 168.079 121.123 168.086 121.123C168.22 121.121 168.66 121.117 168.991 121.492L168.991 121.492C168.999 121.5 169.006 121.509 169.014 121.518C169.061 121.57 169.114 121.63 169.162 121.698C169.222 121.783 169.247 121.845 169.25 121.882C169.25 121.887 169.25 121.891 169.25 121.894C169.249 121.898 169.248 121.9 169.248 121.901C169.246 121.903 169.238 121.918 169.205 121.94C169.13 121.988 168.966 122.047 168.642 122.074ZM142.46 126.391L142.773 125.873L142.185 126.019C138.96 126.825 136.041 127.674 133.487 128.49L133.314 128.545L133.313 128.728C133.311 129.82 133.484 130.72 133.871 131.357C134.269 132.011 134.882 132.371 135.69 132.382C136.689 132.395 137.801 131.851 138.939 130.848C140.082 129.84 141.281 128.344 142.46 126.391ZM134.019 124.075L133.913 124.491L134.327 124.378C137.226 123.589 140.676 122.763 144.588 122.026L144.718 122.001L144.771 121.881C145.206 120.888 145.63 119.828 146.043 118.702L146.043 118.702C147.242 115.415 147.769 112.458 147.625 110.32C147.553 109.253 147.312 108.364 146.878 107.743C146.435 107.108 145.797 106.763 144.989 106.794C144.062 106.83 143.125 107.323 142.218 108.105C141.308 108.889 140.406 109.987 139.543 111.281C137.817 113.87 136.229 117.28 135.059 120.653L135.295 120.735L135.059 120.653C134.638 121.869 134.29 123.014 134.019 124.075Z" stroke="#333333" stroke-opacity="0.05" stroke-width="0.5"/>
<path d="M319.255 14.8653C319.495 14.3289 320.105 13.6006 321.275 13.4534C322.445 13.3062 322.675 14.1072 322.599 14.4504C322.524 14.7937 320.601 19.773 320.348 20.5064C320.092 21.2455 319.188 21.1119 318.918 20.7328C318.698 20.4231 318.221 19.7788 318.042 19.4592C317.864 19.1395 317.846 18.8964 317.994 18.4502C317.994 18.4502 319.015 15.4017 319.255 14.8653Z" fill="white" fill-opacity="0.05"/>
<path d="M320.111 20.4248L320.111 20.4248C320.214 20.1265 320.587 19.1421 321 18.0535C321.101 17.7869 321.204 17.5142 321.306 17.2437C321.567 16.554 321.822 15.8772 322.017 15.3516C322.114 15.0887 322.196 14.8645 322.256 14.6958C322.286 14.6113 322.31 14.5418 322.327 14.4887C322.336 14.4622 322.343 14.4407 322.348 14.424L322.353 14.4042C322.355 14.3993 322.355 14.397 322.355 14.3968C322.355 14.3968 322.355 14.3968 322.355 14.3968C322.355 14.3968 322.355 14.3968 322.355 14.3968L320.111 20.4248ZM320.111 20.4248C320.022 20.6826 319.833 20.781 319.628 20.7891C319.401 20.7982 319.197 20.6934 319.122 20.5879L319.122 20.5879M320.111 20.4248L319.122 20.5879M319.122 20.5879C319.076 20.5233 319.021 20.4466 318.96 20.3628M319.122 20.5879L318.96 20.3628M318.96 20.3628C318.719 20.0282 318.396 19.5802 318.261 19.3372L318.96 20.3628ZM319.483 14.9673L319.483 14.9673L318.261 19.3372C318.184 19.1994 318.151 19.0962 318.145 18.9891C318.14 18.8772 318.162 18.7389 318.232 18.5291L318.232 18.5291L318.232 18.5274L318.234 18.5209L318.243 18.4954L318.276 18.3979C318.304 18.3136 318.345 18.1925 318.395 18.0456C318.494 17.7516 318.629 17.3542 318.771 16.9402C319.059 16.1044 319.369 15.2225 319.483 14.9673Z" stroke="#333333" stroke-opacity="0.05" stroke-width="0.5"/>
<path fill-rule="evenodd" clip-rule="evenodd" d="M353.051 24.215C347.657 24.4899 342.286 25.1773 336.976 26.2725C333.99 32.1587 329.355 35.9706 326.207 35.8357C323.337 35.7127 322.309 33.3153 322.215 30.3636C318.585 31.6511 316.411 32.6585 316.151 32.7834C315.495 33.098 315.174 32.8858 314.906 32.5536C314.858 32.4933 313.949 31.1529 313.914 31.0933C313.79 30.8833 313.652 30.6628 313.83 30.1167C314.12 29.2256 315.378 25.736 315.378 25.736C314.175 25.859 312.99 26.0511 311.832 26.2961C310.103 31.1861 307.69 38.0185 307.537 38.4572C307.263 39.2431 306.356 39.2763 305.98 38.677C305.857 38.4819 304.94 37.1287 304.812 36.9255C304.645 36.6594 304.594 36.4131 304.704 35.9799C304.808 35.5655 306.303 31.3348 307.678 27.4239C306.112 27.9411 304.635 28.5314 303.282 29.1479C302.312 31.9 301.141 35.0517 300.995 35.4358C300.739 36.1078 299.949 36.2584 299.501 35.6296C299.429 35.5287 298.84 34.6732 298.78 34.5831C298.497 34.1635 298.463 33.9325 298.593 33.5442C298.659 33.3467 299.009 32.372 299.452 31.1289C299.331 31.1999 299.212 31.2706 299.095 31.3409C298.262 31.7205 297.365 30.4184 297.132 30.0872C297.031 29.9308 296.985 29.7381 297.004 29.5463C297.023 29.3545 297.104 29.1772 297.233 29.0484C297.352 28.9279 298.727 27.8283 301.067 26.5496C301.222 26.0984 301.361 25.6923 301.47 25.3599C302.814 21.2974 304.569 16.5252 304.819 15.9077C305.069 15.2901 305.547 14.6214 306.794 14.4627C308.042 14.3038 308.093 15.0922 307.988 15.4918C307.897 15.8365 305.836 21.5605 304.742 24.8056C306.169 24.2243 307.626 23.7386 309.104 23.3512C309.258 22.9099 309.397 22.5071 309.518 22.1553C311.186 17.2851 313.185 11.6427 313.461 11.0604C313.737 10.478 314.357 9.85848 315.678 9.69201C316.999 9.52554 317.309 10.2512 317.241 10.6198C317.174 10.9883 315.185 16.8504 313.548 21.4445C313.493 21.5987 313.355 21.9901 313.155 22.5552C314.096 22.4311 315.068 22.345 316.068 22.3063C316.246 22.2923 316.424 22.3137 316.596 22.3696C317.055 22.5556 318.209 23.0345 318.679 23.2203C319.054 23.3685 319.288 23.8377 319.116 24.3505C318.943 24.8632 317.709 28.3364 317.709 28.3364C317.709 28.3364 319.417 27.6107 322.496 26.6448C322.845 24.5175 323.458 22.4537 324.05 20.9988C328.861 9.16213 333.788 8.01669 335.572 8.00016C339.697 7.9619 341.314 14.8348 338.36 23.052C342.618 22.4193 346.904 22.0352 351.198 21.9014C351.351 21.9364 351.364 22.025 351.379 22.0799C351.4 22.1553 351.373 22.4666 351.144 22.4761C346.597 22.6652 344.798 23.0802 344.573 23.1404C344.246 23.2276 344.297 23.6467 344.816 23.5769C347.485 23.2272 350.17 23.0498 352.858 23.0455C352.933 23.0457 353.399 23.0172 353.743 23.4068C353.891 23.5736 354.416 24.1126 353.329 24.2018C353.246 24.2056 353.163 24.2095 353.081 24.2135C353.071 24.2137 353.061 24.2141 353.051 24.2143L353.051 24.215ZM332.273 27.3418C329.706 27.9831 327.383 28.6587 325.351 29.3078C325.348 31.0184 325.898 32.0054 327.049 32.0211C328.498 32.0409 330.407 30.4335 332.273 27.3418ZM334.468 12.0212C331.767 12.1258 328.59 17.5797 326.732 22.9358C326.397 23.9007 326.122 24.8076 325.908 25.6475C328.224 25.017 330.979 24.3578 334.103 23.7688C334.449 22.9815 334.785 22.1406 335.113 21.2463C337.014 16.0347 336.759 11.9325 334.468 12.0212Z" fill="white" fill-opacity="0.05"/>
<path d="M353.072 23.9636L353.313 23.9523C353.568 23.9309 353.688 23.8853 353.737 23.8536C353.742 23.8504 353.746 23.8476 353.748 23.8453C353.744 23.8258 353.728 23.788 353.689 23.7326C353.653 23.6808 353.613 23.6356 353.575 23.594C353.569 23.5868 353.563 23.5796 353.556 23.5725L353.556 23.5724C353.308 23.2916 352.978 23.2945 352.873 23.2954C352.867 23.2955 352.862 23.2955 352.858 23.2955C350.181 23.2998 347.507 23.4765 344.848 23.8248L344.816 23.5769M353.072 23.9636L344.508 22.8989C344.25 22.968 344.043 23.2144 344.141 23.4985C344.235 23.7743 344.542 23.866 344.849 23.8247L344.816 23.5769M353.072 23.9636C353.053 23.964 353.062 23.9641 353.048 23.9643L352.69 23.9687L352.696 23.9834C347.404 24.2701 342.135 24.9531 336.926 26.0277L336.808 26.052L336.753 26.1594C335.273 29.0769 333.387 31.4748 331.488 33.1232C329.581 34.7796 327.697 35.6493 326.218 35.5859C324.864 35.5279 323.964 34.9405 323.381 34.026C322.788 33.0966 322.511 31.8111 322.465 30.3556L322.454 30.0136L322.132 30.128C318.493 31.4184 316.311 32.4293 316.042 32.558L316.151 32.7834L316.042 32.558C315.747 32.6997 315.568 32.7035 315.451 32.6704C315.33 32.6363 315.224 32.5488 315.101 32.3966C315.101 32.397 315.1 32.3957 315.098 32.3926C315.093 32.3851 315.079 32.3666 315.056 32.3333C315.027 32.2914 314.988 32.2344 314.942 32.167C314.849 32.0324 314.73 31.8577 314.612 31.6828C314.493 31.5079 314.375 31.3332 314.284 31.1985C314.239 31.1311 314.2 31.074 314.172 31.032C314.143 30.9885 314.13 30.9685 314.129 30.9663L314.129 30.9661C314.065 30.8576 314.023 30.7857 314.004 30.6856C313.986 30.5878 313.988 30.4396 314.068 30.1941C314.211 29.7526 314.597 28.6614 314.948 27.6762C315.124 27.1845 315.29 26.7206 315.413 26.3797L315.559 25.9723L315.599 25.8601L315.61 25.8308L315.613 25.8233L315.613 25.8214L315.614 25.8209L315.614 25.8208L315.378 25.736L315.614 25.8208L315.748 25.4468L315.353 25.4873C314.14 25.6113 312.946 25.8048 311.78 26.0515L311.643 26.0806L311.596 26.2128C309.868 31.1023 307.454 37.9355 307.301 38.3748C307.301 38.3748 307.301 38.3748 307.301 38.3748L307.537 38.4572L353.072 23.9636ZM344.816 23.5769C344.297 23.6467 344.246 23.2276 344.573 23.1404C344.798 23.0802 346.597 22.6652 351.144 22.4761C351.373 22.4666 351.4 22.1553 351.379 22.0799C351.378 22.0759 351.377 22.0718 351.376 22.0675C351.361 22.0125 351.34 21.9339 351.198 21.9014L352.858 23.0455C350.17 23.0498 347.485 23.2272 344.816 23.5769ZM332.487 27.471L332.8 26.9524L332.212 27.0992C329.64 27.742 327.312 28.4191 325.275 29.0696L325.102 29.125L325.101 29.3072C325.099 30.1823 325.238 30.9104 325.553 31.4298C325.88 31.9666 326.385 32.262 327.046 32.2711C327.861 32.2822 328.759 31.8389 329.67 31.0358C330.586 30.2279 331.545 29.0307 332.487 27.471ZM326.496 22.8539L326.496 22.8539C326.159 23.8243 325.882 24.738 325.665 25.5856L325.559 26.0015L325.973 25.8888C328.284 25.2598 331.032 24.6021 334.15 24.0145L334.279 23.99L334.332 23.8692C334.68 23.0767 335.018 22.231 335.347 21.3322L335.348 21.3319C336.305 18.7085 336.727 16.3431 336.612 14.6293C336.554 13.7742 336.36 13.0554 336.007 12.5493C335.645 12.0295 335.12 11.7457 334.458 11.7714C333.702 11.8007 332.944 12.2013 332.218 12.8283C331.488 13.458 330.765 14.3368 330.076 15.3705C328.697 17.4388 327.43 20.1618 326.496 22.8539Z" stroke="#333333" stroke-opacity="0.05" stroke-width="0.5"/>
<path d="M199.255 187.865C199.495 187.329 200.105 186.601 201.275 186.453C202.445 186.306 202.675 187.107 202.599 187.45C202.524 187.794 200.601 192.773 200.348 193.506C200.092 194.246 199.188 194.112 198.918 193.733C198.698 193.423 198.221 192.779 198.042 192.459C197.864 192.139 197.846 191.896 197.994 191.45C197.994 191.45 199.015 188.402 199.255 187.865Z" fill="white" fill-opacity="0.05"/>
<path d="M200.111 193.425L200.111 193.425C200.214 193.127 200.587 192.142 201 191.053C201.101 190.787 201.204 190.514 201.306 190.244C201.567 189.554 201.822 188.877 202.017 188.352C202.114 188.089 202.196 187.865 202.256 187.696C202.286 187.611 202.31 187.542 202.327 187.489C202.336 187.462 202.343 187.441 202.348 187.424L202.353 187.404C202.355 187.399 202.355 187.397 202.355 187.397C202.355 187.397 202.355 187.397 202.355 187.397C202.355 187.397 202.355 187.397 202.355 187.397L200.111 193.425ZM200.111 193.425C200.022 193.683 199.833 193.781 199.628 193.789C199.401 193.798 199.197 193.693 199.122 193.588L199.122 193.588M200.111 193.425L199.122 193.588M199.122 193.588C199.076 193.523 199.021 193.447 198.96 193.363M199.122 193.588L198.96 193.363M198.96 193.363C198.719 193.028 198.396 192.58 198.261 192.337L198.96 193.363ZM199.483 187.967L199.483 187.967L198.261 192.337C198.184 192.199 198.151 192.096 198.145 191.989C198.14 191.877 198.162 191.739 198.232 191.529L198.232 191.529L198.232 191.527L198.234 191.521L198.243 191.495L198.276 191.398C198.304 191.314 198.345 191.193 198.395 191.046C198.494 190.752 198.629 190.354 198.771 189.94C199.059 189.104 199.369 188.222 199.483 187.967Z" stroke="#333333" stroke-opacity="0.05" stroke-width="0.5"/>
<path fill-rule="evenodd" clip-rule="evenodd" d="M233.051 197.215C227.657 197.49 222.286 198.177 216.976 199.273C213.99 205.159 209.355 208.971 206.207 208.836C203.337 208.713 202.309 206.315 202.215 203.364C198.585 204.651 196.411 205.658 196.151 205.783C195.495 206.098 195.174 205.886 194.906 205.554C194.858 205.493 193.949 204.153 193.914 204.093C193.79 203.883 193.652 203.663 193.83 203.117C194.12 202.226 195.378 198.736 195.378 198.736C194.175 198.859 192.99 199.051 191.832 199.296C190.103 204.186 187.69 211.019 187.537 211.457C187.263 212.243 186.356 212.276 185.98 211.677C185.857 211.482 184.94 210.129 184.812 209.926C184.645 209.659 184.594 209.413 184.704 208.98C184.808 208.566 186.303 204.335 187.678 200.424C186.112 200.941 184.635 201.531 183.282 202.148C182.312 204.9 181.141 208.052 180.995 208.436C180.739 209.108 179.949 209.258 179.501 208.63C179.429 208.529 178.84 207.673 178.78 207.583C178.497 207.164 178.463 206.933 178.593 206.544C178.659 206.347 179.009 205.372 179.452 204.129C179.331 204.2 179.212 204.271 179.095 204.341C178.262 204.721 177.365 203.418 177.132 203.087C177.031 202.931 176.985 202.738 177.004 202.546C177.023 202.355 177.104 202.177 177.233 202.048C177.352 201.928 178.727 200.828 181.067 199.55C181.222 199.098 181.361 198.692 181.47 198.36C182.814 194.297 184.569 189.525 184.819 188.908C185.069 188.29 185.547 187.621 186.794 187.463C188.042 187.304 188.093 188.092 187.988 188.492C187.897 188.837 185.836 194.56 184.742 197.806C186.169 197.224 187.626 196.739 189.104 196.351C189.258 195.91 189.397 195.507 189.518 195.155C191.186 190.285 193.185 184.643 193.461 184.06C193.737 183.478 194.357 182.858 195.678 182.692C196.999 182.526 197.309 183.251 197.241 183.62C197.174 183.988 195.185 189.85 193.548 194.444C193.493 194.599 193.355 194.99 193.155 195.555C194.096 195.431 195.068 195.345 196.068 195.306C196.246 195.292 196.424 195.314 196.596 195.37C197.055 195.556 198.209 196.034 198.679 196.22C199.054 196.369 199.288 196.838 199.116 197.35C198.943 197.863 197.709 201.336 197.709 201.336C197.709 201.336 199.417 200.611 202.496 199.645C202.845 197.517 203.458 195.454 204.05 193.999C208.861 182.162 213.788 181.017 215.572 181C219.697 180.962 221.314 187.835 218.36 196.052C222.618 195.419 226.904 195.035 231.198 194.901C231.351 194.936 231.364 195.025 231.379 195.08C231.4 195.155 231.373 195.467 231.144 195.476C226.597 195.665 224.798 196.08 224.573 196.14C224.246 196.228 224.297 196.647 224.816 196.577C227.485 196.227 230.17 196.05 232.858 196.046C232.933 196.046 233.399 196.017 233.743 196.407C233.891 196.574 234.416 197.113 233.329 197.202C233.246 197.206 233.163 197.21 233.081 197.214C233.071 197.214 233.061 197.214 233.051 197.214L233.051 197.215ZM212.273 200.342C209.706 200.983 207.383 201.659 205.351 202.308C205.348 204.018 205.898 205.005 207.049 205.021C208.498 205.041 210.407 203.433 212.273 200.342ZM214.468 185.021C211.767 185.126 208.59 190.58 206.732 195.936C206.397 196.901 206.122 197.808 205.908 198.648C208.224 198.017 210.979 197.358 214.103 196.769C214.449 195.981 214.785 195.141 215.113 194.246C217.014 189.035 216.759 184.932 214.468 185.021Z" fill="white" fill-opacity="0.05"/>
<path d="M233.072 196.964L233.313 196.952C233.568 196.931 233.688 196.885 233.737 196.854C233.742 196.85 233.746 196.848 233.748 196.845C233.744 196.826 233.728 196.788 233.689 196.733C233.653 196.681 233.613 196.636 233.575 196.594C233.569 196.587 233.563 196.58 233.556 196.572L233.556 196.572C233.308 196.292 232.978 196.294 232.873 196.295C232.867 196.295 232.862 196.296 232.858 196.296C230.181 196.3 227.507 196.477 224.848 196.825L224.816 196.577M233.072 196.964L224.508 195.899C224.25 195.968 224.043 196.214 224.141 196.498C224.235 196.774 224.542 196.866 224.849 196.825L224.816 196.577M233.072 196.964C233.053 196.964 233.062 196.964 233.048 196.964L232.69 196.969L232.696 196.983C227.404 197.27 222.135 197.953 216.926 199.028L216.808 199.052L216.753 199.159C215.273 202.077 213.387 204.475 211.488 206.123C209.581 207.78 207.697 208.649 206.218 208.586C204.864 208.528 203.964 207.94 203.381 207.026C202.788 206.097 202.511 204.811 202.465 203.356L202.454 203.014L202.132 203.128C198.493 204.418 196.311 205.429 196.042 205.558L196.151 205.783L196.042 205.558C195.747 205.7 195.568 205.703 195.451 205.67C195.33 205.636 195.224 205.549 195.101 205.397C195.101 205.397 195.1 205.396 195.098 205.393C195.093 205.385 195.079 205.367 195.056 205.333C195.027 205.291 194.988 205.234 194.942 205.167C194.849 205.032 194.73 204.858 194.612 204.683C194.493 204.508 194.375 204.333 194.284 204.199C194.239 204.131 194.2 204.074 194.172 204.032C194.143 203.988 194.13 203.968 194.129 203.966L194.129 203.966C194.065 203.858 194.023 203.786 194.004 203.686C193.986 203.588 193.988 203.44 194.068 203.194C194.211 202.753 194.597 201.661 194.948 200.676C195.124 200.184 195.29 199.721 195.413 199.38L195.559 198.972L195.599 198.86L195.61 198.831L195.613 198.823L195.613 198.821L195.614 198.821L195.614 198.821L195.378 198.736L195.614 198.821L195.748 198.447L195.353 198.487C194.14 198.611 192.946 198.805 191.78 199.052L191.643 199.081L191.596 199.213C189.868 204.102 187.454 210.935 187.301 211.375C187.301 211.375 187.301 211.375 187.301 211.375L187.537 211.457L233.072 196.964ZM224.816 196.577C224.297 196.647 224.246 196.228 224.573 196.14C224.798 196.08 226.597 195.665 231.144 195.476C231.373 195.467 231.4 195.155 231.379 195.08C231.378 195.076 231.377 195.072 231.376 195.068C231.361 195.013 231.34 194.934 231.198 194.901L232.858 196.046C230.17 196.05 227.485 196.227 224.816 196.577ZM212.487 200.471L212.8 199.952L212.212 200.099C209.64 200.742 207.312 201.419 205.275 202.07L205.102 202.125L205.101 202.307C205.099 203.182 205.238 203.91 205.553 204.43C205.88 204.967 206.385 205.262 207.046 205.271C207.861 205.282 208.759 204.839 209.67 204.036C210.586 203.228 211.545 202.031 212.487 200.471ZM206.496 195.854L206.496 195.854C206.159 196.824 205.882 197.738 205.665 198.586L205.559 199.001L205.973 198.889C208.284 198.26 211.032 197.602 214.15 197.014L214.279 196.99L214.332 196.869C214.68 196.077 215.018 195.231 215.347 194.332L215.348 194.332C216.305 191.708 216.727 189.343 216.612 187.629C216.554 186.774 216.36 186.055 216.007 185.549C215.645 185.03 215.12 184.746 214.458 184.771C213.702 184.801 212.944 185.201 212.218 185.828C211.488 186.458 210.765 187.337 210.076 188.371C208.697 190.439 207.43 193.162 206.496 195.854Z" stroke="#333333" stroke-opacity="0.05" stroke-width="0.5"/>
</svg>
