<svg width="351" height="281" viewBox="0 0 351 281" fill="none" xmlns="http://www.w3.org/2000/svg">
<path d="M25.9144 235.215L25.8853 234.705C25.6323 229.284 25.9531 224.941 26.8477 221.674C27.7423 218.408 29.1256 215.725 30.9975 213.626C32.8694 211.527 35.1473 209.562 37.8312 207.729C39.4462 206.613 40.8805 205.321 42.1341 203.855C43.3861 202.361 44.3423 200.67 45.0027 198.783C45.6915 196.894 45.9719 194.829 45.8438 192.588C45.6849 189.809 44.8947 187.435 43.4733 185.468C42.0519 183.5 40.2176 182.026 37.9704 181.044C35.7233 180.063 33.2666 179.649 30.6005 179.801C28.2748 179.934 26.0617 180.544 23.9612 181.632C21.8608 182.719 20.1465 184.34 18.8183 186.493C17.4902 188.646 16.8083 191.402 16.7727 194.762L6.0516 195.375C6.00288 190.54 7.01495 186.342 9.0878 182.781C11.189 179.217 14.0597 176.421 17.6998 174.392C21.3683 172.361 25.4999 171.214 30.0947 170.952C35.0865 170.666 39.4828 171.411 43.2835 173.186C47.1125 174.959 50.1328 177.518 52.3443 180.863C54.5842 184.206 55.8306 188.09 56.0836 192.515C56.2619 195.635 55.9411 198.485 55.121 201.064C54.3293 203.642 53.0968 205.975 51.4234 208.062C49.7784 210.148 47.7518 212.028 45.3434 213.702C42.9366 215.405 41.0311 217.164 39.6267 218.98C38.2208 220.768 37.2447 222.858 36.6986 225.251C36.1525 227.644 35.9516 230.601 36.0959 234.121L36.125 234.632L25.9144 235.215ZM32.7998 260.09C30.7009 260.21 28.8569 259.562 27.2678 258.144C25.6786 256.727 24.8241 254.969 24.7041 252.87C24.5841 250.771 25.2328 248.927 26.6501 247.338C28.0674 245.749 29.8255 244.894 31.9243 244.774C34.0232 244.654 35.8672 245.303 37.4563 246.72C39.0455 248.138 39.9 249.896 40.02 251.995C40.0994 253.384 39.8179 254.681 39.1753 255.884C38.561 257.086 37.6927 258.075 36.5704 258.85C35.4748 259.596 34.2179 260.009 32.7998 260.09Z" fill="#FFFDF9"/>
<path d="M75.4113 109.528L75.413 109.017C75.4879 103.591 76.0705 99.2749 77.1607 96.0683C78.2509 92.8617 79.7936 90.2674 81.7889 88.2854C83.7841 86.3033 86.1765 84.4789 88.9662 82.812C90.6457 81.7949 92.1554 80.5925 93.4953 79.2049C94.8352 77.7889 95.8918 76.1589 96.6649 74.3149C97.4665 72.4709 97.8711 70.4268 97.8785 68.1825C97.8878 65.3984 97.2424 62.9815 95.9424 60.9317C94.6424 58.8819 92.9005 57.2994 90.7167 56.1842C88.5329 55.069 86.1058 54.5069 83.4353 54.498C81.1058 54.4903 78.8599 54.9658 76.6976 55.9245C74.5353 56.8832 72.7263 58.3971 71.2705 60.4661C69.8148 62.5352 68.9677 65.2454 68.7293 68.5969L57.9907 68.5612C58.234 63.7324 59.4978 59.6031 61.7819 56.1732C64.0945 52.7433 67.1288 50.1256 70.8848 48.3199C74.6692 46.5143 78.8626 45.6191 83.4648 45.6344C88.4648 45.6511 92.808 46.6598 96.4946 48.6607C100.21 50.6617 103.07 53.3985 105.075 56.8711C107.109 60.3438 108.119 64.2961 108.104 68.7279C108.094 71.8529 107.601 74.6779 106.627 77.2031C105.681 79.7284 104.31 81.9824 102.514 83.965C100.746 85.9478 98.6091 87.7021 96.104 89.2279C93.5988 90.782 91.5905 92.4231 90.079 94.151C88.5677 95.8506 87.4672 97.8782 86.7775 100.234C86.0879 102.59 85.7088 105.529 85.6403 109.051L85.6386 109.562L75.4113 109.528ZM80.782 134.774C78.6797 134.767 76.8782 134.008 75.3776 132.497C73.8769 130.987 73.1301 129.18 73.1371 127.078C73.144 124.976 73.9029 123.174 75.4136 121.673C76.9242 120.173 78.7307 119.426 80.833 119.433C82.9352 119.44 84.7367 120.199 86.2374 121.709C87.738 123.22 88.4849 125.027 88.4779 127.129C88.4733 128.521 88.1139 129.798 87.3998 130.96C86.7141 132.123 85.7877 133.057 84.6206 133.764C83.4819 134.442 82.2024 134.778 80.782 134.774Z" fill="#FFFDF9"/>
<path d="M184.801 172.297L184.758 171.928C184.345 168.016 184.393 164.859 184.901 162.456C185.41 160.054 186.297 158.054 187.563 156.455C188.829 154.857 190.394 153.337 192.258 151.897C193.38 151.02 194.363 150.025 195.208 148.911C196.051 147.776 196.671 146.512 197.069 145.117C197.487 143.721 197.602 142.215 197.414 140.598C197.181 138.594 196.509 136.909 195.396 135.546C194.284 134.182 192.894 133.193 191.226 132.578C189.558 131.963 187.762 131.768 185.839 131.991C184.161 132.186 182.585 132.722 181.111 133.598C179.637 134.474 178.465 135.72 177.596 137.335C176.726 138.95 176.349 140.974 176.466 143.407L168.733 144.306C168.492 140.809 169.047 137.727 170.396 135.061C171.765 132.393 173.724 130.248 176.272 128.624C178.841 126.999 181.783 125.993 185.097 125.608C188.698 125.189 191.911 125.542 194.737 126.665C197.584 127.785 199.878 129.509 201.621 131.836C203.384 134.161 204.451 136.919 204.822 140.111C205.084 142.361 204.973 144.437 204.489 146.339C204.025 148.238 203.232 149.979 202.11 151.561C201.008 153.14 199.621 154.587 197.949 155.901C196.279 157.236 194.975 158.59 194.036 159.964C193.094 161.318 192.477 162.872 192.183 164.627C191.889 166.382 191.869 168.531 192.123 171.072L192.166 171.441L184.801 172.297ZM190.841 190.008C189.327 190.184 187.965 189.792 186.754 188.834C185.544 187.876 184.851 186.64 184.675 185.126C184.499 183.612 184.89 182.25 185.848 181.039C186.807 179.829 188.043 179.136 189.557 178.96C191.071 178.784 192.433 179.175 193.643 180.133C194.854 181.091 195.547 182.328 195.723 183.842C195.839 184.844 195.69 185.794 195.277 186.693C194.883 187.589 194.297 188.341 193.517 188.95C192.756 189.536 191.864 189.889 190.841 190.008Z" fill="#FFFDF9"/>
<path d="M102.822 187.634L102.86 187.334C103.299 184.154 103.955 181.662 104.829 179.858C105.702 178.055 106.797 176.644 108.113 175.625C109.428 174.607 110.966 173.709 112.725 172.934C113.786 172.459 114.759 171.863 115.647 171.145C116.537 170.411 117.276 169.531 117.864 168.505C118.469 167.48 118.855 166.31 119.023 164.992C119.231 163.358 119.028 161.892 118.414 160.594C117.8 159.296 116.892 158.24 115.691 157.426C114.49 156.612 113.106 156.106 111.538 155.906C110.171 155.732 108.818 155.848 107.478 156.253C106.139 156.659 104.967 157.416 103.961 158.525C102.956 159.634 102.261 161.164 101.877 163.114L95.5745 162.312C96.0688 159.494 97.1114 157.161 98.7022 155.314C100.31 153.468 102.282 152.152 104.619 151.365C106.972 150.58 109.5 150.36 112.201 150.704C115.136 151.077 117.612 151.986 119.631 153.429C121.667 154.874 123.147 156.689 124.072 158.874C125.014 161.061 125.319 163.456 124.988 166.057C124.754 167.891 124.259 169.514 123.503 170.926C122.764 172.34 121.795 173.563 120.596 174.597C119.414 175.632 118.031 176.507 116.449 177.22C114.865 177.951 113.567 178.768 112.553 179.673C111.542 180.561 110.749 181.671 110.172 183.004C109.596 184.337 109.159 186.035 108.863 188.099L108.824 188.399L102.822 187.634ZM104.138 202.849C102.904 202.691 101.901 202.115 101.13 201.119C100.359 200.122 100.052 199.007 100.209 197.773C100.366 196.539 100.943 195.537 101.939 194.766C102.935 193.994 104.051 193.687 105.284 193.845C106.518 194.002 107.521 194.578 108.292 195.575C109.063 196.571 109.37 197.686 109.213 198.92C109.109 199.737 108.805 200.461 108.301 201.091C107.814 201.724 107.202 202.205 106.465 202.535C105.747 202.85 104.972 202.955 104.138 202.849Z" fill="#FFFDF9"/>
<path d="M186.102 94.3931L185.983 94.1149C184.753 91.1492 184.059 88.6676 183.901 86.6699C183.742 84.6723 183.973 82.9014 184.593 81.3572C185.213 79.8131 186.085 78.2615 187.211 76.7025C187.885 75.7565 188.424 74.7496 188.827 73.6819C189.223 72.5987 189.415 71.4656 189.404 70.2826C189.407 69.093 189.148 67.8876 188.627 66.6664C187.98 65.1515 187.063 63.9894 185.877 63.1801C184.69 62.3708 183.373 61.9189 181.926 61.8244C180.478 61.7299 179.028 61.9929 177.574 62.6135C176.307 63.1548 175.198 63.9391 174.248 64.9664C173.297 65.9938 172.669 67.24 172.362 68.7051C172.056 70.1702 172.231 71.8412 172.886 73.7181L167.043 76.2135C166.044 73.5329 165.764 70.9932 166.202 68.5947C166.655 66.1895 167.69 64.0566 169.308 62.1958C170.942 60.3285 173.011 58.8601 175.515 57.7906C178.235 56.6287 180.831 56.1596 183.303 56.3835C185.79 56.6007 187.985 57.4179 189.888 58.835C191.807 60.2456 193.281 62.1566 194.311 64.568C195.037 66.2684 195.431 67.9187 195.493 69.5189C195.57 71.1125 195.353 72.6583 194.841 74.1563C194.345 75.6477 193.595 77.1012 192.591 78.5169C191.594 79.948 190.887 81.31 190.471 82.6028C190.048 83.8802 189.924 85.2396 190.101 86.6811C190.278 88.1225 190.761 89.8083 191.548 91.7383L191.667 92.0165L186.102 94.3931ZM194.933 106.852C193.789 107.341 192.632 107.35 191.463 106.881C190.294 106.412 189.465 105.605 188.976 104.461C188.488 103.317 188.478 102.161 188.948 100.992C189.417 99.8224 190.224 98.9935 191.368 98.505C192.512 98.0165 193.668 98.0069 194.837 98.4763C196.006 98.9456 196.835 99.7523 197.324 100.896C197.647 101.654 197.751 102.432 197.635 103.231C197.535 104.023 197.251 104.747 196.782 105.405C196.322 106.04 195.706 106.522 194.933 106.852Z" fill="#FFFDF9"/>
<path d="M266.897 114.869L266.989 114.47C268.019 110.253 269.246 106.992 270.67 104.687C272.094 102.381 273.761 100.635 275.671 99.4464C277.582 98.258 279.774 97.2636 282.247 96.4632C283.739 95.9707 285.131 95.3033 286.424 94.4612C287.722 93.5969 288.838 92.515 289.771 91.2156C290.726 89.9213 291.407 88.3998 291.814 86.6512C292.32 84.482 292.249 82.482 291.602 80.6511C290.956 78.8201 289.881 77.2745 288.377 76.0141C286.874 74.7537 285.082 73.8811 283.002 73.3962C281.187 72.9733 279.35 72.9421 277.493 73.3026C275.635 73.6632 273.954 74.5198 272.448 75.8726C270.943 77.2253 269.798 79.187 269.012 81.7576L260.645 79.8079C261.699 76.0863 263.423 73.0927 265.818 70.8271C268.235 68.5667 271.07 67.0686 274.322 66.3328C277.595 65.6022 281.025 65.6547 284.611 66.4903C288.507 67.3981 291.713 68.962 294.229 71.1819C296.768 73.407 298.508 76.0529 299.45 79.1194C300.415 82.1912 300.495 85.4535 299.69 88.9065C299.123 91.3412 298.233 93.4559 297.021 95.2505C295.832 97.0502 294.359 98.5623 292.604 99.7868C290.871 101.016 288.891 102.002 286.664 102.743C284.433 103.507 282.573 104.427 281.085 105.504C279.603 106.558 278.382 107.942 277.423 109.656C276.463 111.369 275.642 113.593 274.958 116.327L274.865 116.726L266.897 114.869ZM266.566 135.514C264.928 135.133 263.659 134.219 262.76 132.772C261.86 131.326 261.601 129.783 261.983 128.145C262.364 126.507 263.278 125.239 264.725 124.339C266.171 123.439 267.714 123.18 269.351 123.562C270.989 123.944 272.258 124.858 273.158 126.304C274.058 127.751 274.317 129.293 273.935 130.931C273.682 132.015 273.174 132.947 272.409 133.725C271.666 134.509 270.776 135.072 269.74 135.414C268.731 135.739 267.673 135.772 266.566 135.514Z" fill="#FFFDF9"/>
<path d="M296.598 59.9913L296.555 59.8045C296.118 57.8172 295.961 56.1915 296.084 54.9274C296.207 53.6633 296.548 52.584 297.107 51.6895C297.665 50.795 298.383 49.9239 299.258 49.0764C299.784 48.5612 300.232 47.9929 300.603 47.3715C300.971 46.7397 301.217 46.0541 301.341 45.3147C301.476 44.5728 301.448 43.7919 301.259 42.9719C301.023 41.9547 300.581 41.1276 299.931 40.4906C299.28 39.8536 298.509 39.4251 297.616 39.205C296.723 38.985 295.789 38.9877 294.813 39.2133C293.962 39.41 293.183 39.776 292.476 40.3113C291.768 40.8465 291.238 41.5542 290.883 42.4343C290.529 43.3143 290.452 44.3764 290.652 45.6204L286.729 46.5273C286.404 44.7436 286.511 43.1278 287.051 41.6799C287.602 40.2296 288.485 39.0139 289.702 38.0329C290.929 37.0495 292.383 36.3635 294.065 35.9748C295.892 35.5525 297.564 35.5487 299.081 35.9634C300.609 36.3756 301.887 37.1298 302.917 38.2257C303.957 39.3193 304.664 40.6757 305.038 42.295C305.302 43.4367 305.365 44.5103 305.225 45.5157C305.096 46.5186 304.789 47.459 304.303 48.3367C303.827 49.2121 303.198 50.0356 302.414 50.8072C301.632 51.5892 301.04 52.3604 300.636 53.1207C300.23 53.8707 300.002 54.7052 299.952 55.6243C299.902 56.5434 300.015 57.6489 300.292 58.9408L300.335 59.1276L296.598 59.9913ZM300.722 68.7479C299.954 68.9254 299.231 68.8027 298.554 68.3797C297.876 67.9568 297.449 67.3613 297.271 66.5932C297.094 65.8251 297.217 65.1024 297.64 64.4251C298.063 63.7478 298.658 63.3204 299.426 63.1428C300.194 62.9653 300.917 63.088 301.594 63.5109C302.272 63.9339 302.699 64.5294 302.877 65.2975C302.994 65.8061 302.972 66.3032 302.811 66.7888C302.66 67.2719 302.402 67.6924 302.037 68.0503C301.679 68.3954 301.241 68.6279 300.722 68.7479Z" fill="#FFFDF9"/>
<path d="M293.702 217.265L293.801 216.903C294.889 213.076 296.126 210.131 297.51 208.069C298.894 206.006 300.482 204.464 302.273 203.441C304.064 202.419 306.106 201.584 308.399 200.936C309.783 200.537 311.081 199.973 312.295 199.247C313.514 198.5 314.573 197.548 315.473 196.39C316.392 195.237 317.069 193.867 317.503 192.279C318.041 190.31 318.045 188.475 317.516 186.776C316.987 185.076 316.056 183.623 314.722 182.417C313.389 181.21 311.778 180.349 309.889 179.833C308.241 179.382 306.56 179.29 304.846 179.556C303.132 179.822 301.562 180.549 300.136 181.736C298.71 182.923 297.593 184.68 296.784 187.008L289.188 184.933C290.282 181.56 291.965 178.878 294.237 176.885C296.529 174.898 299.177 173.624 302.182 173.062C305.206 172.506 308.346 172.673 311.602 173.562C315.139 174.529 318.021 176.072 320.25 178.193C322.498 180.319 324.001 182.802 324.758 185.644C325.535 188.491 325.495 191.482 324.639 194.617C324.035 196.828 323.147 198.734 321.975 200.336C320.823 201.944 319.422 203.278 317.772 204.339C316.141 205.405 314.294 206.239 312.229 206.842C310.158 207.464 308.423 208.242 307.023 209.177C305.628 210.092 304.462 211.318 303.524 212.854C302.586 214.39 301.756 216.399 301.035 218.88L300.937 219.242L293.702 217.265ZM292.685 236.165C291.198 235.759 290.067 234.878 289.293 233.522C288.519 232.166 288.335 230.744 288.741 229.257C289.147 227.77 290.029 226.639 291.385 225.865C292.741 225.091 294.163 224.907 295.65 225.313C297.137 225.719 298.268 226.6 299.042 227.957C299.816 229.313 300 230.734 299.593 232.221C299.324 233.206 298.826 234.042 298.099 234.729C297.391 235.421 296.557 235.906 295.596 236.183C294.66 236.446 293.69 236.44 292.685 236.165Z" fill="#FFFDF9"/>
<path d="M179.498 244.468L179.443 244.201C178.891 241.36 178.725 239.043 178.945 237.25C179.165 235.457 179.688 233.934 180.514 232.682C181.34 231.43 182.39 230.217 183.665 229.043C184.432 228.329 185.089 227.537 185.637 226.667C186.183 225.781 186.557 224.815 186.76 223.768C186.977 222.718 186.966 221.607 186.725 220.434C186.427 218.98 185.827 217.788 184.925 216.86C184.023 215.931 182.941 215.295 181.68 214.95C180.418 214.606 179.09 214.576 177.695 214.863C176.477 215.112 175.357 215.605 174.332 216.341C173.308 217.077 172.528 218.065 171.993 219.303C171.458 220.542 171.311 222.049 171.552 223.825L165.941 224.976C165.543 222.428 165.753 220.135 166.572 218.095C167.406 216.053 168.705 214.356 170.469 213.004C172.248 211.649 174.34 210.725 176.745 210.232C179.357 209.696 181.734 209.75 183.877 210.393C186.035 211.033 187.826 212.151 189.251 213.745C190.691 215.337 191.649 217.29 192.124 219.606C192.458 221.238 192.509 222.767 192.275 224.191C192.056 225.613 191.586 226.939 190.864 228.17C190.157 229.397 189.232 230.546 188.091 231.615C186.952 232.7 186.082 233.775 185.481 234.842C184.877 235.894 184.523 237.072 184.42 238.377C184.316 239.682 184.439 241.258 184.786 243.105L184.841 243.372L179.498 244.468ZM185.051 257.063C183.953 257.289 182.929 257.089 181.981 256.463C181.033 255.838 180.447 254.976 180.221 253.878C179.996 252.779 180.196 251.756 180.821 250.808C181.447 249.86 182.309 249.274 183.407 249.048C184.505 248.823 185.529 249.023 186.477 249.648C187.425 250.274 188.011 251.136 188.236 252.234C188.386 252.961 188.337 253.667 188.091 254.352C187.859 255.033 187.477 255.622 186.945 256.118C186.424 256.596 185.793 256.911 185.051 257.063Z" fill="#FFFDF9"/>
</svg>
