<svg width="111" height="71" viewBox="0 0 111 71" fill="none" xmlns="http://www.w3.org/2000/svg">
<path d="M1.11741 1.16102C0.938775 1.47773 0.973346 4.55844 1.15775 5.52008C1.79738 8.7102 3.93527 13.1499 7.20838 18.0445C11.1442 23.9352 17.0911 30.1312 24.5074 36.0738C31.238 41.4809 37.1388 45.2411 44.8779 49.0704C51.3261 52.2605 57.0483 54.6733 63.3986 56.8672C67.4208 58.2607 74.6931 60.564 75.0792 60.564C75.1541 60.564 75.1714 60.2992 75.1483 59.3894C75.1137 58.4623 75.0734 58.1283 74.9294 57.7482C74.6931 57.1436 74.1284 56.5678 73.4542 56.2223C72.6532 55.8134 67.8242 54.1032 63.3582 52.6406C57.8377 50.8382 54.4667 49.4332 48.8425 46.5943C39.1154 41.6997 31.8489 37.0009 28.0917 33.1889C27.0372 32.1063 26.167 30.9431 26.4206 30.9431C26.4551 30.9431 26.9046 31.3117 27.4175 31.7608C31.4743 35.3022 35.969 38.5096 42.1119 42.2237C46.5317 44.8956 50.3926 46.8016 55.527 48.8458C58.5696 50.0551 62.4189 51.3968 70.4404 54.0629C72.8433 54.8633 74.0938 55.0648 74.9466 54.823C76.1913 54.466 77.4187 53.6656 77.6204 53.0782C77.7069 52.8306 77.6953 52.8248 77.3496 52.7385C71.2529 51.1376 63.9863 48.5867 56.4432 45.3851C44.4687 40.2947 37.3809 36.3099 28.5181 29.6821C23.9427 26.2674 20.5025 23.3076 16.5667 19.4265C13.9275 16.8122 12.3831 15.125 9.64015 11.8427C6.09045 7.58732 3.3936 4.06898 2.35635 2.30117C1.5957 1.01706 1.34215 0.775211 1.11165 1.1783L1.11741 1.16102Z" fill="white" stroke="black" stroke-width="0.2" stroke-miterlimit="10"/>
<path d="M109.292 1.23791C109.165 1.38187 108.877 1.83102 108.629 2.23986C107.292 4.50289 102.267 10.8371 98.2276 15.3401C96.0724 17.7471 92.442 21.2884 89.4801 23.8797C84.265 28.423 77.1598 33.5595 71.3801 36.9396C67.5307 39.1969 61.9353 42.0242 57.3253 44.0454C56.7606 44.293 56.2881 44.5061 56.2708 44.5234C56.2304 44.5579 57.8324 45.3122 59.4113 46.0205L60.5638 46.5215L62.6095 45.5023C66.1189 43.746 69.8011 41.5808 74.2383 38.6383C78.2144 36.0068 80.94 33.9453 83.9308 31.3195C84.1671 31.1007 84.3745 30.9509 84.3745 30.997C84.3745 31.1525 83.8732 31.832 83.2911 32.4769C79.9431 36.2026 72.8495 40.9359 63.2492 45.865C61.5377 46.7403 61.3591 46.8497 61.5435 46.9188C63.1858 47.5407 64.6033 48.0532 65.4677 48.3411L66.5511 48.7097L68.4066 47.7307C74.9125 44.3103 79.9086 41.0914 85.4694 36.7266C89.4052 33.6286 91.8773 31.4577 95.1561 28.1812C97.5937 25.7396 98.5906 24.6571 100.273 22.6244C104.883 17.0733 108.842 10.0367 109.753 5.787C109.989 4.6814 110.087 1.8886 109.908 1.35883C109.764 0.932717 109.585 0.892414 109.297 1.23791H109.292ZM106.001 10.7046C106.001 10.7046 105.909 11.0098 105.788 11.3611C105.379 12.5703 104.111 14.7758 102.567 16.9812C99.3743 21.5418 94.0728 27.3174 91.4336 29.1198C91.1109 29.3386 90.8112 29.4941 90.7766 29.4711C90.7421 29.4365 91.8946 28.2272 93.3179 26.7877C96.7005 23.3845 98.0547 21.8931 100.17 19.2385C102.325 16.5321 103.984 14.079 105.454 11.4244C105.684 11.0156 105.897 10.6816 105.938 10.6816C105.972 10.6816 106.007 10.6873 106.007 10.7046H106.001Z" fill="white" stroke="black" stroke-width="0.2" stroke-miterlimit="10"/>
<path d="M22.2195 46.555C21.1131 46.8257 20.3121 47.4476 19.8626 48.3862C19.6264 48.8814 19.5802 49.0599 19.5572 49.8085C19.4996 51.179 19.7762 52.1003 20.4792 52.8547C20.9805 53.4017 21.6202 53.6781 22.4788 53.7299C23.6543 53.8048 24.2364 53.442 24.6686 52.3422C24.9509 51.6627 25.1468 51.6339 25.7692 52.204C26.478 52.8489 27.7976 55.158 28.7657 57.421C29.3189 58.7051 29.6416 59.7762 30.6558 63.5824C31.7449 67.6939 31.9581 68.2237 32.9896 69.2544C34.1248 70.3888 35.3638 70.838 37.1386 70.7516C39.0979 70.6594 40.2388 70.0548 40.6307 68.8859C40.9015 68.0624 40.7517 66.4155 40.3253 65.5921C39.8239 64.5959 38.2623 64.164 37.3518 64.7571C37.104 64.9184 36.9427 65.1314 36.7468 65.5403C36.6027 65.8455 36.4241 66.0931 36.3549 66.0931C36.0322 66.0931 34.8394 64.5095 34.5858 63.7264C34.2862 62.8166 34.1709 61.7455 34.1594 59.8798V58.0487L34.4302 57.4844C34.5743 57.1677 34.9143 56.684 35.1736 56.396C35.4329 56.1081 35.6404 55.8317 35.6404 55.7914C35.6404 55.7511 35.4963 55.6878 35.3234 55.6647C33.635 55.4114 32.955 55.1637 32.4076 54.5994C32.229 54.4094 31.7449 53.5975 31.2493 52.6589C30.2639 50.7586 29.6128 49.8143 28.5928 48.7835C27.3942 47.5743 26.138 46.8429 24.7435 46.5435C24.0635 46.3996 22.8015 46.3996 22.2195 46.5435V46.555Z" fill="white" stroke="black" stroke-width="0.2" stroke-miterlimit="10"/>
<path d="M85.5032 46.5637C83.9761 46.9034 82.4606 47.8938 81.2159 49.3622C80.4379 50.2893 80.0749 50.8536 79.297 52.299C78.2078 54.3317 78.0004 54.539 76.2313 55.4142C75.6666 55.6964 75.1941 55.967 75.1825 56.0073C75.1653 56.0592 75.3439 56.3586 75.5744 56.6696C75.8049 56.9805 76.0872 57.5045 76.1967 57.8212C76.3754 58.3337 76.3927 58.5353 76.3869 59.756C76.3638 62.641 75.8222 64.3857 74.5371 65.7389C74.0415 66.2572 74.0012 66.2514 73.7131 65.6353C73.2694 64.6967 72.768 64.403 71.7942 64.5009C70.9356 64.5873 70.2325 65.1458 69.9387 65.9923C69.737 66.5566 69.616 67.7544 69.7082 68.3763C69.8695 69.551 70.6013 70.265 72.0074 70.6163C72.6355 70.7717 74.5602 70.7717 75.1191 70.6163C76.6462 70.1901 78.0062 68.9636 78.6112 67.4664C78.7207 67.2016 79.0261 66.1823 79.2854 65.1919C80.5359 60.5104 80.7318 59.8021 81.0833 58.7886C81.723 56.9056 83.008 54.3029 84.0395 52.7884C84.391 52.2759 84.9615 51.7922 85.215 51.7922C85.411 51.7922 85.4859 51.9016 85.7164 52.489C86.0852 53.4161 86.7652 53.8019 87.8946 53.7328C88.6265 53.681 89.1566 53.4622 89.681 52.9727C90.4589 52.2587 90.7874 51.2625 90.7298 49.8229C90.7067 49.0916 90.6606 48.8497 90.4762 48.4524C90.0325 47.4908 89.1797 46.8113 88.1021 46.5522C87.4394 46.3967 86.212 46.3967 85.5032 46.5522V46.5637Z" fill="white" stroke="black" stroke-width="0.2" stroke-miterlimit="10"/>
<path d="M40.2396 50.4709C38.2458 51.1331 35.8198 51.9162 34.8286 52.2156C33.849 52.5208 33.0077 52.7972 32.9616 52.826C32.8348 52.9354 33.0883 53.4191 33.4917 53.8568C34.0046 54.4096 34.5751 54.6169 35.7045 54.6745C36.6669 54.7148 37.4333 54.6226 38.7471 54.3002C39.9976 53.9835 42.8615 53.0852 45.5872 52.1523C47.7193 51.421 48.2552 51.1964 47.8864 51.1964C47.7481 51.1964 45.034 49.8662 44.4289 49.5092C44.1812 49.3538 43.9507 49.2386 43.9161 49.2443C43.8815 49.2443 42.2277 49.7971 40.2338 50.4593L40.2396 50.4709Z" fill="white" stroke="black" stroke-width="0.2" stroke-miterlimit="10"/>
<path d="M45.4317 53.1774C43.2534 53.926 40.6891 54.8013 39.7268 55.1353C36.8916 56.1084 36.056 56.5921 35.6066 57.525C35.2896 58.1699 35.1225 59.5692 35.2666 60.3005C35.3357 60.6402 35.0476 60.7093 39.0064 59.4943C43.9968 57.9511 48.6587 56.3618 52.508 54.8646C53.3781 54.5249 54.1503 54.2254 54.2483 54.1909C54.3578 54.1506 54.0466 53.9778 53.0554 53.546C52.3063 53.2292 51.1826 52.711 50.5488 52.3943L49.3963 51.8242L45.4374 53.1774H45.4317Z" fill="white" stroke="black" stroke-width="0.2" stroke-miterlimit="10"/>
<path d="M20.8135 55.298C20.1163 55.4938 19.9722 56.0581 20.3352 57.1291C20.583 57.8605 20.7328 58.1772 21.1766 58.8048C21.3667 59.0697 21.4993 59.3173 21.4762 59.3404C21.3725 59.4325 20.7328 59.0352 20.4447 58.6954C20.2834 58.4996 20.0701 58.1426 19.9779 57.9065C19.8857 57.6589 19.7071 57.181 19.5803 56.8412C19.4536 56.5015 19.2576 56.1099 19.1481 55.9717C18.8254 55.5974 18.2607 55.4189 17.4079 55.4247C15.8981 55.442 15.6215 55.989 16.0767 58.0102C16.4916 59.8125 16.8662 60.6129 17.7018 61.4652C18.4912 62.2541 18.8197 62.4095 20.0471 62.519C22.064 62.6975 27.9705 62.5535 28.4719 62.3232C29.2902 61.9374 29.1807 60.0659 28.2356 58.1369C27.4577 56.5648 26.6106 55.4535 26.0574 55.321C25.9364 55.2865 25.6425 55.2865 25.4005 55.3038C24.2595 55.4132 24.2941 56.5648 25.4869 58.3269C25.775 58.7588 25.9882 59.1158 25.9479 59.1158C25.8096 59.1158 25.2161 58.6493 24.9164 58.3096C24.4842 57.8086 24.173 57.2904 23.9195 56.6167C23.6198 55.8335 23.326 55.5168 22.7036 55.3383C22.1677 55.1943 21.2918 55.1656 20.8193 55.298H20.8135Z" fill="white" stroke="black" stroke-width="0.2" stroke-miterlimit="10"/>
<path d="M87.5149 55.3738C86.9502 55.5638 86.6563 55.8863 86.4603 56.5082C86.2414 57.2164 85.838 57.8211 85.1926 58.4487C84.8584 58.7712 84.5645 59.0361 84.5184 59.0361C84.4838 59.0361 84.6048 58.8173 84.7892 58.5409C85.5038 57.4871 85.8553 56.4103 85.6939 55.7653C85.5729 55.2701 84.6106 55.1262 83.971 55.5004C83.3486 55.869 82.1846 57.7117 81.7293 59.0418C81.2338 60.4987 81.1992 61.6388 81.6371 62.1225C81.8388 62.3529 81.9252 62.3874 82.6225 62.445C84.0516 62.5832 89.0189 62.635 90.1541 62.5314C91.4507 62.4105 91.7618 62.278 92.5455 61.5122C93.2543 60.8039 93.7211 59.8883 94.0784 58.4718C94.5567 56.5715 94.4875 55.8517 93.8248 55.558C93.3408 55.345 92.0788 55.3795 91.6293 55.6099C91.0646 55.8978 91.0185 55.9957 90.3616 57.7808C90.1484 58.3681 89.2725 59.2894 88.9325 59.2894C88.9094 59.2894 89.0362 59.0533 89.2206 58.7539C89.7162 57.9708 90.1599 56.7558 90.1599 56.203C90.1599 55.8344 90.1195 55.7077 89.9697 55.5753C89.5548 55.1895 88.3447 55.0916 87.5149 55.3795V55.3738Z" fill="white" stroke="black" stroke-width="0.2" stroke-miterlimit="10"/>
<path d="M11.3578 55.5099C10.5165 55.6653 9.6521 56.1318 9.11042 56.7364C7.89453 58.0896 7.66979 60.9688 8.64942 62.7999C9.55413 64.5044 11.5537 65.5927 13.2767 65.3221C14.3313 65.1608 15.7027 64.251 16.5498 63.1627C16.9935 62.5811 17.1318 62.2932 17.0454 62.0744C16.9705 61.8844 16.7227 61.988 16.2098 62.4141C15.4088 63.0763 15.1034 63.2203 14.3716 63.2721C13.6225 63.3239 13.1096 63.2145 12.8215 62.9496C12.47 62.6272 12.6025 62.4487 13.513 62.0053C14.9017 61.3431 15.4204 60.6118 15.5126 59.2125C15.6221 57.698 14.8729 56.316 13.6397 55.7575C13.2076 55.5617 12.9771 55.5214 12.3432 55.5041C11.9283 55.4984 11.4846 55.5041 11.3636 55.5214L11.3578 55.5099Z" fill="white" stroke="black" stroke-width="0.2" stroke-miterlimit="10"/>
<path d="M97.1145 55.5495C95.3282 55.9641 94.3024 58.1465 94.9363 60.1907C95.0919 60.6744 95.1899 60.8472 95.6336 61.2906C96.0485 61.7052 96.3078 61.8722 96.8667 62.1083C97.2586 62.2695 97.5986 62.448 97.6332 62.5171C97.7023 62.6899 97.2932 63.0123 96.8725 63.1217C96.6766 63.1736 96.1983 63.2139 95.8064 63.2139C94.9651 63.2139 94.7 63.0929 93.9682 62.4365C93.6801 62.1831 93.415 62.0104 93.3286 62.0277C93.0923 62.068 93.0923 62.5459 93.3286 63.0584C93.9106 64.2849 95.1956 65.1084 96.8898 65.3214C99.1372 65.6093 101.143 64.2331 101.961 61.8376C102.191 61.1812 102.191 59.1312 101.961 58.3884C101.494 56.8567 100.589 55.9526 99.1429 55.5783C98.5955 55.4401 97.6332 55.4228 97.1145 55.5438V55.5495Z" fill="white" stroke="black" stroke-width="0.2" stroke-miterlimit="10"/>
</svg>
