<svg width="363" height="220" viewBox="0 0 363 220" fill="none" xmlns="http://www.w3.org/2000/svg">
<path d="M39.1323 20.5624C38.9568 20.9075 39.1354 24.1832 39.3758 25.1977C40.203 28.5619 42.6815 33.1865 46.3886 38.2427C50.8465 44.3283 57.4579 50.6459 65.6208 56.6265C73.0296 62.0689 79.4798 65.7975 87.8888 69.515C94.8952 72.612 101.093 74.9154 107.95 76.9572C112.293 78.2546 120.135 80.3703 120.546 80.3525C120.625 80.3491 120.632 80.0665 120.565 79.0997C120.486 78.115 120.427 77.7616 120.257 77.3639C119.978 76.7316 119.35 76.145 118.617 75.8085C117.746 75.4104 112.531 73.8132 107.712 72.4628C101.757 70.7994 98.106 69.4598 91.9924 66.6986C81.4195 61.9392 73.4733 57.275 69.301 53.3926C68.1294 52.2895 67.1502 51.0921 67.4199 51.0804C67.4567 51.0789 67.9518 51.4502 68.5181 51.9044C72.9966 55.4851 77.9257 58.6904 84.6313 62.3588C89.4561 64.9978 93.6509 66.8478 99.207 68.7862C102.499 69.9326 106.656 71.1828 115.312 73.65C117.905 74.3909 119.244 74.5478 120.141 74.2513C121.448 73.8142 122.717 72.9063 122.905 72.2722C122.985 72.0048 122.973 71.9992 122.601 71.9232C116.042 70.5007 108.194 68.1214 100.022 65.0625C87.0498 60.1983 79.3264 56.2854 69.5933 49.6424C64.5689 46.2204 60.773 43.23 56.4076 39.2824C53.4797 36.6227 51.7592 34.8989 48.6902 31.5335C44.7183 27.1699 41.6875 23.5511 40.5027 21.7183C39.6345 20.3872 39.3536 20.1416 39.127 20.581L39.1323 20.5624Z" fill="#FFFDF9" fill-opacity="0.1" stroke="#333333" stroke-opacity="0.1" stroke-width="0.8" stroke-miterlimit="10"/>
<path d="M154.212 15.6679C154.084 15.8268 153.798 16.3179 153.553 16.7642C152.235 19.2331 147.181 26.2026 143.091 31.1788C140.909 33.8385 137.21 37.7728 134.178 40.6656C128.839 45.7387 121.517 51.5298 115.524 55.3915C111.533 57.9698 105.711 61.235 100.9 63.5972C100.31 63.8866 99.8174 64.135 99.7998 64.1542C99.7584 64.1928 101.497 64.9215 103.21 65.6024L104.459 66.0823L106.588 64.9039C110.24 62.8741 114.058 60.4014 118.643 57.0671C122.752 54.0847 125.556 51.7663 128.617 48.8354C128.858 48.5917 129.072 48.4229 129.074 48.4719C129.081 48.6373 128.579 49.3832 127.99 50.0961C124.6 54.2134 117.271 59.5751 107.285 65.2604C105.505 66.2703 105.32 66.3948 105.519 66.4599C107.295 67.0459 108.826 67.5259 109.759 67.7924L110.929 68.1346L112.857 67.0079C119.621 63.0699 124.788 59.4157 130.502 54.5166C134.547 51.0399 137.077 48.6168 140.414 44.9804C142.895 42.271 143.906 41.0735 145.602 38.8337C150.251 32.7164 154.138 25.0486 154.912 20.486C155.112 19.299 155.088 16.3235 154.873 15.7681C154.7 15.3215 154.509 15.2868 154.218 15.6676L154.212 15.6679ZM151.147 25.8899C151.147 25.8899 151.063 26.2188 150.95 26.5981C150.571 27.9033 149.324 30.3078 147.782 32.725C144.596 37.7234 139.222 44.1114 136.497 46.1502C136.164 46.3978 135.852 46.577 135.815 46.554C135.776 46.5189 136.947 45.1795 138.394 43.5825C141.836 39.8066 143.208 38.1578 145.336 35.2365C147.504 32.2583 149.157 29.5724 150.598 26.6808C150.824 26.2353 151.036 25.8702 151.079 25.8683C151.115 25.8667 151.152 25.8713 151.153 25.8896L151.147 25.8899Z" fill="#FFFDF9" fill-opacity="0.1" stroke="#333333" stroke-opacity="0.1" stroke-width="0.8" stroke-miterlimit="10"/>
<path d="M63.6687 67.8803C62.5042 68.2191 61.6807 68.9175 61.2458 69.9367C61.0172 70.4743 60.9764 70.6664 60.9863 71.4638C60.988 72.9243 61.3247 73.8917 62.1073 74.6619C62.6657 75.2207 63.3589 75.4853 64.2747 75.501C65.5287 75.5265 66.1311 75.1138 66.5403 73.9239C66.8094 73.1881 67.0165 73.1485 67.7048 73.7263C68.4885 74.3797 69.9985 76.7754 71.1325 79.1383C71.7801 80.4789 72.1726 81.6034 73.4266 85.6059C74.7744 89.9295 75.0256 90.4833 76.1703 91.5323C77.4301 92.6869 78.7688 93.1077 80.6529 92.9341C82.7329 92.746 83.9188 92.0503 84.2819 90.7887C84.5321 89.9003 84.297 88.1552 83.8055 87.2989C83.2263 86.2622 81.5452 85.8746 80.6039 86.5475C80.3477 86.7304 80.1859 86.9644 79.9963 87.4084C79.8571 87.7397 79.6784 88.0113 79.6049 88.0145C79.2616 88.0293 77.9198 86.3996 77.614 85.5782C77.2534 84.6241 77.0815 83.49 76.9834 81.5058L76.8992 79.5579L77.1613 78.9451C77.3 78.6015 77.6394 78.0713 77.9021 77.7531C78.1647 77.4349 78.3726 77.1313 78.3708 77.0885C78.3689 77.0456 78.2128 76.9848 78.0278 76.9683C76.22 76.7764 75.4853 76.5443 74.8769 75.9692C74.6782 75.7752 74.1259 74.9338 73.5555 73.9581C72.4198 71.9819 71.6837 71.0073 70.5512 69.9577C69.2205 68.7264 67.8505 68.0063 66.3532 67.7519C65.6232 67.63 64.2807 67.6881 63.6682 67.868L63.6687 67.8803Z" fill="#FFFDF9" fill-opacity="0.1" stroke="#333333" stroke-opacity="0.1" stroke-width="0.8" stroke-miterlimit="10"/>
<path d="M130.991 64.9785C129.383 65.4102 127.816 66.5335 126.559 68.1528C125.774 69.1749 125.414 69.7919 124.653 71.3652C123.588 73.5777 123.377 73.8078 121.535 74.8203C120.947 75.1464 120.457 75.4561 120.447 75.4995C120.431 75.5554 120.635 75.8657 120.894 76.1859C121.154 76.5061 121.478 77.0505 121.609 77.3824C121.823 77.9194 121.85 78.133 121.9 79.4319C122.009 82.502 121.513 84.383 120.208 85.8816C119.705 86.4557 119.661 86.4515 119.327 85.8093C118.811 84.8312 118.265 84.5418 117.233 84.6908C116.324 84.8222 115.601 85.4487 115.328 86.3627C115.139 86.9723 115.066 88.252 115.192 88.9094C115.418 90.1516 116.229 90.8775 117.741 91.1865C118.417 91.323 120.464 91.2344 121.051 91.0433C122.656 90.5198 124.047 89.1524 124.621 87.5319C124.726 87.2451 125.004 86.1468 125.234 85.0812C126.349 80.0435 126.525 79.281 126.852 78.1867C127.446 76.1542 128.693 73.3262 129.721 71.6677C130.071 71.1064 130.656 70.5656 130.925 70.5539C131.134 70.5449 131.219 70.6578 131.491 71.272C131.926 72.2413 132.667 72.6205 133.865 72.495C134.641 72.4062 135.195 72.149 135.731 71.6042C136.525 70.8088 136.829 69.734 136.701 68.2052C136.643 67.4283 136.583 67.1731 136.369 66.7589C135.852 65.7564 134.914 65.0728 133.756 64.8467C133.043 64.7118 131.738 64.7682 130.991 64.9662L130.991 64.9785Z" fill="#FFFDF9" fill-opacity="0.1" stroke="#333333" stroke-opacity="0.1" stroke-width="0.8" stroke-miterlimit="10"/>
<path d="M83.0193 71.2186C80.9287 72.0148 78.384 72.9595 77.3434 73.3237C76.3153 73.6934 75.433 74.0261 75.3853 74.0589C75.2555 74.1811 75.5474 74.684 75.9967 75.131C76.5677 75.6955 77.1841 75.8898 78.3883 75.8991C79.4139 75.8977 80.2249 75.7644 81.6078 75.3609C82.9234 74.9665 85.9288 73.8791 88.7854 72.7613C91.0199 71.8853 91.5797 71.6217 91.1874 71.6387C91.0403 71.645 88.0918 70.3549 87.4317 70.0029C87.1609 69.8489 86.9104 69.737 86.8739 69.7447C86.8371 69.7463 85.1032 70.4105 83.0126 71.2067L83.0193 71.2186Z" fill="#FFFDF9" fill-opacity="0.1" stroke="#333333" stroke-opacity="0.1" stroke-width="0.8" stroke-miterlimit="10"/>
<path d="M88.6677 73.8581C86.385 74.7547 83.6973 75.8038 82.6889 76.2034C79.7177 77.369 78.8511 77.922 78.4158 78.9351C78.1084 79.6357 77.995 81.132 78.1819 81.9033C78.271 82.2616 77.9677 82.3483 82.1232 80.8737C87.3609 79.0024 92.2471 77.0972 96.2732 75.3274C97.1832 74.926 97.9909 74.5719 98.0935 74.5307C98.2081 74.4827 97.8691 74.3133 96.7949 73.8994C95.9834 73.597 94.7642 73.0974 94.0753 72.7896L92.823 72.2362L88.6738 73.8579L88.6677 73.8581Z" fill="#FFFDF9" fill-opacity="0.1" stroke="#333333" stroke-opacity="0.1" stroke-width="0.8" stroke-miterlimit="10"/>
<path d="M62.5762 77.2472C61.8435 77.4876 61.7162 78.0945 62.1516 79.2172C62.4489 79.9838 62.6228 80.3138 63.1237 80.9611C63.3382 81.2341 63.4906 81.4914 63.4671 81.517C63.361 81.6198 62.6623 81.2265 62.3402 80.8784C62.1595 80.6775 61.9163 80.3075 61.8073 80.0606C61.6979 79.8015 61.4858 79.3012 61.3353 78.9457C61.1848 78.5901 60.9584 78.1825 60.8356 78.0406C60.4751 77.6572 59.8661 77.4933 58.9591 77.5387C57.3538 77.6265 57.0847 78.2212 57.662 80.3504C58.1863 82.2486 58.6216 83.0829 59.5497 83.951C60.4258 84.7539 60.7823 84.9042 62.0931 84.9641C64.2469 85.0612 70.5236 84.6364 71.0463 84.3683C71.8991 83.9202 71.6965 81.9344 70.6024 79.9257C69.7025 78.2892 68.7503 77.1459 68.1557 77.0305C68.0254 76.9993 67.7127 77.0128 67.4561 77.0423C66.2473 77.2112 66.3371 78.4348 67.6871 80.2543C68.0135 80.7005 68.2567 81.0705 68.2138 81.0724C68.0667 81.0787 67.4138 80.6098 67.0794 80.2622C66.5966 79.7492 66.2417 79.2122 65.941 78.5071C65.5862 77.6878 65.259 77.3644 64.5887 77.2032C64.012 77.0747 63.0789 77.0843 62.5823 77.247L62.5762 77.2472Z" fill="#FFFDF9" fill-opacity="0.1" stroke="#333333" stroke-opacity="0.1" stroke-width="0.8" stroke-miterlimit="10"/>
<path d="M133.535 74.2587C132.943 74.4869 132.646 74.8434 132.466 75.514C132.265 76.2775 131.864 76.9393 131.206 77.6367C130.866 77.9951 130.565 78.2904 130.516 78.2926C130.479 78.2941 130.598 78.0558 130.782 77.7533C131.493 76.5994 131.818 75.4377 131.616 74.7591C131.465 74.2378 130.434 74.1289 129.771 74.5565C129.126 74.9772 127.973 76.991 127.55 78.427C127.089 79.9996 127.105 81.2141 127.593 81.7085C127.818 81.9442 127.912 81.977 128.656 82.0062C130.183 82.0875 135.469 81.9141 136.672 81.7516C138.046 81.5633 138.371 81.4081 139.169 80.5573C139.891 79.7712 140.345 78.7758 140.66 77.2524C141.082 75.2089 140.975 74.4464 140.256 74.1645C139.732 73.9601 138.391 74.0549 137.923 74.3206C137.336 74.6529 137.291 74.7591 136.674 76.6883C136.475 77.3229 135.585 78.3434 135.224 78.359C135.199 78.3601 135.323 78.1031 135.505 77.7761C135.997 76.9202 136.413 75.6072 136.387 75.0191C136.37 74.6271 136.322 74.4942 136.156 74.3602C135.697 73.9689 134.405 73.9204 133.536 74.2649L133.535 74.2587Z" fill="#FFFDF9" fill-opacity="0.1" stroke="#333333" stroke-opacity="0.1" stroke-width="0.8" stroke-miterlimit="10"/>
<path d="M52.5266 77.9064C51.6387 78.1105 50.7407 78.6465 50.1923 79.3146C48.9611 80.8101 48.8544 83.8833 49.9808 85.7862C51.0217 87.5578 53.1989 88.6235 55.0194 88.2563C56.1338 88.0363 57.5509 87.0053 58.4019 85.8086C58.8472 85.1695 58.9811 84.8569 58.8791 84.6281C58.7906 84.4294 58.5318 84.551 58.0058 85.0279C57.1842 85.7692 56.8659 85.9364 56.0898 86.0252C55.2952 86.1148 54.7446 86.022 54.4259 85.7535C54.0372 85.4266 54.1699 85.2306 55.1181 84.7171C56.565 83.9487 57.0831 83.1469 57.1168 81.6541C57.1636 80.038 56.3031 78.6023 54.9655 78.0648C54.4968 77.8764 54.2497 77.8442 53.5746 77.8549C53.1329 77.8679 52.6612 77.8944 52.5333 77.9184L52.5266 77.9064Z" fill="#FFFDF9" fill-opacity="0.1" stroke="#333333" stroke-opacity="0.1" stroke-width="0.8" stroke-miterlimit="10"/>
<path d="M143.755 74.0045C141.874 74.5278 140.883 76.8966 141.651 79.0421C141.839 79.5495 141.951 79.7288 142.444 80.18C142.904 80.602 143.188 80.7677 143.793 80.9931C144.218 81.1466 144.587 81.3209 144.627 81.3928C144.709 81.5734 144.289 81.9353 143.846 82.071C143.64 82.1351 143.133 82.2 142.716 82.2181C141.821 82.2568 141.534 82.1403 140.725 81.4756C140.407 81.2194 140.117 81.0478 140.026 81.0702C139.776 81.1239 139.798 81.6323 140.073 82.1667C140.749 83.4447 142.154 84.2615 143.966 84.4102C146.37 84.6131 148.44 83.0568 149.2 80.4709C149.415 79.7619 149.321 77.5812 149.041 76.8016C148.474 75.1936 147.47 74.2735 145.914 73.9419C145.326 73.82 144.301 73.8459 143.755 73.9984L143.755 74.0045Z" fill="#FFFDF9" fill-opacity="0.1" stroke="#333333" stroke-opacity="0.1" stroke-width="0.8" stroke-miterlimit="10"/>
<path d="M281.981 134.527C281.778 134.719 281.099 136.991 281.015 137.739C280.757 140.23 281.314 143.98 282.601 148.325C284.148 153.552 287.103 159.464 291.196 165.524C294.907 171.035 298.385 175.145 303.197 179.727C307.207 183.544 310.861 186.623 315.027 189.686C317.664 191.628 322.482 194.982 322.766 195.07C322.821 195.087 322.894 194.896 323.085 194.222C323.271 193.533 323.318 193.279 323.299 192.967C323.263 192.468 322.98 191.916 322.563 191.508C322.068 191.025 318.91 188.665 315.962 186.571C312.317 183.985 310.161 182.183 306.676 178.813C300.646 172.994 296.379 167.882 294.489 164.223C293.961 163.186 293.587 162.133 293.774 162.191C293.799 162.199 294.045 162.572 294.32 163.019C296.492 166.548 299.062 169.932 302.728 174.064C305.366 177.037 307.768 179.319 311.074 181.994C313.034 183.577 315.556 185.442 320.842 189.233C322.425 190.37 323.298 190.804 323.979 190.821C324.976 190.843 326.06 190.535 326.343 190.149C326.463 189.987 326.456 189.98 326.221 189.838C322.107 187.269 317.35 183.735 312.538 179.66C304.901 173.184 300.602 168.638 295.603 161.743C293.021 158.189 291.169 155.228 289.163 151.477C287.82 148.954 287.071 147.361 285.805 144.323C284.168 140.385 282.99 137.184 282.631 135.648C282.365 134.53 282.234 134.295 281.973 134.538L281.981 134.527Z" fill="#FFFDF9" fill-opacity="0.1" stroke="#333333" stroke-opacity="0.1" stroke-width="0.8" stroke-miterlimit="10"/>
<path d="M361.456 159.288C361.33 159.365 361.015 159.629 360.74 159.873C359.241 161.231 354.102 164.738 350.105 167.124C347.971 168.401 344.495 170.174 341.726 171.402C336.857 173.549 330.462 175.701 325.443 176.865C322.099 177.645 317.342 178.445 313.492 178.877C313.021 178.93 312.625 178.979 312.608 178.988C312.571 179.004 313.576 179.924 314.574 180.805L315.307 181.436L317.043 181.155C320.023 180.665 323.223 179.915 327.156 178.766C330.678 177.741 333.152 176.848 335.95 175.602C336.173 175.495 336.36 175.432 336.349 175.466C336.314 175.58 335.79 175.965 335.215 176.306C331.904 178.279 325.61 180.138 317.43 181.567C315.972 181.82 315.816 181.859 315.936 181.952C317.001 182.784 317.925 183.485 318.495 183.893L319.207 184.412L320.794 184.116C326.356 183.088 330.762 181.864 335.845 179.926C339.445 178.549 341.757 177.518 344.915 175.859C347.264 174.622 348.244 174.054 349.944 172.944C354.6 169.918 359.116 165.651 360.756 162.736C361.182 161.978 361.891 159.948 361.881 159.518C361.873 159.172 361.751 159.101 361.46 159.289L361.456 159.288ZM356.876 165.493C356.876 165.493 356.738 165.696 356.569 165.927C355.992 166.722 354.557 168.053 352.919 169.321C349.531 171.943 344.316 174.977 341.965 175.699C341.678 175.786 341.422 175.832 341.402 175.807C341.385 175.773 342.508 175.148 343.883 174.415C347.145 172.687 348.481 171.9 350.642 170.432C352.843 168.936 354.623 167.512 356.309 165.897C356.572 165.649 356.805 165.452 356.834 165.462C356.86 165.47 356.884 165.482 356.88 165.494L356.876 165.493Z" fill="#FFFDF9" fill-opacity="0.1" stroke="#333333" stroke-opacity="0.1" stroke-width="0.8" stroke-miterlimit="10"/>
<path d="M287.121 172.702C286.246 172.649 285.516 172.923 284.971 173.51C284.684 173.82 284.61 173.94 284.422 174.485C284.066 175.479 284.059 176.219 284.404 176.934C284.647 177.451 285.054 177.8 285.673 178.034C286.52 178.358 287.03 178.224 287.599 177.514C287.962 177.079 288.112 177.103 288.439 177.664C288.813 178.3 289.255 180.298 289.45 182.182C289.563 183.252 289.556 184.113 289.432 187.142C289.293 190.412 289.329 190.85 289.852 191.843C290.427 192.935 291.235 193.548 292.559 193.89C294.019 194.27 294.996 194.086 295.551 193.317C295.938 192.773 296.204 191.529 296.078 190.827C295.938 189.98 294.889 189.306 294.084 189.534C293.865 189.596 293.698 189.716 293.461 189.971C293.285 190.163 293.097 190.304 293.046 190.288C292.809 190.214 292.294 188.778 292.287 188.145C292.275 187.408 292.434 186.594 292.852 185.221L293.27 183.875L293.598 183.522C293.776 183.323 294.137 183.045 294.393 182.892C294.649 182.74 294.865 182.584 294.874 182.555C294.883 182.525 294.792 182.446 294.67 182.389C293.487 181.817 293.044 181.48 292.771 180.94C292.683 180.76 292.512 180.053 292.363 179.25C292.073 177.628 291.81 176.786 291.296 175.795C290.691 174.633 289.935 173.809 288.978 173.27C288.512 173.009 287.584 172.721 287.124 172.694L287.121 172.702Z" fill="#FFFDF9" fill-opacity="0.1" stroke="#333333" stroke-opacity="0.1" stroke-width="0.8" stroke-miterlimit="10"/>
<path d="M333.624 187.162C332.424 187.063 331.085 187.444 329.835 188.239C329.051 188.743 328.656 189.074 327.754 189.959C326.489 191.204 326.289 191.309 324.79 191.548C324.31 191.626 323.901 191.717 323.883 191.744C323.859 191.778 323.922 192.039 324.02 192.32C324.118 192.602 324.206 193.051 324.214 193.309C324.229 193.726 324.195 193.878 323.912 194.774C323.237 196.889 322.44 198.047 321.187 198.748C320.704 199.016 320.676 199.002 320.605 198.484C320.493 197.693 320.192 197.362 319.454 197.212C318.803 197.079 318.159 197.329 317.75 197.884C317.473 198.253 317.11 199.105 317.036 199.583C316.886 200.483 317.261 201.175 318.214 201.754C318.64 202.012 320.054 202.452 320.501 202.465C321.72 202.501 322.999 201.91 323.786 200.948C323.927 200.778 324.384 200.099 324.801 199.431C326.789 196.276 327.095 195.8 327.584 195.136C328.484 193.898 330.023 192.279 331.127 191.402C331.502 191.105 332.032 190.88 332.218 190.938C332.362 190.983 332.392 191.08 332.428 191.564C332.487 192.33 332.899 192.769 333.744 192.976C334.294 193.105 334.733 193.065 335.231 192.825C335.965 192.478 336.434 191.821 336.721 190.75C336.871 190.208 336.892 190.019 336.847 189.685C336.741 188.877 336.269 188.183 335.537 187.747C335.085 187.481 334.183 187.201 333.627 187.153L333.624 187.162Z" fill="#FFFDF9" fill-opacity="0.1" stroke="#333333" stroke-opacity="0.1" stroke-width="0.8" stroke-miterlimit="10"/>
<path d="M299.469 179.697C297.853 179.728 295.891 179.75 295.094 179.743C294.305 179.744 293.624 179.755 293.583 179.766C293.465 179.817 293.541 180.23 293.737 180.644C293.988 181.167 294.36 181.45 295.177 181.75C295.875 182 296.459 182.107 297.498 182.17C298.489 182.223 300.799 182.217 303.015 182.154C304.749 182.103 305.194 182.061 304.923 181.977C304.821 181.945 303.13 180.348 302.767 179.947C302.621 179.776 302.478 179.639 302.451 179.635C302.426 179.627 301.084 179.656 299.468 179.687L299.469 179.697Z" fill="#FFFDF9" fill-opacity="0.1" stroke="#333333" stroke-opacity="0.1" stroke-width="0.8" stroke-miterlimit="10"/>
<path d="M302.667 182.871C300.895 182.923 298.811 182.981 298.028 183.007C295.722 183.074 294.997 183.239 294.454 183.822C294.074 184.223 293.632 185.213 293.57 185.784C293.544 186.049 293.316 186.034 296.503 186.045C300.522 186.051 304.311 185.948 307.482 185.727C308.199 185.676 308.834 185.632 308.914 185.629C309.004 185.624 308.815 185.426 308.185 184.883C307.707 184.479 307 183.841 306.606 183.464L305.889 182.782L302.671 182.872L302.667 182.871Z" fill="#FFFDF9" fill-opacity="0.1" stroke="#333333" stroke-opacity="0.1" stroke-width="0.8" stroke-miterlimit="10"/>
<path d="M284.092 178.808C283.535 178.793 283.3 179.174 283.323 180.044C283.338 180.638 283.375 180.905 283.558 181.468C283.637 181.706 283.678 181.918 283.656 181.93C283.559 181.974 283.179 181.536 283.045 181.22C282.971 181.04 282.896 180.729 282.882 180.534C282.871 180.331 282.849 179.939 282.834 179.66C282.818 179.382 282.763 179.049 282.715 178.923C282.563 178.574 282.189 178.314 281.561 178.123C280.447 177.791 280.119 178.13 279.992 179.719C279.885 181.138 279.978 181.812 280.397 182.629C280.797 183.389 281.003 183.579 281.88 183.939C283.321 184.531 287.695 185.774 288.116 185.719C288.805 185.623 289.152 184.222 288.898 182.589C288.685 181.256 288.317 180.246 287.94 180.022C287.859 179.969 287.643 179.902 287.462 179.86C286.598 179.68 286.361 180.534 286.835 182.101C286.948 182.484 287.023 182.795 286.993 182.786C286.892 182.754 286.562 182.276 286.419 181.958C286.216 181.491 286.106 181.039 286.073 180.486C286.032 179.842 285.888 179.543 285.472 179.269C285.111 179.041 284.474 178.82 284.096 178.809L284.092 178.808Z" fill="#FFFDF9" fill-opacity="0.1" stroke="#333333" stroke-opacity="0.1" stroke-width="0.8" stroke-miterlimit="10"/>
<path d="M333.089 194.096C332.631 194.106 332.341 194.276 332.055 194.689C331.732 195.159 331.298 195.511 330.68 195.825C330.361 195.986 330.085 196.113 330.051 196.103C330.025 196.095 330.164 195.962 330.363 195.801C331.129 195.189 331.633 194.478 331.662 193.968C331.686 193.576 331.011 193.251 330.456 193.38C329.914 193.508 328.638 194.596 328 195.47C327.303 196.427 327.017 197.257 327.229 197.713C327.324 197.928 327.38 197.973 327.879 198.175C328.898 198.603 332.536 199.775 333.394 199.958C334.374 200.165 334.633 200.139 335.384 199.755C336.067 199.397 336.619 198.831 337.205 197.871C337.99 196.584 338.104 196.039 337.684 195.672C337.377 195.405 336.442 195.142 336.059 195.209C335.578 195.291 335.522 195.353 334.631 196.515C334.34 196.898 333.486 197.375 333.237 197.297C333.22 197.292 333.367 197.147 333.571 196.969C334.114 196.507 334.717 195.715 334.843 195.309C334.928 195.038 334.927 194.936 334.847 194.804C334.63 194.426 333.763 194.078 333.088 194.1L333.089 194.096Z" fill="#FFFDF9" fill-opacity="0.1" stroke="#333333" stroke-opacity="0.1" stroke-width="0.8" stroke-miterlimit="10"/>
<path d="M277.095 176.803C276.441 176.725 275.7 176.871 275.163 177.191C273.961 177.908 273.138 179.973 273.44 181.542C273.715 183.001 274.936 184.257 276.264 184.452C277.076 184.574 278.292 184.219 279.163 183.613C279.622 183.287 279.789 183.107 279.775 182.926C279.764 182.769 279.558 182.789 279.084 182.985C278.344 183.289 278.087 183.325 277.537 183.196C276.975 183.063 276.623 182.865 276.472 182.605C276.287 182.287 276.425 182.187 277.195 182.069C278.367 181.899 278.915 181.48 279.303 180.473C279.729 179.385 279.494 178.199 278.715 177.506C278.442 177.264 278.282 177.182 277.82 177.024C277.517 176.925 277.189 176.828 277.097 176.813L277.095 176.803Z" fill="#FFFDF9" fill-opacity="0.1" stroke="#333333" stroke-opacity="0.1" stroke-width="0.8" stroke-miterlimit="10"/>
<path d="M340.102 196.417C338.695 196.314 337.443 197.683 337.442 199.33C337.446 199.721 337.478 199.87 337.703 200.298C337.913 200.697 338.066 200.879 338.423 201.18C338.674 201.388 338.883 201.597 338.892 201.656C338.904 201.798 338.529 201.942 338.195 201.926C338.04 201.919 337.679 201.84 337.391 201.75C336.773 201.558 336.606 201.409 336.218 200.759C336.064 200.507 335.908 200.32 335.841 200.313C335.658 200.288 335.549 200.64 335.606 201.07C335.753 202.104 336.509 203.003 337.706 203.547C339.291 204.271 341.079 203.718 342.228 202.145C342.547 201.715 343.015 200.208 343.015 199.61C343.022 198.378 342.564 197.507 341.586 196.901C341.216 196.675 340.513 196.442 340.104 196.413L340.102 196.417Z" fill="#FFFDF9" fill-opacity="0.1" stroke="#333333" stroke-opacity="0.1" stroke-width="0.8" stroke-miterlimit="10"/>
<path d="M285.657 10.0073C285.614 10.1437 285.881 11.325 286.031 11.6795C286.539 12.8531 287.725 14.384 289.385 15.9964C291.382 17.9373 294.177 19.8303 297.516 21.5051C300.547 23.0305 303.124 23.9911 306.413 24.8271C309.154 25.5236 311.551 25.9809 314.172 26.3025C315.833 26.5077 318.817 26.7956 318.966 26.7638C318.994 26.7577 318.979 26.6545 318.896 26.3066C318.806 25.9531 318.763 25.8281 318.677 25.6938C318.536 25.4808 318.272 25.3059 317.984 25.2285C317.643 25.1372 315.646 24.8765 313.809 24.6812C311.54 24.442 310.128 24.1788 307.733 23.5497C303.593 22.4675 300.413 21.2584 298.656 20.1018C298.162 19.7723 297.732 19.3967 297.829 19.3759C297.843 19.3731 298.046 19.4778 298.28 19.6083C300.13 20.6362 302.121 21.4998 304.787 22.4227C306.706 23.0866 308.346 23.5021 310.488 23.866C311.756 24.0808 313.346 24.2803 316.648 24.6461C317.638 24.7563 318.135 24.7311 318.443 24.568C318.892 24.3286 319.298 23.9201 319.327 23.6778C319.34 23.5755 319.335 23.5742 319.195 23.5694C316.72 23.455 313.718 23.0714 310.556 22.4605C305.535 21.4877 302.483 20.5383 298.532 18.7189C296.493 17.7823 294.927 16.9272 293.096 15.7588C291.867 14.9708 291.134 14.4491 289.81 13.4129C288.096 12.0688 286.771 10.9381 286.227 10.3438C285.829 9.9127 285.712 9.84057 285.656 10.0144L285.657 10.0073Z" fill="#FFFDF9" fill-opacity="0.1" stroke="#333333" stroke-opacity="0.1" stroke-width="0.8" stroke-miterlimit="10"/>
<path d="M327.243 1.15037C327.206 1.21612 327.132 1.41243 327.07 1.58993C326.742 2.56959 325.331 5.41705 324.148 7.47972C323.518 8.58194 322.413 10.2414 321.488 11.4807C319.856 13.6554 317.547 16.2134 315.604 17.9875C314.309 19.1713 312.391 20.7177 310.785 21.8733C310.588 22.0149 310.424 22.1356 310.419 22.1436C310.406 22.1602 311.084 22.3186 311.749 22.4611L312.233 22.559L312.936 21.9992C314.141 21.0358 315.378 19.9011 316.842 18.4056C318.154 17.0674 319.032 16.0512 319.966 14.7962C320.039 14.6927 320.106 14.6181 320.11 14.6358C320.123 14.6955 319.986 14.9979 319.815 15.2936C318.834 17.0007 316.497 19.4028 313.212 22.0861C312.626 22.5631 312.566 22.6198 312.643 22.6312C313.325 22.7353 313.912 22.8159 314.268 22.8555L314.714 22.9082L315.347 22.3795C317.567 20.5303 319.223 18.8826 321.002 16.7481C322.26 15.234 323.032 14.1965 324.023 12.6677C324.759 11.529 325.053 11.031 325.533 10.1115C326.849 7.59915 327.793 4.56925 327.793 2.86102C327.793 2.41666 327.602 1.33515 327.49 1.1462C327.399 0.994247 327.327 0.993431 327.245 1.1499L327.243 1.15037ZM326.756 5.05938C326.756 5.05938 326.745 5.18426 326.728 5.32921C326.67 5.82762 326.364 6.77947 325.951 7.75405C325.099 9.76926 323.535 12.4247 322.669 13.3343C322.563 13.4449 322.461 13.5293 322.445 13.5233C322.429 13.5129 322.773 12.9534 323.202 12.2831C324.222 10.6972 324.62 10.0127 325.215 8.8186C325.821 7.60129 326.258 6.52207 326.604 5.38102C326.659 5.20493 326.714 5.05905 326.729 5.05573C326.743 5.05289 326.756 5.05227 326.758 5.05891L326.756 5.05938Z" fill="#FFFDF9" fill-opacity="0.1" stroke="#333333" stroke-opacity="0.1" stroke-width="0.8" stroke-miterlimit="10"/>
<path d="M297.497 25.7211C297.094 25.9161 296.837 26.2209 296.741 26.6186C296.691 26.8283 296.688 26.9008 296.741 27.1904C296.831 27.7219 297.013 28.0533 297.346 28.2855C297.583 28.4546 297.852 28.5082 298.186 28.4576C298.644 28.3898 298.838 28.2026 298.914 27.7443C298.966 27.46 299.039 27.4328 299.325 27.6008C299.651 27.7905 300.348 28.5696 300.906 29.3599C301.224 29.808 301.436 30.1932 302.138 31.5729C302.895 33.0637 303.02 33.2498 303.501 33.5613C304.031 33.904 304.544 33.9749 305.219 33.7959C305.965 33.5995 306.353 33.2734 306.408 32.7919C306.445 32.4531 306.252 31.8324 306.02 31.5509C305.746 31.2092 305.11 31.1715 304.809 31.4743C304.727 31.5566 304.682 31.6518 304.64 31.825C304.61 31.9541 304.562 32.064 304.535 32.0697C304.411 32.0962 303.823 31.5855 303.661 31.3053C303.471 30.9803 303.339 30.578 303.181 29.8619L303.03 29.158L303.088 28.9189C303.118 28.7853 303.208 28.5715 303.284 28.4395C303.361 28.3075 303.418 28.1842 303.414 28.1688C303.411 28.1533 303.35 28.1407 303.282 28.1461C302.612 28.1874 302.331 28.1481 302.074 27.9762C301.989 27.9178 301.737 27.6455 301.469 27.3254C300.934 26.676 300.606 26.3665 300.13 26.0541C299.57 25.6878 299.027 25.5099 298.466 25.5094C298.193 25.5099 297.708 25.6136 297.496 25.7167L297.497 25.7211Z" fill="#FFFDF9" fill-opacity="0.1" stroke="#333333" stroke-opacity="0.1" stroke-width="0.8" stroke-miterlimit="10"/>
<path d="M321.822 20.5264C321.263 20.7825 320.762 21.2877 320.404 21.9543C320.181 22.3746 320.088 22.6213 319.908 23.2407C319.656 24.1115 319.594 24.2082 318.985 24.69C318.792 24.8448 318.632 24.9877 318.631 25.0041C318.629 25.0255 318.722 25.1259 318.836 25.2265C318.95 25.327 319.102 25.5053 319.17 25.618C319.281 25.8003 319.304 25.8764 319.402 26.3461C319.63 27.4568 319.565 28.172 319.182 28.7977C319.035 29.0376 319.019 29.0387 318.857 28.8255C318.61 28.5012 318.393 28.4295 318.026 28.5471C317.704 28.6509 317.479 28.9233 317.436 29.2728C317.405 29.5063 317.457 29.9766 317.543 30.2081C317.702 30.6463 318.042 30.8607 318.611 30.8802C318.865 30.8883 319.605 30.7302 319.807 30.6245C320.359 30.3353 320.781 29.7521 320.89 29.127C320.911 29.0161 320.944 28.5993 320.963 28.1973C321.059 26.2952 321.076 26.0068 321.128 25.5884C321.219 24.8121 321.499 23.7061 321.771 23.0393C321.864 22.8134 322.044 22.5806 322.141 22.5598C322.216 22.5437 322.254 22.5796 322.391 22.7864C322.609 23.1125 322.902 23.2049 323.33 23.0855C323.607 23.0055 323.793 22.8778 323.955 22.6466C324.195 22.3083 324.239 21.8984 324.099 21.3498C324.03 21.0706 323.992 20.9814 323.889 20.8438C323.639 20.5107 323.256 20.3196 322.82 20.3085C322.553 20.3032 322.081 20.404 321.821 20.522L321.822 20.5264Z" fill="#FFFDF9" fill-opacity="0.1" stroke="#333333" stroke-opacity="0.1" stroke-width="0.8" stroke-miterlimit="10"/>
<path d="M304.745 25.7469C304.033 26.1652 303.165 26.6655 302.808 26.862C302.457 27.0598 302.156 27.2352 302.141 27.25C302.101 27.3025 302.238 27.4676 302.429 27.6027C302.672 27.773 302.908 27.8058 303.347 27.7352C303.72 27.6716 304.007 27.5732 304.486 27.3414C304.94 27.1169 305.967 26.5363 306.938 25.9539C307.698 25.4976 307.885 25.3673 307.744 25.3976C307.69 25.4089 306.538 25.1206 306.276 25.0331C306.168 24.9937 306.07 24.9684 306.057 24.9734C306.044 24.9763 305.454 25.3246 304.742 25.7429L304.745 25.7469Z" fill="#FFFDF9" fill-opacity="0.1" stroke="#333333" stroke-opacity="0.1" stroke-width="0.8" stroke-miterlimit="10"/>
<path d="M306.963 26.3604C306.187 26.8271 305.274 27.3742 304.931 27.5816C303.921 28.1886 303.64 28.4432 303.544 28.8387C303.475 29.1126 303.526 29.6641 303.641 29.9334C303.696 30.0583 303.591 30.1085 305.012 29.3163C306.804 28.3132 308.465 27.3193 309.822 26.4276C310.128 26.2255 310.4 26.047 310.435 26.0257C310.474 26.0012 310.34 25.9604 309.924 25.8758C309.61 25.8156 309.135 25.7087 308.866 25.6391L308.376 25.5146L306.965 26.36L306.963 26.3604Z" fill="#FFFDF9" fill-opacity="0.1" stroke="#333333" stroke-opacity="0.1" stroke-width="0.8" stroke-miterlimit="10"/>
<path d="M297.675 29.1985C297.423 29.331 297.414 29.5598 297.641 29.9416C297.797 30.2024 297.88 30.3118 298.102 30.5166C298.197 30.6028 298.269 30.6871 298.262 30.6978C298.229 30.7417 297.951 30.6416 297.812 30.5346C297.734 30.4727 297.623 30.3529 297.568 30.2698C297.512 30.1822 297.404 30.0131 297.328 29.893C297.251 29.7728 297.143 29.6384 297.09 29.5943C296.935 29.4769 296.703 29.4547 296.376 29.527C295.797 29.6576 295.736 29.8906 296.077 30.6301C296.384 31.2888 296.594 31.5657 296.985 31.8246C297.354 32.063 297.493 32.0957 297.973 32.037C298.763 31.9399 301.022 31.3993 301.196 31.2696C301.478 31.0541 301.283 30.3437 300.761 29.6799C300.333 29.1396 299.916 28.782 299.692 28.7766C299.643 28.7732 299.53 28.7974 299.438 28.8239C299.009 28.9597 299.117 29.3995 299.72 29.9788C299.866 30.1211 299.977 30.2408 299.962 30.2441C299.909 30.2555 299.642 30.125 299.499 30.019C299.292 29.8619 299.13 29.6883 298.977 29.4502C298.797 29.1738 298.658 29.0762 298.405 29.0587C298.187 29.0474 297.848 29.1083 297.677 29.198L297.675 29.1985Z" fill="#FFFDF9" fill-opacity="0.1" stroke="#333333" stroke-opacity="0.1" stroke-width="0.8" stroke-miterlimit="10"/>
<path d="M323.319 23.7472C323.117 23.8667 323.031 24.0147 323.006 24.2699C322.98 24.5601 322.875 24.8256 322.679 25.1199C322.577 25.2713 322.485 25.3973 322.468 25.4011C322.454 25.4039 322.483 25.3099 322.531 25.1885C322.719 24.7247 322.766 24.282 322.651 24.0473C322.564 23.8669 322.182 23.8906 321.967 24.0871C321.758 24.2798 321.462 25.0837 321.396 25.6324C321.325 26.2331 321.406 26.6742 321.614 26.8241C321.71 26.8961 321.746 26.9022 322.019 26.8671C322.58 26.8028 324.493 26.4147 324.921 26.2816C325.409 26.1286 325.518 26.0521 325.757 25.6933C325.971 25.3629 326.075 24.9726 326.096 24.3988C326.124 23.6291 326.038 23.3581 325.759 23.2997C325.556 23.2575 325.073 23.3745 324.919 23.5C324.726 23.657 324.716 23.6984 324.611 24.4385C324.577 24.6818 324.316 25.1079 324.185 25.1358C324.176 25.1377 324.206 25.0366 324.252 24.9063C324.378 24.5646 324.449 24.0611 324.403 23.8486C324.373 23.707 324.347 23.6616 324.279 23.623C324.088 23.5088 323.614 23.5706 323.319 23.7494L323.319 23.7472Z" fill="#FFFDF9" fill-opacity="0.1" stroke="#333333" stroke-opacity="0.1" stroke-width="0.8" stroke-miterlimit="10"/>
<path d="M294.057 30.0554C293.747 30.1843 293.453 30.4346 293.294 30.7115C292.938 31.3315 293.088 32.4566 293.615 33.08C294.103 33.6608 294.961 33.9148 295.601 33.6692C295.993 33.5206 296.446 33.0583 296.682 32.5704C296.805 32.3104 296.834 32.1883 296.783 32.1113C296.738 32.0445 296.652 32.1046 296.49 32.3106C296.236 32.6309 296.131 32.7113 295.854 32.7914C295.57 32.8728 295.364 32.8729 295.231 32.7948C295.07 32.6997 295.106 32.6202 295.419 32.375C295.899 32.0063 296.038 31.6827 295.959 31.1372C295.876 30.5461 295.475 30.0765 294.955 29.9631C294.773 29.9234 294.681 29.9268 294.436 29.9722C294.276 30.0041 294.106 30.0428 294.061 30.0594L294.057 30.0554Z" fill="#FFFDF9" fill-opacity="0.1" stroke="#333333" stroke-opacity="0.1" stroke-width="0.8" stroke-miterlimit="10"/>
<path d="M327.023 23.0261C326.37 23.3322 326.155 24.2553 326.567 24.989C326.666 25.1621 326.718 25.2204 326.925 25.3544C327.119 25.4797 327.232 25.5226 327.466 25.5674C327.63 25.5972 327.775 25.6379 327.794 25.6616C327.835 25.7223 327.704 25.8799 327.552 25.9565C327.481 25.9925 327.3 26.0473 327.149 26.0795C326.826 26.1486 326.714 26.1239 326.379 25.9317C326.247 25.858 326.131 25.8133 326.1 25.8271C326.012 25.862 326.051 26.0457 326.184 26.2233C326.509 26.6469 327.07 26.8578 327.739 26.8005C328.626 26.7266 329.284 26.0329 329.402 25.0449C329.437 24.7736 329.268 23.9857 329.119 23.7191C328.813 23.1687 328.391 22.8955 327.805 22.8705C327.583 22.8624 327.212 22.9348 327.022 23.0239L327.023 23.0261Z" fill="#FFFDF9" fill-opacity="0.1" stroke="#333333" stroke-opacity="0.1" stroke-width="0.8" stroke-miterlimit="10"/>
<path d="M262.896 42.5051C262.731 42.6839 262.274 44.6986 262.245 45.3545C262.166 47.5346 262.87 50.7627 264.244 54.4639C265.896 58.9179 268.811 63.8836 272.724 68.9126C276.274 73.4856 279.538 76.8554 283.99 80.5561C287.7 83.6393 291.057 86.1025 294.858 88.5207C297.265 90.0549 301.65 92.6878 301.901 92.7478C301.95 92.7594 302.003 92.5893 302.129 91.9923C302.251 91.3823 302.276 91.1582 302.242 90.8879C302.181 90.4568 301.903 89.9935 301.517 89.6633C301.058 89.2721 298.174 87.4059 295.489 85.7577C292.168 83.7239 290.188 82.2834 286.961 79.5575C281.377 74.8529 277.369 70.6585 275.511 67.5881C274.991 66.7181 274.604 65.8242 274.77 65.8636C274.792 65.869 275.028 66.1792 275.293 66.5519C277.388 69.4924 279.821 72.2831 283.25 75.6605C285.718 78.0903 287.94 79.9337 290.971 82.0652C292.767 83.3269 295.069 84.8004 299.887 87.7864C301.329 88.682 302.114 89.0078 302.708 88.9827C303.575 88.9433 304.5 88.6121 304.723 88.2603C304.818 88.1123 304.811 88.1067 304.599 87.9967C300.871 86.0047 296.528 83.2113 292.106 79.9504C285.088 74.7687 281.084 71.0679 276.334 65.3672C273.881 62.4287 272.097 59.9634 270.133 56.8202C268.818 54.7047 268.073 53.3642 266.794 50.797C265.141 47.4697 263.929 44.7556 263.527 43.4414C263.231 42.4856 263.103 42.2884 262.89 42.5155L262.896 42.5051Z" fill="#FFFDF9" fill-opacity="0.1" stroke="#333333" stroke-opacity="0.1" stroke-width="0.8" stroke-miterlimit="10"/>
<path d="M333.439 59.3727C333.334 59.4469 333.076 59.695 332.851 59.9232C331.627 61.1913 327.365 64.5415 324.03 66.8505C322.25 68.0854 319.332 69.8308 316.997 71.0604C312.889 73.213 307.457 75.4585 303.161 76.7646C300.3 77.6385 296.211 78.6127 292.89 79.2143C292.483 79.288 292.142 79.3535 292.128 79.3621C292.096 79.3783 293.024 80.1194 293.943 80.8268L294.617 81.3327L296.11 80.986C298.672 80.386 301.41 79.5463 304.762 78.3169C307.764 77.2187 309.862 76.2978 312.221 75.0502C312.409 74.9442 312.568 74.8788 312.561 74.9088C312.537 75.0102 312.104 75.3755 311.624 75.7056C308.861 77.6151 303.499 79.5996 296.471 81.322C295.218 81.6268 295.085 81.6704 295.194 81.7442C296.169 82.4051 297.014 82.9597 297.533 83.2819L298.182 83.6907L299.545 83.3407C304.32 82.1212 308.079 80.7984 312.384 78.816C315.433 77.4073 317.383 76.3757 320.031 74.7484C322 73.5349 322.818 72.9838 324.232 71.9196C328.102 69.0157 331.778 65.0416 333.032 62.4114C333.358 61.727 333.856 59.9207 333.822 59.5474C333.794 59.2471 333.684 59.193 333.443 59.3736L333.439 59.3727ZM329.821 65.0356C329.821 65.0356 329.713 65.2203 329.58 65.4306C329.125 66.1557 327.955 67.3971 326.605 68.5955C323.814 71.0737 319.458 74.0166 317.457 74.7819C317.212 74.8744 316.993 74.9292 316.974 74.9088C316.956 74.8809 317.896 74.2714 319.048 73.5537C321.784 71.8599 322.899 71.0977 324.691 69.6951C326.517 68.2649 327.981 66.9229 329.352 65.42C329.566 65.1892 329.757 65.0045 329.783 65.0107C329.806 65.0161 329.827 65.0252 329.825 65.0365L329.821 65.0356Z" fill="#FFFDF9" fill-opacity="0.1" stroke="#333333" stroke-opacity="0.1" stroke-width="0.8" stroke-miterlimit="10"/>
<path d="M269.603 75.3924C268.839 75.3969 268.22 75.678 267.781 76.2203C267.55 76.5066 267.492 76.6158 267.36 77.1005C267.11 77.9854 267.147 78.6293 267.488 79.2306C267.73 79.6654 268.104 79.9451 268.656 80.1124C269.411 80.3439 269.847 80.1978 270.3 79.5477C270.59 79.1484 270.722 79.1601 271.04 79.6286C271.402 80.1595 271.903 81.8707 272.183 83.4972C272.344 84.4207 272.388 85.1695 272.458 87.8097C272.529 90.6606 272.586 91.0393 273.098 91.8719C273.662 92.7883 274.401 93.2739 275.572 93.4935C276.864 93.7379 277.702 93.521 278.139 92.8195C278.444 92.3245 278.602 91.227 278.452 90.6237C278.28 89.896 277.329 89.3715 276.643 89.6168C276.456 89.6835 276.318 89.7974 276.126 90.0336C275.985 90.2102 275.83 90.3439 275.785 90.3332C275.574 90.283 275.042 89.0648 274.999 88.5146C274.945 87.8746 275.036 87.1581 275.319 85.9394L275.603 84.7451L275.868 84.4191C276.011 84.2349 276.308 83.9723 276.522 83.8248C276.736 83.6774 276.914 83.5293 276.92 83.5031C276.926 83.4768 276.842 83.4131 276.733 83.3712C275.671 82.9434 275.266 82.6762 274.997 82.223C274.91 82.0713 274.72 81.4665 274.543 80.7773C274.196 79.3847 273.918 78.6675 273.413 77.8367C272.819 76.8616 272.114 76.1893 271.251 75.7772C270.829 75.5776 270.006 75.3815 269.604 75.3849L269.603 75.3924Z" fill="#FFFDF9" fill-opacity="0.1" stroke="#333333" stroke-opacity="0.1" stroke-width="0.8" stroke-miterlimit="10"/>
<path d="M310.877 85.2363C309.828 85.2205 308.685 85.6309 307.645 86.3951C306.994 86.8789 306.669 87.1905 305.937 88.0123C304.911 89.1687 304.743 89.2717 303.453 89.5675C303.041 89.6638 302.691 89.7668 302.677 89.7913C302.658 89.8225 302.728 90.0455 302.83 90.2842C302.932 90.5228 303.035 90.9085 303.057 91.1321C303.094 91.4941 303.073 91.6282 302.88 92.4236C302.416 94.3016 301.792 95.3554 300.743 96.0382C300.34 96.2992 300.314 96.2892 300.222 95.8425C300.079 95.1614 299.797 94.8919 299.147 94.8043C298.573 94.7272 298.028 94.9822 297.705 95.4886C297.485 95.8253 297.22 96.5877 297.184 97.0077C297.106 97.7989 297.473 98.3784 298.335 98.8261C298.721 99.0251 299.976 99.3244 300.365 99.3099C301.427 99.2693 302.505 98.6808 303.132 97.7983C303.245 97.6426 303.602 97.0253 303.925 96.4196C305.469 93.5606 305.707 93.1291 306.094 92.5227C306.803 91.394 308.046 89.8962 308.954 89.0688C309.263 88.7892 309.711 88.5624 309.876 88.6018C310.004 88.6322 310.036 88.7153 310.095 89.1342C310.191 89.7962 310.575 90.1535 311.322 90.2841C311.807 90.364 312.187 90.3037 312.605 90.066C313.224 89.7212 313.593 89.1225 313.779 88.1746C313.878 87.6941 313.885 87.5292 313.827 87.2414C313.687 86.5452 313.236 85.9694 312.574 85.6329C312.166 85.4284 311.365 85.2376 310.879 85.2288L310.877 85.2363Z" fill="#FFFDF9" fill-opacity="0.1" stroke="#333333" stroke-opacity="0.1" stroke-width="0.8" stroke-miterlimit="10"/>
<path d="M280.747 80.7492C279.343 80.8711 277.639 81.0048 276.946 81.046C276.26 81.0927 275.668 81.1422 275.634 81.1538C275.534 81.2055 275.624 81.5604 275.819 81.9085C276.068 82.3488 276.407 82.5727 277.135 82.7858C277.757 82.9617 278.271 83.0208 279.178 83.0147C280.043 83.0026 282.05 82.8619 283.973 82.6772C285.477 82.5317 285.862 82.4685 285.621 82.4112C285.531 82.3897 283.968 81.1002 283.629 80.7732C283.491 80.6333 283.359 80.5224 283.335 80.5207C283.313 80.5154 282.148 80.6188 280.745 80.7408L280.747 80.7492Z" fill="#FFFDF9" fill-opacity="0.1" stroke="#333333" stroke-opacity="0.1" stroke-width="0.8" stroke-miterlimit="10"/>
<path d="M283.713 83.3206C282.176 83.4702 280.368 83.6425 279.688 83.7107C277.688 83.9046 277.068 84.0902 276.629 84.6288C276.322 85.0002 275.996 85.8868 275.976 86.3862C275.968 86.6186 275.77 86.6188 278.541 86.4418C282.035 86.2111 285.323 85.8992 288.067 85.5211C288.687 85.4348 289.237 85.3596 289.306 85.3523C289.384 85.343 289.208 85.1819 288.629 84.7462C288.189 84.4232 287.537 83.9104 287.173 83.6053L286.51 83.0543L283.717 83.3215L283.713 83.3206Z" fill="#FFFDF9" fill-opacity="0.1" stroke="#333333" stroke-opacity="0.1" stroke-width="0.8" stroke-miterlimit="10"/>
<path d="M267.326 80.8766C266.841 80.8959 266.659 81.2416 266.73 81.9966C266.778 82.5121 266.826 82.7419 267.018 83.2203C267.101 83.4226 267.149 83.6047 267.13 83.6162C267.048 83.6601 266.693 83.3015 266.558 83.0352C266.483 82.8824 266.399 82.6164 266.376 82.4481C266.354 82.2722 266.312 81.9327 266.282 81.6914C266.252 81.4501 266.185 81.1643 266.135 81.0571C265.983 80.7628 265.643 80.5586 265.085 80.4298C264.098 80.2063 263.833 80.5201 263.815 81.9092C263.806 83.1492 263.926 83.7295 264.338 84.4153C264.73 85.0525 264.92 85.205 265.704 85.4672C266.992 85.8971 270.866 86.7215 271.229 86.6492C271.823 86.5248 272.042 85.2871 271.726 83.882C271.463 82.7358 271.083 81.8792 270.743 81.7068C270.669 81.6655 270.478 81.6198 270.317 81.5934C269.556 81.4874 269.4 82.2439 269.904 83.5787C270.024 83.9051 270.108 84.1711 270.082 84.1649C269.991 84.1434 269.677 83.7469 269.534 83.4787C269.33 83.0848 269.208 82.6984 269.147 82.2195C269.073 81.6621 268.931 81.4099 268.553 81.1967C268.226 81.0195 267.659 80.8646 267.33 80.8775L267.326 80.8766Z" fill="#FFFDF9" fill-opacity="0.1" stroke="#333333" stroke-opacity="0.1" stroke-width="0.8" stroke-miterlimit="10"/>
<path d="M310.819 91.2957C310.422 91.3318 310.18 91.4965 309.955 91.8716C309.702 92.2995 309.345 92.6312 308.827 92.9402C308.559 93.0986 308.326 93.2257 308.296 93.2185C308.273 93.2131 308.386 93.0892 308.549 92.9376C309.179 92.3614 309.576 91.7137 309.571 91.268C309.569 90.9262 308.964 90.6827 308.488 90.8274C308.025 90.971 306.979 91.9919 306.476 92.7887C305.926 93.6618 305.726 94.4001 305.937 94.7837C306.032 94.9653 306.083 95.0012 306.529 95.1472C307.44 95.4595 310.672 96.2655 311.428 96.3744C312.293 96.4971 312.516 96.4591 313.146 96.0814C313.719 95.7296 314.166 95.205 314.619 94.3367C315.226 93.1716 315.293 92.6914 314.906 92.3968C314.624 92.1826 313.795 92.009 313.466 92.0893C313.053 92.1893 313.008 92.246 312.302 93.3081C312.072 93.6581 311.357 94.1228 311.135 94.07C311.12 94.0664 311.24 93.9321 311.407 93.7655C311.851 93.3318 312.33 92.6083 312.416 92.2477C312.473 92.0073 312.466 91.9184 312.389 91.8088C312.179 91.4926 311.405 91.2407 310.819 91.2994L310.819 91.2957Z" fill="#FFFDF9" fill-opacity="0.1" stroke="#333333" stroke-opacity="0.1" stroke-width="0.8" stroke-miterlimit="10"/>
<path d="M261.126 79.5449C260.553 79.5155 259.917 79.6854 259.469 79.9955C258.466 80.6891 257.872 82.532 258.226 83.8787C258.551 85.131 259.686 86.1517 260.852 86.2431C261.565 86.3018 262.601 85.9216 263.323 85.3435C263.702 85.0331 263.837 84.8668 263.815 84.7107C263.796 84.5751 263.618 84.6042 263.217 84.8024C262.592 85.1098 262.37 85.1562 261.885 85.0762C261.388 84.9936 261.071 84.8425 260.924 84.6249C260.745 84.3599 260.859 84.2641 261.522 84.1165C262.531 83.9004 262.982 83.5041 263.26 82.6058C263.567 81.635 263.293 80.6172 262.576 80.0612C262.324 79.8663 262.18 79.8042 261.769 79.6944C261.5 79.6261 261.209 79.5609 261.128 79.5533L261.126 79.5449Z" fill="#FFFDF9" fill-opacity="0.1" stroke="#333333" stroke-opacity="0.1" stroke-width="0.8" stroke-miterlimit="10"/>
<path d="M317.053 92.9031C315.823 92.8958 314.815 94.1598 314.911 95.5916C314.937 95.9313 314.974 96.0592 315.194 96.4174C315.401 96.7523 315.544 96.9015 315.872 97.1424C316.102 97.3085 316.296 97.4777 316.308 97.5282C316.326 97.6516 316.009 97.7983 315.718 97.8043C315.582 97.8076 315.264 97.7596 315.008 97.6987C314.459 97.5679 314.305 97.4478 313.93 96.9058C313.782 96.6958 313.636 96.5419 313.576 96.5398C313.416 96.5293 313.342 96.841 313.416 97.212C313.605 98.1025 314.315 98.8393 315.387 99.2417C316.808 99.7788 318.33 99.193 319.236 97.7578C319.489 97.3655 319.807 96.0284 319.772 95.5081C319.706 94.4365 319.257 93.7062 318.371 93.2372C318.036 93.062 317.411 92.9011 317.054 92.8993L317.053 92.9031Z" fill="#FFFDF9" fill-opacity="0.1" stroke="#333333" stroke-opacity="0.1" stroke-width="0.8" stroke-miterlimit="10"/>
<path d="M165.078 188.066C165.045 188.237 165.531 189.632 165.761 190.041C166.539 191.393 168.187 193.084 170.422 194.809C173.109 196.886 176.757 198.794 181.034 200.363C184.917 201.794 188.172 202.602 192.273 203.162C195.69 203.628 198.659 203.851 201.879 203.88C203.92 203.899 207.576 203.836 207.752 203.778C207.786 203.766 207.753 203.643 207.604 203.233C207.447 202.817 207.377 202.672 207.254 202.521C207.054 202.282 206.71 202.107 206.351 202.052C205.924 201.989 203.469 201.948 201.216 201.965C198.433 201.988 196.686 201.864 193.697 201.432C188.53 200.691 184.511 199.665 182.222 198.506C181.578 198.174 181.005 197.779 181.12 197.74C181.136 197.735 181.396 197.834 181.698 197.959C184.082 198.95 186.614 199.722 189.972 200.472C192.388 201.012 194.433 201.29 197.079 201.435C198.646 201.521 200.6 201.543 204.652 201.531C205.866 201.528 206.465 201.429 206.815 201.189C207.327 200.837 207.762 200.286 207.764 199.988C207.766 199.862 207.76 199.861 207.589 199.875C204.575 200.078 200.883 200.027 196.967 199.723C190.749 199.236 186.92 198.507 181.881 196.847C179.281 195.993 177.266 195.173 174.885 194.01C173.287 193.224 172.328 192.693 170.581 191.62C168.318 190.228 166.556 189.04 165.815 188.395C165.273 187.928 165.121 187.856 165.078 188.075L165.078 188.066Z" fill="#FFFDF9" fill-opacity="0.1" stroke="#333333" stroke-opacity="0.1" stroke-width="0.8" stroke-miterlimit="10"/>
<path d="M214.248 171.598C214.212 171.682 214.15 171.93 214.099 172.154C213.837 173.386 212.52 177.031 211.371 179.694C210.759 181.117 209.649 183.28 208.699 184.909C207.022 187.77 204.577 191.188 202.466 193.606C201.061 195.219 198.949 197.357 197.163 198.979C196.944 199.178 196.762 199.347 196.757 199.357C196.743 199.379 197.587 199.477 198.412 199.558L199.012 199.61L199.786 198.835C201.113 197.501 202.456 195.956 204.024 193.942C205.429 192.139 206.353 190.786 207.312 189.137C207.386 189.001 207.457 188.902 207.464 188.923C207.488 188.993 207.364 189.379 207.198 189.76C206.245 191.964 203.743 195.198 200.132 198.902C199.488 199.561 199.424 199.638 199.518 199.641C200.359 199.673 201.082 199.69 201.518 199.689L202.067 199.691L202.761 198.963C205.196 196.416 206.975 194.191 208.836 191.359C210.152 189.351 210.944 187.987 211.934 185.998C212.67 184.517 212.958 183.873 213.412 182.692C214.66 179.466 215.386 175.665 215.151 173.595C215.09 173.056 214.708 171.772 214.546 171.558C214.416 171.387 214.329 171.396 214.25 171.597L214.248 171.598ZM214.197 176.402C214.197 176.402 214.201 176.554 214.2 176.732C214.198 177.344 213.959 178.54 213.593 179.778C212.838 182.337 211.31 185.771 210.386 186.993C210.273 187.141 210.16 187.258 210.141 187.252C210.12 187.242 210.459 186.517 210.886 185.645C211.904 183.583 212.292 182.698 212.848 181.169C213.415 179.611 213.795 178.243 214.058 176.812C214.1 176.591 214.146 176.407 214.164 176.401C214.18 176.396 214.197 176.393 214.199 176.401L214.197 176.402Z" fill="#FFFDF9" fill-opacity="0.1" stroke="#333333" stroke-opacity="0.1" stroke-width="0.8" stroke-miterlimit="10"/>
<path d="M181.593 205.475C181.131 205.767 180.862 206.172 180.801 206.667C180.769 206.928 180.776 207.016 180.879 207.36C181.062 207.991 181.328 208.368 181.763 208.603C182.074 208.776 182.407 208.804 182.805 208.696C183.351 208.551 183.56 208.297 183.589 207.731C183.613 207.38 183.698 207.337 184.068 207.501C184.488 207.686 185.44 208.534 186.225 209.414C186.673 209.914 186.983 210.351 188.024 211.926C189.146 213.628 189.324 213.837 189.95 214.148C190.639 214.49 191.271 214.505 192.064 214.195C192.94 213.854 193.367 213.405 193.366 212.814C193.364 212.399 193.044 211.673 192.725 211.364C192.345 210.988 191.57 211.03 191.246 211.438C191.158 211.549 191.118 211.671 191.091 211.887C191.072 212.047 191.029 212.187 190.997 212.198C190.851 212.247 190.067 211.709 189.832 211.392C189.557 211.024 189.341 210.555 189.052 209.709L188.772 208.877L188.809 208.579C188.826 208.413 188.907 208.141 188.981 207.971C189.055 207.801 189.107 207.643 189.101 207.625C189.095 207.607 189.02 207.6 188.937 207.616C188.132 207.758 187.785 207.749 187.45 207.577C187.34 207.517 186.996 207.222 186.627 206.871C185.89 206.158 185.45 205.828 184.829 205.516C184.1 205.149 183.417 205.008 182.738 205.085C182.407 205.123 181.834 205.316 181.591 205.47L181.593 205.475Z" fill="#FFFDF9" fill-opacity="0.1" stroke="#333333" stroke-opacity="0.1" stroke-width="0.8" stroke-miterlimit="10"/>
<path d="M210.353 195.824C209.711 196.212 209.174 196.893 208.832 197.75C208.62 198.29 208.541 198.602 208.408 199.378C208.223 200.467 208.16 200.593 207.49 201.261C207.276 201.475 207.103 201.67 207.104 201.691C207.104 201.717 207.231 201.826 207.383 201.932C207.535 202.038 207.743 202.233 207.842 202.36C208.001 202.566 208.039 202.655 208.223 203.21C208.653 204.525 208.673 205.4 208.295 206.211C208.149 206.523 208.13 206.526 207.905 206.29C207.56 205.931 207.287 205.874 206.86 206.067C206.483 206.237 206.249 206.599 206.244 207.028C206.239 207.315 206.366 207.878 206.503 208.147C206.756 208.656 207.197 208.869 207.89 208.814C208.199 208.789 209.074 208.495 209.304 208.339C209.933 207.912 210.364 207.148 210.41 206.375C210.42 206.238 210.403 205.728 210.37 205.238C210.224 202.92 210.205 202.568 210.21 202.054C210.213 201.101 210.4 199.722 210.638 198.877C210.719 198.59 210.905 198.283 211.02 198.244C211.109 198.215 211.16 198.253 211.354 198.485C211.663 198.85 212.031 198.921 212.534 198.718C212.858 198.582 213.066 198.402 213.23 198.1C213.474 197.656 213.471 197.154 213.226 196.508C213.104 196.179 213.046 196.076 212.901 195.924C212.553 195.555 212.062 195.376 211.533 195.423C211.208 195.453 210.65 195.64 210.352 195.819L210.353 195.824Z" fill="#FFFDF9" fill-opacity="0.1" stroke="#333333" stroke-opacity="0.1" stroke-width="0.8" stroke-miterlimit="10"/>
<path d="M190.38 204.507C189.575 205.112 188.592 205.838 188.187 206.125C187.788 206.413 187.448 206.667 187.431 206.687C187.391 206.756 187.58 206.937 187.83 207.075C188.147 207.248 188.438 207.255 188.96 207.109C189.403 206.98 189.738 206.821 190.286 206.474C190.806 206.14 191.97 205.295 193.066 204.455C193.924 203.797 194.133 203.613 193.965 203.67C193.902 203.691 192.466 203.5 192.137 203.43C192 203.398 191.878 203.38 191.863 203.388C191.848 203.394 191.18 203.897 190.375 204.502L190.38 204.507Z" fill="#FFFDF9" fill-opacity="0.1" stroke="#333333" stroke-opacity="0.1" stroke-width="0.8" stroke-miterlimit="10"/>
<path d="M193.152 204.943C192.277 205.615 191.245 206.404 190.858 206.703C189.719 207.578 189.413 207.925 189.351 208.418C189.305 208.759 189.443 209.42 189.62 209.731C189.703 209.875 189.582 209.95 191.196 208.794C193.229 207.331 195.105 205.898 196.625 204.63C196.969 204.343 197.274 204.089 197.314 204.058C197.357 204.023 197.189 203.992 196.673 203.947C196.284 203.918 195.695 203.854 195.358 203.806L194.748 203.723L193.155 204.942L193.152 204.943Z" fill="#FFFDF9" fill-opacity="0.1" stroke="#333333" stroke-opacity="0.1" stroke-width="0.8" stroke-miterlimit="10"/>
<path d="M182.287 209.664C182 209.859 182.021 210.137 182.349 210.569C182.574 210.863 182.69 210.984 182.987 211.202C183.114 211.293 183.212 211.385 183.205 211.399C183.172 211.457 182.821 211.374 182.638 211.264C182.535 211.199 182.384 211.07 182.306 210.976C182.226 210.878 182.072 210.688 181.962 210.553C181.853 210.418 181.704 210.27 181.633 210.224C181.43 210.103 181.146 210.108 180.759 210.241C180.076 210.479 180.033 210.77 180.549 211.619C181.012 212.374 181.304 212.681 181.814 212.941C182.293 213.179 182.466 213.2 183.041 213.062C183.984 212.835 186.647 211.869 186.839 211.688C187.152 211.388 186.817 210.554 186.093 209.821C185.5 209.226 184.946 208.85 184.674 208.874C184.614 208.877 184.48 208.922 184.373 208.966C183.871 209.19 184.062 209.708 184.873 210.327C185.07 210.479 185.221 210.609 185.203 210.615C185.14 210.636 184.799 210.515 184.611 210.406C184.339 210.244 184.118 210.056 183.9 209.789C183.644 209.479 183.463 209.38 183.152 209.394C182.887 209.41 182.485 209.53 182.29 209.663L182.287 209.664Z" fill="#FFFDF9" fill-opacity="0.1" stroke="#333333" stroke-opacity="0.1" stroke-width="0.8" stroke-miterlimit="10"/>
<path d="M212.611 199.521C212.383 199.694 212.299 199.885 212.305 200.198C212.313 200.553 212.222 200.889 212.025 201.273C211.922 201.471 211.829 201.636 211.808 201.643C211.792 201.648 211.814 201.53 211.855 201.376C212.019 200.789 212.015 200.246 211.843 199.977C211.713 199.771 211.253 199.852 211.02 200.12C210.793 200.382 210.545 201.397 210.541 202.071C210.538 202.809 210.697 203.332 210.969 203.485C211.096 203.559 211.141 203.561 211.466 203.481C212.137 203.326 214.402 202.592 214.902 202.371C215.473 202.119 215.594 202.011 215.833 201.543C216.048 201.113 216.12 200.626 216.066 199.928C215.994 198.991 215.852 198.675 215.506 198.642C215.254 198.62 214.686 198.828 214.517 199.001C214.304 199.218 214.298 199.269 214.272 200.181C214.264 200.48 214.007 201.033 213.852 201.085C213.842 201.088 213.864 200.961 213.902 200.797C214.007 200.366 214.024 199.746 213.939 199.495C213.883 199.327 213.845 199.276 213.757 199.238C213.51 199.126 212.945 199.267 212.612 199.524L212.611 199.521Z" fill="#FFFDF9" fill-opacity="0.1" stroke="#333333" stroke-opacity="0.1" stroke-width="0.8" stroke-miterlimit="10"/>
<path d="M178.023 211.202C177.665 211.401 177.343 211.745 177.189 212.102C176.843 212.903 177.18 214.245 177.905 214.928C178.576 215.565 179.65 215.754 180.392 215.368C180.847 215.134 181.331 214.511 181.55 213.888C181.663 213.556 181.682 213.404 181.609 213.317C181.546 213.243 181.449 213.327 181.281 213.599C181.018 214.022 180.902 214.134 180.577 214.27C180.244 214.408 179.995 214.436 179.823 214.36C179.614 214.267 179.647 214.165 179.994 213.825C180.524 213.312 180.648 212.901 180.476 212.251C180.295 211.546 179.744 211.032 179.098 210.966C178.872 210.943 178.761 210.96 178.47 211.049C178.281 211.11 178.08 211.18 178.028 211.206L178.023 211.202Z" fill="#FFFDF9" fill-opacity="0.1" stroke="#333333" stroke-opacity="0.1" stroke-width="0.8" stroke-miterlimit="10"/>
<path d="M217 198.137C216.251 198.598 216.118 199.746 216.718 200.578C216.862 200.774 216.933 200.838 217.203 200.972C217.454 201.097 217.598 201.133 217.888 201.155C218.09 201.169 218.272 201.198 218.298 201.224C218.356 201.292 218.219 201.501 218.045 201.615C217.964 201.668 217.753 201.76 217.575 201.819C217.192 201.948 217.053 201.933 216.621 201.747C216.451 201.675 216.304 201.637 216.268 201.658C216.166 201.713 216.239 201.93 216.425 202.127C216.876 202.595 217.586 202.774 218.388 202.612C219.454 202.4 220.155 201.469 220.161 200.255C220.166 199.922 219.853 198.99 219.635 198.688C219.189 198.063 218.64 197.79 217.926 197.841C217.656 197.861 217.216 198 216.999 198.134L217 198.137Z" fill="#FFFDF9" fill-opacity="0.1" stroke="#333333" stroke-opacity="0.1" stroke-width="0.8" stroke-miterlimit="10"/>
<path d="M170.089 112.406C170.01 112.619 170.341 114.514 170.551 115.089C171.265 116.991 173.028 119.513 175.537 122.201C178.554 125.437 182.841 128.659 188.008 131.578C192.699 134.235 196.714 135.961 201.868 137.545C206.163 138.864 209.932 139.777 214.066 140.492C216.685 140.947 221.398 141.637 221.636 141.599C221.683 141.591 221.667 141.426 221.561 140.868C221.447 140.3 221.388 140.098 221.262 139.878C221.055 139.529 220.649 139.231 220.199 139.085C219.664 138.914 216.516 138.344 213.617 137.891C210.034 137.334 207.815 136.806 204.063 135.621C197.577 133.58 192.626 131.413 189.928 129.44C189.17 128.879 188.517 128.249 188.673 128.224C188.694 128.22 189.008 128.402 189.369 128.628C192.225 130.403 195.317 131.929 199.476 133.602C202.469 134.805 205.04 135.593 208.409 136.338C210.406 136.778 212.913 137.218 218.125 138.057C219.686 138.309 220.477 138.308 220.979 138.073C221.71 137.728 222.386 137.112 222.452 136.73C222.48 136.568 222.472 136.566 222.251 136.547C218.332 136.172 213.597 135.329 208.627 134.113C200.735 132.177 195.967 130.432 189.839 127.236C186.676 125.59 184.259 124.111 181.444 122.114C179.555 120.767 178.433 119.882 176.413 118.135C173.799 115.868 171.783 113.97 170.967 112.984C170.369 112.269 170.188 112.145 170.087 112.417L170.089 112.406Z" fill="#FFFDF9" fill-opacity="0.1" stroke="#333333" stroke-opacity="0.1" stroke-width="0.8" stroke-miterlimit="10"/>
<path d="M236.771 101.599C236.708 101.701 236.575 102.006 236.463 102.283C235.866 103.812 233.405 108.221 231.367 111.402C230.28 113.101 228.398 115.648 226.832 117.543C224.074 120.866 220.21 124.745 216.986 127.409C214.84 129.186 211.675 131.49 209.036 133.199C208.713 133.408 208.443 133.587 208.434 133.599C208.413 133.624 209.476 133.929 210.52 134.207L211.281 134.4L212.44 133.566C214.426 132.132 216.479 130.428 218.918 128.169C221.105 126.148 222.578 124.604 224.158 122.685C224.282 122.527 224.395 122.414 224.399 122.442C224.415 122.538 224.174 123.007 223.88 123.463C222.19 126.095 218.293 129.724 212.87 133.726C211.903 134.437 211.804 134.522 211.925 134.546C212.999 134.765 213.924 134.939 214.486 135.029L215.191 135.148L216.236 134.358C219.903 131.597 222.659 129.112 225.649 125.864C227.764 123.559 229.07 121.973 230.762 119.625C232.02 117.875 232.525 117.108 233.359 115.686C235.643 111.802 237.377 107.068 237.512 104.357C237.547 103.652 237.327 101.921 237.163 101.612C237.032 101.364 236.918 101.357 236.775 101.599L236.771 101.599ZM235.693 107.764C235.693 107.764 235.667 107.962 235.628 108.19C235.497 108.977 234.937 110.463 234.206 111.978C232.696 115.109 230.008 119.201 228.562 120.577C228.385 120.744 228.216 120.87 228.192 120.859C228.167 120.841 228.756 119.98 229.489 118.95C231.233 116.513 231.918 115.458 232.955 113.609C234.012 111.725 234.789 110.047 235.428 108.263C235.529 107.988 235.627 107.761 235.652 107.757C235.673 107.753 235.695 107.753 235.697 107.764L235.693 107.764Z" fill="#FFFDF9" fill-opacity="0.1" stroke="#333333" stroke-opacity="0.1" stroke-width="0.8" stroke-miterlimit="10"/>
<path d="M187.65 138.267C186.995 138.545 186.564 139.008 186.381 139.632C186.285 139.961 186.274 140.075 186.335 140.539C186.437 141.39 186.7 141.93 187.209 142.324C187.573 142.611 187.995 142.717 188.529 142.663C189.262 142.591 189.584 142.309 189.74 141.588C189.846 141.141 189.964 141.103 190.404 141.392C190.906 141.719 191.951 143.01 192.775 144.307C193.245 145.043 193.551 145.671 194.558 147.915C195.642 150.34 195.826 150.645 196.566 151.177C197.379 151.762 198.188 151.915 199.273 151.684C200.472 151.43 201.114 150.943 201.238 150.183C201.323 149.649 201.065 148.649 200.72 148.184C200.311 147.62 199.305 147.511 198.803 147.968C198.667 148.092 198.588 148.239 198.509 148.511C198.451 148.713 198.365 148.884 198.323 148.891C198.124 148.923 197.23 148.067 196.995 147.61C196.719 147.079 196.54 146.43 196.346 145.282L196.162 144.153L196.273 143.778C196.33 143.568 196.491 143.236 196.622 143.033C196.753 142.829 196.853 142.638 196.849 142.613C196.845 142.588 196.749 142.564 196.641 142.567C195.574 142.58 195.13 142.496 194.736 142.203C194.607 142.104 194.227 141.652 193.828 141.123C193.03 140.05 192.534 139.534 191.802 139.001C190.941 138.376 190.094 138.051 189.204 138.006C188.771 137.986 187.993 138.112 187.649 138.26L187.65 138.267Z" fill="#FFFDF9" fill-opacity="0.1" stroke="#333333" stroke-opacity="0.1" stroke-width="0.8" stroke-miterlimit="10"/>
<path d="M226.657 131.923C225.75 132.285 224.915 133.048 224.296 134.078C223.909 134.727 223.742 135.111 223.408 136.08C222.94 137.443 222.833 137.591 221.831 138.308C221.511 138.539 221.247 138.753 221.244 138.779C221.238 138.813 221.378 138.979 221.552 139.148C221.725 139.316 221.951 139.611 222.051 139.795C222.212 140.093 222.243 140.216 222.362 140.969C222.637 142.749 222.479 143.879 221.822 144.842C221.569 145.211 221.543 145.212 221.304 144.861C220.936 144.327 220.598 144.196 220.007 144.354C219.487 144.493 219.11 144.908 219.013 145.459C218.946 145.828 218.991 146.578 219.111 146.952C219.328 147.66 219.851 148.027 220.752 148.102C221.155 148.135 222.341 147.942 222.67 147.79C223.569 147.374 224.284 146.481 224.507 145.498C224.548 145.324 224.634 144.665 224.694 144.028C224.995 141.017 225.045 140.561 225.16 139.901C225.365 138.676 225.896 136.943 226.38 135.906C226.545 135.555 226.848 135.2 227.004 135.174C227.125 135.155 227.182 135.214 227.383 135.553C227.704 136.088 228.161 136.257 228.851 136.101C229.297 135.996 229.601 135.808 229.875 135.454C230.283 134.936 230.386 134.289 230.206 133.407C230.118 132.959 230.066 132.814 229.912 132.588C229.542 132.04 228.948 131.706 228.258 131.655C227.834 131.625 227.077 131.749 226.656 131.916L226.657 131.923Z" fill="#FFFDF9" fill-opacity="0.1" stroke="#333333" stroke-opacity="0.1" stroke-width="0.8" stroke-miterlimit="10"/>
<path d="M199.15 138.873C197.987 139.481 196.571 140.207 195.99 140.491C195.417 140.778 194.926 141.033 194.9 141.055C194.833 141.135 195.038 141.408 195.33 141.637C195.702 141.926 196.074 141.997 196.776 141.919C197.373 141.847 197.837 141.714 198.614 141.383C199.353 141.062 201.028 140.221 202.615 139.373C203.855 138.708 204.163 138.516 203.936 138.553C203.851 138.567 202.044 138.019 201.635 137.86C201.467 137.789 201.314 137.741 201.293 137.748C201.271 137.752 200.308 138.258 199.145 138.867L199.15 138.873Z" fill="#FFFDF9" fill-opacity="0.1" stroke="#333333" stroke-opacity="0.1" stroke-width="0.8" stroke-miterlimit="10"/>
<path d="M202.622 140.02C201.354 140.7 199.862 141.497 199.302 141.799C197.652 142.683 197.186 143.065 197.002 143.685C196.872 144.115 196.909 144.994 197.071 145.43C197.148 145.633 196.977 145.704 199.295 144.558C202.216 143.106 204.93 141.659 207.153 140.35C207.655 140.053 208.101 139.791 208.158 139.76C208.221 139.724 208.012 139.649 207.358 139.482C206.864 139.362 206.12 139.155 205.697 139.024L204.93 138.788L202.625 140.019L202.622 140.02Z" fill="#FFFDF9" fill-opacity="0.1" stroke="#333333" stroke-opacity="0.1" stroke-width="0.8" stroke-miterlimit="10"/>
<path d="M187.661 143.797C187.251 143.988 187.219 144.35 187.55 144.974C187.776 145.4 187.9 145.58 188.237 145.922C188.381 146.067 188.487 146.206 188.475 146.222C188.421 146.29 187.987 146.109 187.775 145.928C187.656 145.824 187.489 145.625 187.408 145.489C187.326 145.346 187.168 145.069 187.056 144.872C186.944 144.676 186.784 144.454 186.702 144.38C186.466 144.181 186.1 144.128 185.575 144.217C184.646 144.379 184.53 144.744 185.014 145.944C185.45 147.014 185.762 147.469 186.362 147.911C186.928 148.318 187.146 148.381 187.913 148.325C189.175 148.233 192.801 147.551 193.087 147.359C193.552 147.039 193.297 145.897 192.521 144.802C191.884 143.912 191.25 143.312 190.896 143.285C190.818 143.276 190.637 143.306 190.489 143.341C189.797 143.523 189.934 144.229 190.846 145.195C191.067 145.433 191.234 145.631 191.209 145.635C191.124 145.649 190.711 145.421 190.492 145.242C190.176 144.977 189.932 144.688 189.708 144.299C189.445 143.846 189.232 143.68 188.83 143.633C188.486 143.598 187.943 143.668 187.665 143.797L187.661 143.797Z" fill="#FFFDF9" fill-opacity="0.1" stroke="#333333" stroke-opacity="0.1" stroke-width="0.8" stroke-miterlimit="10"/>
<path d="M228.78 137.152C228.451 137.325 228.303 137.554 228.244 137.957C228.18 138.415 227.992 138.828 227.658 139.28C227.484 139.512 227.329 139.705 227.301 139.71C227.28 139.713 227.332 139.566 227.418 139.377C227.753 138.656 227.862 137.957 227.697 137.576C227.573 137.283 226.966 137.29 226.609 137.585C226.262 137.875 225.73 139.127 225.582 139.993C225.423 140.941 225.516 141.647 225.835 141.901C225.982 142.023 226.039 142.035 226.474 142.001C227.369 141.943 230.436 141.476 231.125 141.298C231.912 141.094 232.091 140.981 232.497 140.43C232.863 139.923 233.059 139.311 233.137 138.402C233.241 137.183 233.126 136.747 232.688 136.632C232.368 136.549 231.594 136.697 231.34 136.884C231.021 137.118 231.002 137.183 230.777 138.35C230.704 138.733 230.257 139.389 230.047 139.423C230.033 139.425 230.087 139.267 230.171 139.064C230.398 138.531 230.549 137.738 230.494 137.397C230.457 137.17 230.419 137.096 230.314 137.029C230.019 136.833 229.264 136.894 228.781 137.155L228.78 137.152Z" fill="#FFFDF9" fill-opacity="0.1" stroke="#333333" stroke-opacity="0.1" stroke-width="0.8" stroke-miterlimit="10"/>
<path d="M181.854 144.877C181.351 145.057 180.865 145.431 180.591 145.858C179.978 146.814 180.128 148.611 180.916 149.642C181.644 150.602 182.986 151.072 184.021 150.732C184.655 150.527 185.409 149.828 185.822 149.073C186.037 148.67 186.093 148.478 186.018 148.352C185.953 148.243 185.81 148.331 185.537 148.645C185.11 149.134 184.936 149.253 184.49 149.359C184.033 149.466 183.706 149.45 183.502 149.315C183.253 149.152 183.317 149.029 183.834 148.664C184.623 148.116 184.869 147.614 184.786 146.742C184.701 145.798 184.101 145.021 183.285 144.8C182.999 144.723 182.853 144.721 182.46 144.774C182.204 144.812 181.931 144.86 181.858 144.883L181.854 144.877Z" fill="#FFFDF9" fill-opacity="0.1" stroke="#333333" stroke-opacity="0.1" stroke-width="0.8" stroke-miterlimit="10"/>
<path d="M234.715 136.297C233.656 136.732 233.242 138.18 233.838 139.377C233.983 139.659 234.06 139.756 234.378 139.985C234.676 140.198 234.852 140.275 235.22 140.365C235.478 140.425 235.706 140.501 235.734 140.54C235.794 140.639 235.574 140.879 235.326 140.989C235.21 141.04 234.919 141.113 234.678 141.153C234.159 141.237 233.984 141.189 233.467 140.858C233.264 140.731 233.083 140.651 233.032 140.67C232.89 140.719 232.938 141.013 233.135 141.305C233.617 142.003 234.491 142.382 235.557 142.343C236.971 142.295 238.069 141.245 238.333 139.687C238.409 139.259 238.204 137.996 237.987 137.561C237.546 136.664 236.897 136.197 235.968 136.112C235.617 136.081 235.022 136.167 234.715 136.294L234.715 136.297Z" fill="#FFFDF9" fill-opacity="0.1" stroke="#333333" stroke-opacity="0.1" stroke-width="0.8" stroke-miterlimit="10"/>
<path d="M102.218 120.474C102.1 120.618 101.845 122.176 101.853 122.678C101.893 124.345 102.58 126.775 103.799 129.536C105.265 132.858 107.718 136.512 110.937 140.168C113.856 143.493 116.502 145.913 120.07 148.531C123.043 150.712 125.718 152.436 128.73 154.106C130.637 155.165 134.105 156.972 134.299 157.006C134.337 157.012 134.369 156.88 134.438 156.419C134.503 155.948 134.512 155.776 134.473 155.571C134.407 155.245 134.173 154.904 133.863 154.67C133.495 154.393 131.209 153.102 129.083 151.969C126.456 150.57 124.879 149.563 122.291 147.632C117.813 144.3 114.561 141.285 113.001 139.029C112.565 138.389 112.228 137.725 112.356 137.747C112.374 137.75 112.568 137.976 112.787 138.248C114.522 140.395 116.507 142.412 119.28 144.83C121.274 146.57 123.055 147.874 125.466 149.36C126.895 150.24 128.719 151.258 132.533 153.313C133.675 153.93 134.289 154.142 134.74 154.096C135.4 154.026 136.091 153.73 136.245 153.452C136.31 153.334 136.305 153.33 136.138 153.256C133.202 151.908 129.759 149.978 126.235 147.694C120.64 144.065 117.414 141.426 113.527 137.296C111.519 135.167 110.044 133.369 108.401 131.061C107.3 129.508 106.67 128.52 105.575 126.62C104.16 124.158 103.11 122.143 102.742 121.159C102.472 120.443 102.365 120.299 102.213 120.482L102.218 120.474Z" fill="#FFFDF9" fill-opacity="0.1" stroke="#333333" stroke-opacity="0.1" stroke-width="0.8" stroke-miterlimit="10"/>
<path d="M156.82 130.084C156.743 130.145 156.558 130.347 156.397 130.531C155.522 131.555 152.425 134.308 149.987 136.224C148.686 137.248 146.54 138.715 144.816 139.761C141.781 141.593 137.74 143.558 134.523 144.753C132.38 145.551 129.305 146.484 126.799 147.096C126.492 147.171 126.234 147.237 126.224 147.244C126.201 147.258 126.943 147.78 127.677 148.278L128.215 148.633L129.337 148.299C131.264 147.723 133.315 146.956 135.815 145.863C138.055 144.886 139.614 144.087 141.356 143.026C141.494 142.936 141.612 142.879 141.608 142.902C141.595 142.981 141.281 143.279 140.931 143.554C138.911 145.138 134.911 146.9 129.628 148.539C128.687 148.829 128.587 148.869 128.674 148.92C129.448 149.379 130.118 149.763 130.529 149.985L131.043 150.267L132.067 149.937C135.654 148.786 138.461 147.603 141.654 145.892C143.915 144.676 145.355 143.799 147.3 142.435C148.747 141.418 149.346 140.96 150.375 140.082C153.194 137.688 155.815 134.486 156.65 132.421C156.867 131.884 157.164 130.483 157.121 130.2C157.086 129.972 156.999 129.936 156.823 130.084L156.82 130.084ZM154.321 134.572C154.321 134.572 154.248 134.718 154.156 134.884C153.842 135.459 153.007 136.46 152.032 137.436C150.017 139.456 146.83 141.903 145.338 142.579C145.156 142.661 144.991 142.713 144.975 142.698C144.961 142.678 145.65 142.169 146.496 141.569C148.504 140.15 149.32 139.517 150.622 138.364C151.95 137.188 153.005 136.097 153.981 134.887C154.134 134.701 154.271 134.551 154.292 134.555C154.309 134.558 154.326 134.564 154.324 134.572L154.321 134.572Z" fill="#FFFDF9" fill-opacity="0.1" stroke="#333333" stroke-opacity="0.1" stroke-width="0.8" stroke-miterlimit="10"/>
<path d="M108.854 145.256C108.271 145.294 107.812 145.537 107.502 145.971C107.339 146.2 107.3 146.287 107.222 146.662C107.072 147.349 107.13 147.839 107.418 148.282C107.623 148.602 107.921 148.798 108.35 148.901C108.937 149.042 109.263 148.911 109.578 148.394C109.781 148.076 109.882 148.078 110.146 148.421C110.447 148.81 110.909 150.092 111.197 151.32C111.363 152.017 111.431 152.587 111.606 154.598C111.792 156.77 111.853 157.056 112.282 157.668C112.755 158.341 113.341 158.677 114.244 158.791C115.242 158.917 115.871 158.713 116.172 158.158C116.382 157.766 116.452 156.921 116.31 156.468C116.145 155.921 115.394 155.564 114.882 155.783C114.743 155.843 114.643 155.936 114.508 156.125C114.408 156.266 114.296 156.376 114.261 156.369C114.098 156.341 113.636 155.436 113.577 155.018C113.506 154.532 113.543 153.981 113.702 153.039L113.864 152.114L114.051 151.853C114.152 151.706 114.366 151.492 114.523 151.37C114.679 151.247 114.808 151.126 114.812 151.106C114.815 151.085 114.748 151.041 114.663 151.014C113.833 150.736 113.512 150.551 113.285 150.218C113.212 150.106 113.039 149.654 112.872 149.136C112.543 148.089 112.298 147.555 111.874 146.944C111.376 146.228 110.806 145.748 110.129 145.473C109.798 145.34 109.161 145.229 108.855 145.25L108.854 145.256Z" fill="#FFFDF9" fill-opacity="0.1" stroke="#333333" stroke-opacity="0.1" stroke-width="0.8" stroke-miterlimit="10"/>
<path d="M140.8 150.86C140 150.896 139.147 151.262 138.389 151.893C137.914 152.292 137.681 152.545 137.16 153.206C136.43 154.136 136.307 154.222 135.337 154.507C135.027 154.6 134.764 154.694 134.755 154.714C134.741 154.738 134.805 154.905 134.894 155.083C134.983 155.26 135.079 155.55 135.106 155.719C135.151 155.994 135.142 156.097 135.031 156.713C134.764 158.167 134.336 159 133.568 159.569C133.272 159.787 133.252 159.781 133.161 159.444C133.02 158.931 132.793 158.738 132.293 158.702C131.852 158.669 131.447 158.889 131.224 159.29C131.072 159.557 130.905 160.151 130.897 160.473C130.874 161.081 131.181 161.506 131.859 161.808C132.163 161.942 133.134 162.112 133.43 162.083C134.239 162.003 135.034 161.504 135.472 160.802C135.55 160.678 135.795 160.19 136.013 159.713C137.059 157.461 137.22 157.12 137.488 156.64C137.977 155.746 138.856 154.546 139.511 153.872C139.734 153.645 140.064 153.451 140.192 153.474C140.291 153.491 140.319 153.553 140.384 153.87C140.488 154.37 140.797 154.625 141.373 154.69C141.747 154.729 142.034 154.665 142.342 154.465C142.798 154.173 143.052 153.699 143.151 152.967C143.204 152.596 143.202 152.47 143.144 152.253C143.005 151.728 142.635 151.31 142.113 151.084C141.793 150.947 141.173 150.838 140.801 150.854L140.8 150.86Z" fill="#FFFDF9" fill-opacity="0.1" stroke="#333333" stroke-opacity="0.1" stroke-width="0.8" stroke-miterlimit="10"/>
<path d="M117.605 148.829C116.54 148.987 115.246 149.167 114.719 149.231C114.197 149.298 113.748 149.363 113.722 149.374C113.648 149.418 113.734 149.684 113.899 149.941C114.109 150.265 114.378 150.42 114.943 150.549C115.426 150.655 115.821 150.676 116.512 150.63C117.172 150.58 118.697 150.38 120.155 150.151C121.296 149.97 121.587 149.904 121.401 149.872C121.331 149.859 120.078 148.948 119.805 148.714C119.693 148.613 119.587 148.535 119.569 148.535C119.552 148.532 118.668 148.664 117.603 148.822L117.605 148.829Z" fill="#FFFDF9" fill-opacity="0.1" stroke="#333333" stroke-opacity="0.1" stroke-width="0.8" stroke-miterlimit="10"/>
<path d="M119.986 150.653C118.821 150.838 117.449 151.053 116.933 151.136C115.416 151.377 114.951 151.547 114.642 151.978C114.425 152.276 114.217 152.967 114.225 153.349C114.229 153.527 114.078 153.536 116.184 153.273C118.84 152.935 121.334 152.546 123.409 152.13C123.879 152.036 124.295 151.953 124.348 151.944C124.406 151.934 124.265 151.819 123.802 151.513C123.452 151.287 122.931 150.926 122.639 150.71L122.108 150.32L119.989 150.653L119.986 150.653Z" fill="#FFFDF9" fill-opacity="0.1" stroke="#333333" stroke-opacity="0.1" stroke-width="0.8" stroke-miterlimit="10"/>
<path d="M107.371 149.546C107.002 149.583 106.879 149.855 106.968 150.428C107.028 150.819 107.076 150.992 107.244 151.349C107.317 151.499 107.362 151.636 107.348 151.645C107.287 151.683 107 151.426 106.884 151.229C106.82 151.115 106.744 150.916 106.718 150.789C106.694 150.656 106.646 150.399 106.612 150.216C106.578 150.033 106.514 149.818 106.471 149.739C106.341 149.521 106.072 149.381 105.641 149.309C104.877 149.184 104.689 149.436 104.74 150.496C104.79 151.443 104.908 151.88 105.254 152.384C105.583 152.852 105.735 152.96 106.345 153.124C107.348 153.392 110.342 153.842 110.616 153.77C111.063 153.648 111.173 152.693 110.867 151.636C110.613 150.774 110.284 150.138 110.016 150.022C109.958 149.994 109.81 149.968 109.686 149.955C109.1 149.909 109.016 150.494 109.462 151.489C109.57 151.732 109.646 151.931 109.625 151.928C109.555 151.915 109.297 151.627 109.176 151.429C109.002 151.138 108.891 150.849 108.822 150.487C108.74 150.065 108.62 149.879 108.322 149.734C108.064 149.614 107.624 149.522 107.374 149.547L107.371 149.546Z" fill="#FFFDF9" fill-opacity="0.1" stroke="#333333" stroke-opacity="0.1" stroke-width="0.8" stroke-miterlimit="10"/>
<path d="M141.036 155.486C140.734 155.532 140.557 155.668 140.403 155.965C140.23 156.303 139.973 156.573 139.592 156.833C139.394 156.966 139.222 157.074 139.199 157.069C139.182 157.066 139.262 156.967 139.38 156.843C139.834 156.375 140.106 155.862 140.082 155.522C140.065 155.262 139.592 155.104 139.236 155.236C138.889 155.367 138.138 156.194 137.791 156.826C137.412 157.517 137.293 158.09 137.472 158.373C137.553 158.507 137.594 158.532 137.941 158.623C138.65 158.819 141.153 159.284 141.735 159.333C142.4 159.386 142.569 159.347 143.032 159.03C143.453 158.735 143.77 158.314 144.075 157.63C144.485 156.713 144.514 156.344 144.205 156.137C143.98 155.987 143.339 155.892 143.092 155.969C142.782 156.064 142.75 156.11 142.26 156.953C142.1 157.23 141.577 157.618 141.405 157.588C141.393 157.586 141.478 157.478 141.598 157.343C141.917 156.992 142.249 156.417 142.298 156.138C142.33 155.952 142.321 155.885 142.257 155.805C142.082 155.573 141.48 155.417 141.035 155.489L141.036 155.486Z" fill="#FFFDF9" fill-opacity="0.1" stroke="#333333" stroke-opacity="0.1" stroke-width="0.8" stroke-miterlimit="10"/>
<path d="M102.578 148.815C102.14 148.819 101.662 148.978 101.335 149.236C100.602 149.811 100.233 151.245 100.566 152.256C100.872 153.196 101.785 153.923 102.679 153.939C103.225 153.951 103.998 153.613 104.522 153.138C104.798 152.884 104.893 152.751 104.869 152.633C104.848 152.53 104.713 152.56 104.417 152.73C103.954 152.994 103.787 153.039 103.413 153.001C103.03 152.961 102.781 152.86 102.659 152.701C102.51 152.507 102.593 152.428 103.092 152.285C103.851 152.074 104.178 151.75 104.348 151.052C104.537 150.297 104.281 149.533 103.708 149.142C103.507 149.005 103.395 148.965 103.076 148.9C102.867 148.86 102.643 148.824 102.58 148.822L102.578 148.815Z" fill="#FFFDF9" fill-opacity="0.1" stroke="#333333" stroke-opacity="0.1" stroke-width="0.8" stroke-miterlimit="10"/>
<path d="M145.866 156.424C144.928 156.475 144.217 157.486 144.356 158.574C144.392 158.832 144.426 158.928 144.61 159.191C144.783 159.437 144.899 159.544 145.161 159.713C145.344 159.829 145.5 159.949 145.511 159.987C145.531 160.08 145.296 160.207 145.074 160.225C144.97 160.234 144.725 160.212 144.528 160.177C144.103 160.103 143.98 160.018 143.668 159.622C143.545 159.469 143.427 159.358 143.382 159.359C143.259 159.358 143.217 159.6 143.29 159.879C143.476 160.55 144.052 161.079 144.888 161.337C145.997 161.681 147.131 161.164 147.756 160.027C147.931 159.716 148.112 158.681 148.061 158.286C147.961 157.471 147.585 156.935 146.888 156.618C146.623 156.499 146.139 156.406 145.867 156.421L145.866 156.424Z" fill="#FFFDF9" fill-opacity="0.1" stroke="#333333" stroke-opacity="0.1" stroke-width="0.8" stroke-miterlimit="10"/>
<path d="M1.10653 157.212C0.990525 157.485 1.27069 159.996 1.49613 160.766C2.26617 163.318 4.32951 166.77 7.33241 170.503C10.9437 174.996 16.1785 179.577 22.5604 183.834C28.3533 187.709 33.3516 190.306 39.8166 192.813C45.2033 194.901 49.9491 196.413 55.1762 197.696C58.4873 198.512 64.4562 199.81 64.763 199.78C64.8226 199.774 64.8146 199.556 64.7216 198.815C64.6181 198.062 64.5587 197.792 64.413 197.494C64.1756 197.019 63.6795 196.594 63.1153 196.366C62.4452 196.097 58.4669 195.087 54.7974 194.25C50.262 193.22 47.4674 192.343 42.7645 190.475C34.632 187.258 28.4713 184.004 25.1725 181.194C24.2455 180.394 23.4585 179.515 23.6601 179.494C23.6875 179.492 24.075 179.756 24.5195 180.082C28.0343 182.648 31.8697 184.906 37.0566 187.446C40.7886 189.274 44.0135 190.521 48.262 191.779C50.7794 192.523 53.9489 193.31 60.5429 194.845C62.5184 195.306 63.5288 195.371 64.1868 195.105C65.1468 194.714 66.0566 193.963 66.1688 193.468C66.2172 193.259 66.2075 193.255 65.9256 193.212C60.9487 192.393 54.9641 190.892 48.7063 188.881C38.7716 185.684 32.8114 182.998 25.2237 178.298C21.3071 175.877 18.3301 173.736 14.8837 170.883C12.5716 168.961 11.2058 167.707 8.75647 165.248C5.58616 162.059 3.15414 159.403 2.18474 158.043C1.47485 157.056 1.2535 156.879 1.10337 157.226L1.10653 157.212Z" fill="#FFFDF9" fill-opacity="0.1" stroke="#333333" stroke-opacity="0.1" stroke-width="0.8" stroke-miterlimit="10"/>
<path d="M87.0887 148.633C86.9998 148.761 86.8076 149.151 86.6442 149.504C85.7673 151.458 82.2931 157.028 79.4519 161.025C77.9364 163.162 75.3415 166.342 73.1999 168.693C69.4277 172.817 64.2019 177.576 59.8854 180.797C57.0112 182.946 52.7959 185.7 49.2977 187.718C48.8692 187.965 48.5111 188.177 48.4988 188.192C48.4696 188.224 49.8047 188.711 51.1177 189.163L52.0748 189.48L53.6171 188.485C56.2622 186.771 59.0112 184.71 62.2964 181.955C65.2408 179.489 67.238 177.589 69.3996 175.208C69.5695 175.01 69.7221 174.871 69.7258 174.909C69.7386 175.036 69.3959 175.63 68.9862 176.203C66.6308 179.511 61.3811 183.94 54.1552 188.73C52.8667 189.581 52.7337 189.684 52.8859 189.726C54.2423 190.102 55.411 190.407 56.1216 190.573L57.0128 190.787L58.4073 189.84C63.2975 186.529 67.0043 183.503 71.066 179.497C73.94 176.655 75.7268 174.686 78.064 171.75C79.8011 169.563 80.5046 168.6 81.6753 166.806C84.8839 161.908 87.4532 155.85 87.8283 152.309C87.9253 151.388 87.7741 149.101 87.5887 148.683C87.4392 148.347 87.294 148.328 87.0933 148.633L87.0887 148.633ZM85.25 156.622C85.25 156.622 85.2018 156.878 85.1344 157.174C84.9084 158.194 84.0817 160.095 83.0352 162.018C80.872 165.995 77.1321 171.132 75.1823 172.813C74.9438 173.018 74.7184 173.168 74.689 173.152C74.6587 173.127 75.4755 172.048 76.4887 170.759C78.898 167.712 79.852 166.387 81.3151 164.052C82.806 161.671 83.9238 159.536 84.874 157.253C85.0237 156.901 85.1657 156.611 85.1978 156.608C85.2253 156.605 85.2532 156.607 85.2546 156.621L85.25 156.622Z" fill="#FFFDF9" fill-opacity="0.1" stroke="#333333" stroke-opacity="0.1" stroke-width="0.8" stroke-miterlimit="10"/>
<path d="M21.6014 192.569C20.7442 192.878 20.1586 193.45 19.8784 194.251C19.7312 194.674 19.7092 194.824 19.7523 195.436C19.8189 196.559 20.1143 197.289 20.7349 197.849C21.1783 198.255 21.7093 198.43 22.396 198.403C23.3364 198.37 23.7693 198.028 24.0225 197.096C24.1912 196.519 24.3446 196.48 24.886 196.895C25.5022 197.365 26.7404 199.144 27.6955 200.913C28.2405 201.917 28.5848 202.765 29.7031 205.79C30.906 209.058 31.1189 209.474 32.0232 210.232C33.0185 211.067 34.0401 211.335 35.4436 211.123C36.9933 210.891 37.8505 210.306 38.0661 209.321C38.2138 208.628 37.9596 207.296 37.5531 206.658C37.073 205.885 35.7964 205.657 35.1214 206.214C34.9377 206.365 34.8269 206.552 34.7047 206.901C34.6153 207.162 34.4936 207.378 34.4386 207.384C34.1822 207.41 33.1042 206.213 32.8385 205.594C32.5257 204.875 32.3462 204.01 32.184 202.489L32.0338 200.994L32.2028 200.512C32.2913 200.242 32.5219 199.82 32.7043 199.565C32.8868 199.309 33.029 199.067 33.0257 199.034C33.0224 199.001 32.9027 198.961 32.7634 198.956C31.4007 198.884 30.84 198.736 30.3586 198.32C30.201 198.179 29.7497 197.555 29.2788 196.829C28.3398 195.357 27.7448 194.638 26.8496 193.878C25.7978 192.987 24.7394 192.491 23.6064 192.358C23.0542 192.295 22.0512 192.395 21.6004 192.559L21.6014 192.569Z" fill="#FFFDF9" fill-opacity="0.1" stroke="#333333" stroke-opacity="0.1" stroke-width="0.8" stroke-miterlimit="10"/>
<path d="M71.9007 187.521C70.7149 187.92 69.5916 188.849 68.7227 190.147C68.1805 190.966 67.9382 191.455 67.4385 192.697C66.7396 194.443 66.5917 194.629 65.2575 195.484C64.8318 195.76 64.4784 196.018 64.4726 196.052C64.4631 196.096 64.6296 196.326 64.8383 196.561C65.047 196.796 65.3144 197.201 65.4274 197.451C65.6114 197.855 65.6417 198.018 65.7373 199.015C65.9556 201.371 65.6682 202.838 64.7578 204.045C64.4065 204.508 64.3739 204.506 64.0944 204.026C63.6647 203.296 63.2422 203.096 62.4762 203.254C61.8009 203.393 61.2879 203.905 61.1238 204.619C61.0098 205.096 61.0119 206.083 61.1361 206.583C61.3607 207.529 62.001 208.053 63.1473 208.227C63.6593 208.304 65.189 208.15 65.6205 207.979C66.7992 207.509 67.7795 206.399 68.1376 205.129C68.2029 204.904 68.362 204.048 68.4869 203.219C69.0967 199.299 69.1944 198.705 69.3906 197.85C69.7445 196.263 70.5524 194.036 71.248 192.718C71.4853 192.271 71.899 191.831 72.1006 191.811C72.2563 191.795 72.3248 191.878 72.5562 192.339C72.9254 193.066 73.4974 193.327 74.3894 193.18C74.9668 193.08 75.3702 192.859 75.7469 192.417C76.3066 191.772 76.486 190.933 76.3221 189.763C76.2438 189.168 76.1873 188.974 76.0081 188.665C75.5766 187.916 74.843 187.429 73.9653 187.304C73.4259 187.23 72.4503 187.328 71.8998 187.512L71.9007 187.521Z" fill="#FFFDF9" fill-opacity="0.1" stroke="#333333" stroke-opacity="0.1" stroke-width="0.8" stroke-miterlimit="10"/>
<path d="M36.2452 194.326C34.7149 195.026 32.8509 195.859 32.0877 196.182C31.3342 196.51 30.6882 196.802 30.6539 196.83C30.5621 196.929 30.8033 197.303 31.1598 197.628C31.6128 198.039 32.0832 198.162 32.9856 198.119C33.7537 198.075 34.3553 197.938 35.3731 197.57C36.341 197.212 38.5436 196.25 40.6334 195.271C42.268 194.504 42.6755 194.278 42.3824 194.307C42.2725 194.318 40.0062 193.45 39.496 193.207C39.2863 193.1 39.0937 193.024 39.0667 193.032C39.0392 193.034 37.7701 193.618 36.2397 194.317L36.2452 194.326Z" fill="#FFFDF9" fill-opacity="0.1" stroke="#333333" stroke-opacity="0.1" stroke-width="0.8" stroke-miterlimit="10"/>
<path d="M40.5949 196.12C38.925 196.905 36.9587 197.824 36.2213 198.174C34.0477 199.194 33.4233 199.656 33.1426 200.453C32.9436 201.004 32.9256 202.16 33.1001 202.745C33.1829 203.017 32.9595 203.096 36.0063 201.788C39.846 200.13 43.4209 198.461 46.3575 196.932C47.0212 196.585 47.6103 196.279 47.6854 196.243C47.7691 196.201 47.5076 196.085 46.6844 195.812C46.063 195.613 45.1274 195.28 44.5977 195.072L43.6349 194.699L40.5994 196.12L40.5949 196.12Z" fill="#FFFDF9" fill-opacity="0.1" stroke="#333333" stroke-opacity="0.1" stroke-width="0.8" stroke-miterlimit="10"/>
<path d="M21.2016 199.818C20.6635 200.033 20.5953 200.505 20.9717 201.35C21.2286 201.927 21.3737 202.174 21.7778 202.65C21.9507 202.851 22.0763 203.043 22.0599 203.064C21.985 203.147 21.444 202.874 21.1872 202.62C21.0429 202.473 20.8441 202.198 20.7515 202.013C20.6579 201.818 20.4767 201.443 20.3481 201.176C20.2194 200.908 20.0316 200.605 19.9332 200.501C19.6461 200.221 19.1826 200.12 18.5052 200.193C17.3067 200.328 17.1317 200.796 17.6593 202.409C18.1369 203.847 18.5003 204.47 19.2343 205.099C19.9264 205.68 20.2002 205.78 21.1848 205.772C22.8024 205.756 27.4851 205.167 27.8646 204.939C28.4833 204.559 28.2428 203.04 27.3335 201.541C26.5862 200.321 25.8218 199.481 25.3713 199.418C25.2723 199.399 25.0387 199.423 24.8477 199.456C23.9499 199.636 24.0718 200.573 25.1644 201.916C25.4288 202.246 25.6276 202.52 25.5955 202.523C25.4856 202.534 24.9756 202.201 24.7096 201.948C24.325 201.573 24.0352 201.175 23.7784 200.646C23.476 200.031 23.2164 199.796 22.7071 199.7C22.2694 199.625 21.5709 199.671 21.2062 199.817L21.2016 199.818Z" fill="#FFFDF9" fill-opacity="0.1" stroke="#333333" stroke-opacity="0.1" stroke-width="0.8" stroke-miterlimit="10"/>
<path d="M74.2206 194.55C73.7874 194.751 73.5802 195.037 73.4755 195.56C73.3596 196.156 73.0886 196.681 72.6271 197.245C72.3879 197.535 72.1761 197.775 72.1394 197.778C72.1119 197.781 72.1902 197.593 72.3141 197.353C72.7955 196.436 72.9866 195.529 72.8055 195.015C72.6687 194.621 71.892 194.58 71.4143 194.937C70.9499 195.287 70.1759 196.884 69.9232 198.006C69.6488 199.234 69.7148 200.168 70.1026 200.527C70.2818 200.699 70.3533 200.72 70.9122 200.712C72.0594 200.71 76.0116 200.356 76.9053 200.181C77.9259 199.978 78.1624 199.845 78.7224 199.158C79.2277 198.523 79.5236 197.739 79.6913 196.554C79.9156 194.965 79.8016 194.383 79.2508 194.197C78.8486 194.061 77.8484 194.191 77.5101 194.414C77.0849 194.694 77.0563 194.778 76.6806 196.287C76.5593 196.784 75.9387 197.605 75.6685 197.633C75.6502 197.634 75.7315 197.432 75.8535 197.173C76.1832 196.494 76.4362 195.467 76.3908 195.016C76.3606 194.715 76.3182 194.615 76.1882 194.519C75.8268 194.237 74.857 194.254 74.2211 194.555L74.2206 194.55Z" fill="#FFFDF9" fill-opacity="0.1" stroke="#333333" stroke-opacity="0.1" stroke-width="0.8" stroke-miterlimit="10"/>
<path d="M13.7038 200.745C13.0478 200.939 12.3991 201.389 12.0182 201.926C11.1628 203.127 11.2203 205.494 12.1491 206.911C13.008 208.229 14.6865 208.958 16.0337 208.599C16.8586 208.383 17.8741 207.531 18.458 206.575C18.763 206.065 18.8493 205.819 18.7626 205.648C18.6875 205.499 18.4991 205.603 18.1264 205.992C17.5441 206.596 17.3132 206.738 16.7358 206.839C16.1446 206.941 15.728 206.893 15.4773 206.699C15.1715 206.464 15.2622 206.308 15.9495 205.874C16.9989 205.222 17.3511 204.584 17.3096 203.435C17.2724 202.19 16.5637 201.122 15.5377 200.765C15.1782 200.64 14.9917 200.625 14.4865 200.662C14.1562 200.69 13.8041 200.73 13.7093 200.754L13.7038 200.745Z" fill="#FFFDF9" fill-opacity="0.1" stroke="#333333" stroke-opacity="0.1" stroke-width="0.8" stroke-miterlimit="10"/>
<path d="M81.864 193.928C80.4782 194.409 79.842 196.272 80.5135 197.889C80.6768 198.272 80.7688 198.405 81.1579 198.731C81.5216 199.036 81.7414 199.152 82.205 199.3C82.5297 199.4 82.8146 199.519 82.8477 199.572C82.9169 199.708 82.6181 200.004 82.2928 200.127C82.1413 200.185 81.7645 200.256 81.453 200.287C80.7843 200.354 80.5637 200.277 79.9282 199.799C79.6785 199.616 79.4536 199.496 79.3863 199.517C79.2019 199.569 79.2411 199.959 79.4709 200.358C80.0341 201.312 81.1229 201.882 82.4869 201.92C84.2967 201.976 85.7777 200.692 86.2315 198.672C86.3609 198.118 86.1928 196.445 85.9486 195.857C85.452 194.645 84.6588 193.979 83.4785 193.789C83.0321 193.72 82.2658 193.783 81.8635 193.923L81.864 193.928Z" fill="#FFFDF9" fill-opacity="0.1" stroke="#333333" stroke-opacity="0.1" stroke-width="0.8" stroke-miterlimit="10"/>
</svg>
