<svg width="63" height="59" viewBox="0 0 63 59" fill="none" xmlns="http://www.w3.org/2000/svg">
<g clip-path="url(#clip0_431_2358)">
<path d="M43.9432 22.125H60.2162C61.7536 22.125 62.9999 23.3797 62.9999 24.9275V39.8501C62.9999 45.5386 58.4194 50.15 52.769 50.15H52.7207C47.0703 50.1508 42.4891 45.54 42.4883 39.8515C42.4883 39.851 42.4883 39.8506 42.4883 39.85V23.5897C42.4883 22.7808 43.1397 22.125 43.9432 22.125Z" fill="#5059C9"/>
<path d="M54.9417 19.1754C58.5829 19.1754 61.5347 16.2037 61.5347 12.5379C61.5347 8.8721 58.5829 5.90039 54.9417 5.90039C51.3004 5.90039 48.3486 8.8721 48.3486 12.5379C48.3486 16.2037 51.3004 19.1754 54.9417 19.1754Z" fill="#5059C9"/>
<path d="M34.43 19.175C39.6896 19.175 43.9533 14.8825 43.9533 9.58751C43.9533 4.29248 39.6896 0 34.43 0C29.1704 0 24.9067 4.29248 24.9067 9.58751C24.9067 14.8825 29.1704 19.175 34.43 19.175Z" fill="#7B83EB"/>
<path d="M47.1282 22.125H20.2668C18.7477 22.1628 17.546 23.432 17.5812 24.9614V41.9815C17.3691 51.1593 24.5815 58.7754 33.6975 59C42.8135 58.7754 50.0259 51.1593 49.8138 41.9815V24.9614C49.849 23.432 48.6473 22.1628 47.1282 22.125Z" fill="#7B83EB"/>
<path opacity="0.1" d="M35.1628 22.125V45.9758C35.1555 47.0695 34.4971 48.0521 33.4925 48.4685C33.1727 48.6047 32.8289 48.6749 32.4816 48.675H18.8706C18.6802 48.1883 18.5044 47.7015 18.3578 47.2C17.845 45.5075 17.5833 43.748 17.5813 41.9785V24.957C17.5461 23.43 18.7458 22.1628 20.2625 22.125H35.1628Z" fill="black"/>
<path opacity="0.2" d="M33.6976 22.125V47.4507C33.6976 47.8004 33.6278 48.1465 33.4925 48.4685C33.0789 49.4799 32.1029 50.1427 31.0165 50.15H19.5593C19.3102 49.6632 19.0758 49.1765 18.8706 48.675C18.6655 48.1735 18.5044 47.7015 18.3578 47.2C17.845 45.5075 17.5833 43.748 17.5813 41.9785V24.957C17.5461 23.43 18.7458 22.1628 20.2625 22.125H33.6976Z" fill="black"/>
<path opacity="0.2" d="M33.6976 22.125V44.5008C33.6864 45.9869 32.4926 47.1888 31.0165 47.2H18.3578C17.845 45.5075 17.5833 43.748 17.5813 41.9785V24.957C17.5461 23.43 18.7458 22.1628 20.2625 22.125H33.6976Z" fill="black"/>
<path opacity="0.2" d="M32.2325 22.125V44.5008C32.2213 45.9869 31.0274 47.1888 29.5513 47.2H18.3578C17.845 45.5075 17.5833 43.748 17.5813 41.9785V24.957C17.5461 23.43 18.7458 22.1628 20.2625 22.125H32.2325Z" fill="black"/>
<path opacity="0.1" d="M35.163 14.5V19.1463C34.9139 19.161 34.6795 19.1758 34.4304 19.1758C34.1814 19.1758 33.947 19.161 33.6979 19.1463C33.2033 19.1132 32.7129 19.0342 32.2328 18.9103C29.2659 18.2029 26.8148 16.1082 25.6397 13.2758C25.4376 12.8001 25.2806 12.3062 25.1709 11.8008H32.4818C33.9603 11.8064 35.1574 13.0116 35.163 14.5Z" fill="black"/>
<path opacity="0.2" d="M33.6978 15.9746V19.1459C33.2032 19.1128 32.7128 19.0338 32.2327 18.9099C29.2658 18.2025 26.8147 16.1078 25.6396 13.2754H31.0166C32.495 13.281 33.6922 14.4862 33.6978 15.9746Z" fill="black"/>
<path opacity="0.2" d="M33.6978 15.9746V19.1459C33.2032 19.1128 32.7128 19.0338 32.2327 18.9099C29.2658 18.2025 26.8147 16.1078 25.6396 13.2754H31.0166C32.495 13.281 33.6922 14.4862 33.6978 15.9746Z" fill="black"/>
<path opacity="0.2" d="M32.2327 15.9746V18.9099C29.2658 18.2025 26.8147 16.1078 25.6396 13.2754H29.5515C31.03 13.2811 32.227 14.4862 32.2327 15.9746Z" fill="black"/>
<path d="M2.68554 13.2754H29.547C31.0302 13.2754 32.2325 14.4859 32.2325 15.9791V43.0217C32.2325 44.5149 31.0301 45.7254 29.547 45.7254H2.68554C1.20235 45.7254 0 44.5149 0 43.0217V15.9791C0 14.4859 1.20238 13.2754 2.68554 13.2754Z" fill="url(#paint0_linear_431_2358)"/>
<path d="M23.1838 23.5685H17.8141V38.289H14.3931V23.5685H9.04834V20.7129H23.1838V23.5685Z" fill="white"/>
</g>
<defs>
<linearGradient id="paint0_linear_431_2358" x1="5.59945" y1="11.1628" x2="26.8459" y2="47.7143" gradientUnits="userSpaceOnUse">
<stop stop-color="#5A62C3"/>
<stop offset="0.5" stop-color="#4D55BD"/>
<stop offset="1" stop-color="#3940AB"/>
</linearGradient>
<clipPath id="clip0_431_2358">
<rect width="63" height="59" fill="white"/>
</clipPath>
</defs>
</svg>
