<svg width="97" height="99" viewBox="0 0 97 99" fill="none" xmlns="http://www.w3.org/2000/svg">
<path d="M0 88.7167V27.8828H96.3203V88.7167C96.3203 94.2931 91.7578 98.8557 86.1813 98.8557H10.139C4.56254 98.8557 0 94.2931 0 88.7167Z" fill="#FFFDF9"/>
<path d="M96.3203 17.7425V32.951H0V17.7425C0 12.1661 4.56254 7.60352 10.139 7.60352H86.1813C91.7578 7.60352 96.3203 12.1661 96.3203 17.7425Z" fill="#FC6464"/>
<path d="M70.9724 25.3481C75.1721 25.3481 78.5766 21.9436 78.5766 17.7439C78.5766 13.5442 75.1721 10.1396 70.9724 10.1396C66.7727 10.1396 63.3682 13.5442 63.3682 17.7439C63.3682 21.9436 66.7727 25.3481 70.9724 25.3481Z" fill="#B71C1C"/>
<path d="M25.3474 25.3481C29.5471 25.3481 32.9516 21.9436 32.9516 17.7439C32.9516 13.5442 29.5471 10.1396 25.3474 10.1396C21.1477 10.1396 17.7432 13.5442 17.7432 17.7439C17.7432 21.9436 21.1477 25.3481 25.3474 25.3481Z" fill="#B71C1C"/>
<path d="M70.9718 0C68.1836 0 65.9023 2.28127 65.9023 5.06949V17.7432C65.9023 20.5314 68.1836 22.8127 70.9718 22.8127C73.7601 22.8127 76.0413 20.5314 76.0413 17.7432V5.06949C76.0413 2.28127 73.7601 0 70.9718 0Z" fill="#FFFDF9"/>
<path d="M25.3468 0C22.5586 0 20.2773 2.28127 20.2773 5.06949V17.7432C20.2773 20.5314 22.5586 22.8127 25.3468 22.8127C28.1351 22.8127 30.4163 20.5314 30.4163 17.7432V5.06949C30.4163 2.28127 28.1351 0 25.3468 0Z" fill="#FFFDF9"/>
<path d="M30.4163 43.0918H20.2773V53.2308H30.4163V43.0918Z" fill="#FF87DD"/>
<path d="M45.6253 43.0918H35.4863V53.2308H45.6253V43.0918Z" fill="#FF87DD"/>
<path d="M60.8333 43.0918H50.6943V53.2308H60.8333V43.0918Z" fill="#FF87DD"/>
<path d="M76.0413 43.0918H65.9023V53.2308H76.0413V43.0918Z" fill="#FF87DD"/>
<path d="M30.4163 58.3008H20.2773V68.4398H30.4163V58.3008Z" fill="#FF87DD"/>
<path d="M45.6253 58.3008H35.4863V68.4398H45.6253V58.3008Z" fill="#FF87DD"/>
<path d="M60.8333 58.3008H50.6943V68.4398H60.8333V58.3008Z" fill="#FF87DD"/>
<path d="M76.0413 58.3008H65.9023V68.4398H76.0413V58.3008Z" fill="#FF87DD"/>
<path d="M30.4163 73.5078H20.2773V83.6468H30.4163V73.5078Z" fill="#FF87DD"/>
<path d="M45.6253 73.5078H35.4863V83.6468H45.6253V73.5078Z" fill="#FF87DD"/>
<path d="M60.8333 73.5078H50.6943V83.6468H60.8333V73.5078Z" fill="#FF87DD"/>
<path d="M76.0413 73.5078H65.9023V83.6468H76.0413V73.5078Z" fill="#FF87DD"/>
</svg>
