<svg width="111" height="72" viewBox="0 0 111 72" fill="none" xmlns="http://www.w3.org/2000/svg">
<path d="M1.11741 1.16102C0.938775 1.47773 0.973346 4.55844 1.15775 5.52008C1.79738 8.7102 3.93527 13.1499 7.20838 18.0445C11.1442 23.9352 17.0911 30.1312 24.5074 36.0738C31.238 41.4809 37.1388 45.2411 44.8779 49.0704C51.3261 52.2605 57.0483 54.6733 63.3986 56.8672C67.4208 58.2607 74.6931 60.564 75.0792 60.564C75.1541 60.564 75.1714 60.2992 75.1483 59.3894C75.1137 58.4623 75.0734 58.1283 74.9294 57.7482C74.6931 57.1436 74.1284 56.5678 73.4542 56.2223C72.6532 55.8134 67.8242 54.1032 63.3582 52.6406C57.8378 50.8382 54.4667 49.4332 48.8425 46.5943C39.1154 41.6997 31.8489 37.0009 28.0917 33.1889C27.0372 32.1063 26.167 30.9431 26.4206 30.9431C26.4551 30.9431 26.9046 31.3117 27.4175 31.7608C31.4743 35.3022 35.969 38.5096 42.1119 42.2237C46.5317 44.8956 50.3926 46.8016 55.527 48.8458C58.5696 50.0551 62.4189 51.3968 70.4404 54.0629C72.8433 54.8633 74.0938 55.0648 74.9466 54.823C76.1913 54.466 77.4187 53.6656 77.6204 53.0782C77.7069 52.8306 77.6953 52.8248 77.3496 52.7385C71.2529 51.1376 63.9863 48.5867 56.4432 45.3851C44.4687 40.2947 37.3809 36.3099 28.5181 29.6821C23.9427 26.2674 20.5025 23.3076 16.5667 19.4265C13.9275 16.8122 12.3831 15.125 9.64015 11.8427C6.09045 7.58732 3.3936 4.06898 2.35635 2.30117C1.5957 1.01706 1.34215 0.775211 1.11165 1.1783L1.11741 1.16102Z" fill="#FFFDF9" stroke="#333333" stroke-width="0.8" stroke-miterlimit="10"/>
<path d="M109.292 1.23889C109.165 1.38285 108.877 1.83199 108.629 2.24084C107.292 4.50386 102.268 10.838 98.2281 15.3411C96.0729 17.748 92.4425 21.2894 89.4806 23.8807C84.2655 28.424 77.1603 33.5605 71.3805 36.9406C67.5312 39.1979 61.9358 42.0252 57.3258 44.0464C56.7611 44.294 56.2885 44.5071 56.2713 44.5243C56.2309 44.5589 57.8329 45.3132 59.4118 46.0215L60.5643 46.5225L62.61 45.5032C66.1194 43.747 69.8016 41.5818 74.2387 38.6393C78.2149 36.0077 80.9405 33.9463 83.9313 31.3205C84.1675 31.1016 84.375 30.9519 84.375 30.998C84.375 31.1535 83.8736 31.8329 83.2916 32.4779C79.9436 36.2035 72.85 40.9369 63.2496 45.866C61.5382 46.7413 61.3595 46.8507 61.5439 46.9198C63.1863 47.5417 64.6038 48.0542 65.4682 48.3421L66.5516 48.7106L68.4071 47.7317C74.913 44.3113 79.909 41.0924 85.4699 36.7275C89.4056 33.6295 91.8778 31.4587 95.1566 28.1822C97.5942 25.7406 98.5911 24.6581 100.274 22.6254C104.884 17.0743 108.843 10.0376 109.753 5.78798C109.989 4.68237 110.087 1.88958 109.909 1.35981C109.765 0.933694 109.586 0.89339 109.298 1.23889H109.292ZM106.002 10.7056C106.002 10.7056 105.909 11.0108 105.788 11.362C105.379 12.5713 104.112 14.7767 102.567 16.9822C99.3748 21.5428 94.0733 27.3184 91.4341 29.1208C91.1114 29.3396 90.8117 29.4951 90.7771 29.472C90.7426 29.4375 91.895 28.2282 93.3184 26.7886C96.701 23.3855 98.0552 21.8941 100.17 19.2395C102.325 16.533 103.985 14.08 105.454 11.4254C105.685 11.0165 105.898 10.6826 105.938 10.6826C105.973 10.6826 106.007 10.6883 106.007 10.7056H106.002Z" fill="#FFFDF9" stroke="#333333" stroke-width="0.8" stroke-miterlimit="10"/>
<path d="M22.2195 46.554C21.1131 46.8247 20.3121 47.4466 19.8626 48.3852C19.6264 48.8804 19.5802 49.0589 19.5572 49.8075C19.4996 51.178 19.7762 52.0993 20.4792 52.8537C20.9805 53.4007 21.6202 53.6771 22.4788 53.7289C23.6543 53.8038 24.2364 53.441 24.6686 52.3412C24.9509 51.6617 25.1468 51.6329 25.7692 52.203C26.478 52.8479 27.7976 55.157 28.7657 57.42C29.3189 58.7042 29.6416 59.7752 30.6558 63.5815C31.7449 67.6929 31.9581 68.2227 32.9896 69.2534C34.1248 70.3878 35.3638 70.837 37.1386 70.7506C39.0979 70.6585 40.2388 70.0538 40.6307 68.8849C40.9015 68.0614 40.7517 66.4146 40.3253 65.5911C39.8239 64.5949 38.2623 64.1631 37.3518 64.7562C37.104 64.9174 36.9427 65.1305 36.7468 65.5393C36.6027 65.8445 36.4241 66.0921 36.3549 66.0921C36.0322 66.0921 34.8394 64.5086 34.5858 63.7254C34.2862 62.8156 34.1709 61.7445 34.1594 59.8788V58.0477L34.4302 57.4834C34.5743 57.1667 34.9143 56.683 35.1736 56.3951C35.4329 56.1071 35.6404 55.8307 35.6404 55.7904C35.6404 55.7501 35.4963 55.6868 35.3234 55.6637C33.635 55.4104 32.955 55.1628 32.4076 54.5985C32.229 54.4084 31.7449 53.5965 31.2493 52.6579C30.2639 50.7576 29.6128 49.8133 28.5928 48.7825C27.3942 47.5733 26.138 46.842 24.7435 46.5425C24.0635 46.3986 22.8015 46.3986 22.2195 46.5425V46.554Z" fill="#FFFDF9" stroke="#333333" stroke-width="0.8" stroke-miterlimit="10"/>
<path d="M85.5032 46.5627C83.9761 46.9024 82.4606 47.8929 81.2159 49.3612C80.4379 50.2883 80.0749 50.8527 79.297 52.298C78.2078 54.3307 78.0004 54.538 76.2313 55.4133C75.6666 55.6954 75.1941 55.9661 75.1825 56.0064C75.1653 56.0582 75.3439 56.3576 75.5744 56.6686C75.8049 56.9795 76.0872 57.5035 76.1967 57.8203C76.3754 58.3327 76.3927 58.5343 76.3869 59.7551C76.3638 62.64 75.8222 64.3848 74.5371 65.738C74.0415 66.2562 74.0012 66.2505 73.7131 65.6343C73.2694 64.6957 72.768 64.402 71.7942 64.4999C70.9356 64.5863 70.2325 65.1449 69.9387 65.9913C69.737 66.5556 69.616 67.7534 69.7082 68.3753C69.8695 69.55 70.6013 70.264 72.0074 70.6153C72.6355 70.7707 74.5602 70.7707 75.1191 70.6153C76.6462 70.1892 78.0062 68.9626 78.6112 67.4655C78.7207 67.2006 79.0261 66.1814 79.2854 65.1909C80.5359 60.5094 80.7318 59.8011 81.0833 58.7876C81.723 56.9047 83.008 54.3019 84.0395 52.7875C84.391 52.275 84.9615 51.7913 85.215 51.7913C85.411 51.7913 85.4859 51.9007 85.7164 52.488C86.0852 53.4151 86.7652 53.8009 87.8946 53.7318C88.6265 53.68 89.1566 53.4612 89.681 52.9717C90.4589 52.2577 90.7874 51.2615 90.7298 49.8219C90.7067 49.0906 90.6606 48.8488 90.4762 48.4514C90.0325 47.4898 89.1797 46.8103 88.1021 46.5512C87.4394 46.3957 86.212 46.3957 85.5032 46.5512V46.5627Z" fill="#FFFDF9" stroke="#333333" stroke-width="0.8" stroke-miterlimit="10"/>
<path d="M40.2396 50.4709C38.2458 51.1331 35.8198 51.9162 34.8286 52.2156C33.849 52.5208 33.0077 52.7972 32.9616 52.826C32.8348 52.9354 33.0883 53.4191 33.4917 53.8568C34.0046 54.4096 34.5751 54.6169 35.7045 54.6745C36.6669 54.7148 37.4333 54.6226 38.7471 54.3002C39.9976 53.9835 42.8615 53.0852 45.5872 52.1523C47.7193 51.421 48.2552 51.1964 47.8864 51.1964C47.7481 51.1964 45.034 49.8662 44.4289 49.5092C44.1812 49.3538 43.9507 49.2386 43.9161 49.2443C43.8815 49.2443 42.2277 49.7971 40.2338 50.4593L40.2396 50.4709Z" fill="#FFFDF9" stroke="#333333" stroke-width="0.8" stroke-miterlimit="10"/>
<path d="M45.4321 53.1774C43.2539 53.926 40.6896 54.8013 39.7272 55.1353C36.8921 56.1084 36.0565 56.5921 35.6071 57.525C35.2901 58.1699 35.123 59.5692 35.2671 60.3005C35.3362 60.6402 35.0481 60.7093 39.0069 59.4943C43.9973 57.9511 48.6591 56.3618 52.5085 54.8646C53.3786 54.5249 54.1508 54.2254 54.2488 54.1909C54.3583 54.1506 54.0471 53.9778 53.0559 53.546C52.3068 53.2292 51.1831 52.711 50.5492 52.3943L49.3967 51.8242L45.4379 53.1774H45.4321Z" fill="#FFFDF9" stroke="#333333" stroke-width="0.8" stroke-miterlimit="10"/>
<path d="M20.813 55.298C20.1158 55.4938 19.9717 56.0581 20.3347 57.1291C20.5825 57.8605 20.7324 58.1772 21.1761 58.8048C21.3662 59.0697 21.4988 59.3173 21.4757 59.3404C21.372 59.4325 20.7323 59.0352 20.4442 58.6954C20.2829 58.4996 20.0697 58.1426 19.9775 57.9065C19.8853 57.6589 19.7066 57.181 19.5798 56.8412C19.4531 56.5015 19.2571 56.1099 19.1477 55.9717C18.825 55.5974 18.2602 55.4189 17.4074 55.4247C15.8976 55.442 15.621 55.989 16.0763 58.0102C16.4912 59.8125 16.8657 60.6129 17.7013 61.4652C18.4907 62.2541 18.8192 62.4095 20.0466 62.519C22.0635 62.6975 27.97 62.5535 28.4714 62.3232C29.2897 61.9374 29.1802 60.0659 28.2351 58.1369C27.4572 56.5648 26.6101 55.4535 26.0569 55.321C25.9359 55.2865 25.642 55.2865 25.4 55.3038C24.259 55.4132 24.2936 56.5648 25.4864 58.3269C25.7745 58.7588 25.9878 59.1158 25.9474 59.1158C25.8091 59.1158 25.2156 58.6493 24.9159 58.3096C24.4837 57.8086 24.1726 57.2904 23.919 56.6167C23.6194 55.8335 23.3255 55.5168 22.7031 55.3383C22.1672 55.1943 21.2913 55.1656 20.8188 55.298H20.813Z" fill="#FFFDF9" stroke="#333333" stroke-width="0.8" stroke-miterlimit="10"/>
<path d="M87.5154 55.3738C86.9507 55.5638 86.6568 55.8863 86.4608 56.5082C86.2419 57.2164 85.8385 57.8211 85.1931 58.4487C84.8589 58.7712 84.565 59.0361 84.5189 59.0361C84.4843 59.0361 84.6053 58.8173 84.7897 58.5409C85.5043 57.4871 85.8558 56.4103 85.6944 55.7653C85.5734 55.2701 84.6111 55.1262 83.9714 55.5004C83.3491 55.869 82.1851 57.7117 81.7298 59.0418C81.2342 60.4987 81.1997 61.6388 81.6376 62.1225C81.8393 62.3529 81.9257 62.3874 82.623 62.445C84.0521 62.5832 89.0194 62.635 90.1546 62.5314C91.4512 62.4105 91.7623 62.278 92.546 61.5122C93.2548 60.8039 93.7216 59.8883 94.0789 58.4718C94.5572 56.5715 94.488 55.8517 93.8253 55.558C93.3413 55.345 92.0793 55.3795 91.6298 55.6099C91.0651 55.8978 91.019 55.9957 90.3621 57.7808C90.1488 58.3681 89.2729 59.2894 88.933 59.2894C88.9099 59.2894 89.0367 59.0533 89.2211 58.7539C89.7167 57.9708 90.1604 56.7558 90.1604 56.203C90.1604 55.8344 90.12 55.7077 89.9702 55.5753C89.5553 55.1895 88.3452 55.0916 87.5154 55.3795V55.3738Z" fill="#FFFDF9" stroke="#333333" stroke-width="0.8" stroke-miterlimit="10"/>
<path d="M11.3583 55.5089C10.517 55.6644 9.65258 56.1308 9.11091 56.7354C7.89502 58.0886 7.67028 60.9678 8.64991 62.799C9.55462 64.5034 11.5542 65.5917 13.2772 65.3211C14.3317 65.1599 15.7032 64.2501 16.5503 63.1617C16.994 62.5801 17.1323 62.2922 17.0459 62.0734C16.971 61.8834 16.7232 61.987 16.2103 62.4131C15.4093 63.0754 15.1039 63.2193 14.3721 63.2711C13.623 63.323 13.1101 63.2135 12.822 62.9487C12.4705 62.6262 12.603 62.4477 13.5135 62.0043C14.9022 61.3421 15.4209 60.6108 15.5131 59.2115C15.6225 57.6971 14.8734 56.3151 13.6402 55.7565C13.208 55.5607 12.9775 55.5204 12.3437 55.5031C11.9288 55.4974 11.4851 55.5031 11.364 55.5204L11.3583 55.5089Z" fill="#FFFDF9" stroke="#333333" stroke-width="0.8" stroke-miterlimit="10"/>
<path d="M97.1145 55.5495C95.3282 55.9641 94.3024 58.1465 94.9363 60.1907C95.0919 60.6744 95.1899 60.8472 95.6336 61.2906C96.0485 61.7052 96.3078 61.8722 96.8667 62.1083C97.2586 62.2695 97.5986 62.448 97.6332 62.5171C97.7023 62.6899 97.2932 63.0123 96.8725 63.1217C96.6766 63.1736 96.1983 63.2139 95.8064 63.2139C94.9651 63.2139 94.7 63.0929 93.9682 62.4365C93.6801 62.1831 93.415 62.0104 93.3286 62.0277C93.0923 62.068 93.0923 62.5459 93.3286 63.0584C93.9106 64.2849 95.1956 65.1084 96.8898 65.3214C99.1372 65.6093 101.143 64.2331 101.961 61.8376C102.191 61.1812 102.191 59.1312 101.961 58.3884C101.494 56.8567 100.589 55.9526 99.1429 55.5783C98.5955 55.4401 97.6332 55.4228 97.1145 55.5438V55.5495Z" fill="#FFFDF9" stroke="#333333" stroke-width="0.8" stroke-miterlimit="10"/>
</svg>
