<svg width="28" height="28" viewBox="0 0 28 28" fill="none" xmlns="http://www.w3.org/2000/svg">
<path d="M14 0C14.4641 0 14.9092 0.184375 15.2374 0.512563C15.5656 0.840752 15.75 1.28587 15.75 1.75V12.25H26.25C26.7141 12.25 27.1592 12.4344 27.4874 12.7626C27.8156 13.0908 28 13.5359 28 14C28 14.4641 27.8156 14.9092 27.4874 15.2374C27.1592 15.5656 26.7141 15.75 26.25 15.75H15.75V26.25C15.75 26.7141 15.5656 27.1592 15.2374 27.4874C14.9092 27.8156 14.4641 28 14 28C13.5359 28 13.0908 27.8156 12.7626 27.4874C12.4344 27.1592 12.25 26.7141 12.25 26.25V15.75H1.75C1.28587 15.75 0.840752 15.5656 0.512563 15.2374C0.184375 14.9092 0 14.4641 0 14C0 13.5359 0.184375 13.0908 0.512563 12.7626C0.840752 12.4344 1.28587 12.25 1.75 12.25H12.25V1.75C12.25 1.28587 12.4344 0.840752 12.7626 0.512563C13.0908 0.184375 13.5359 0 14 0Z" fill="#333333"/>
</svg>
