<svg width="31" height="34" viewBox="0 0 31 34" fill="none" xmlns="http://www.w3.org/2000/svg">
<path d="M28.4168 16.2913V17.708C28.4168 18.0992 28.1277 18.4163 27.771 18.4163H6.88475L12.6327 24.7063C12.7549 24.8393 12.8237 25.0203 12.8237 25.2092C12.8237 25.3981 12.7549 25.5791 12.6327 25.7121L11.7156 26.7038C11.5943 26.8379 11.4292 26.9133 11.257 26.9133C11.0848 26.9133 10.9198 26.8379 10.7985 26.7038L2.86766 18.0196C2.68594 17.8206 2.58372 17.5505 2.5835 17.2688V16.7305C2.58647 16.4494 2.68827 16.1804 2.86766 15.9796L10.7985 7.29546C10.9198 7.16136 11.0848 7.08594 11.257 7.08594C11.4292 7.08594 11.5943 7.16136 11.7156 7.29546L12.6327 8.30129C12.7542 8.43186 12.8226 8.61057 12.8226 8.79713C12.8226 8.98369 12.7542 9.1624 12.6327 9.29296L6.88475 15.583H27.771C28.1277 15.583 28.4168 15.9001 28.4168 16.2913Z" fill="white"/>
</svg>
