<svg width="23" height="27" viewBox="0 0 23 27" fill="none" xmlns="http://www.w3.org/2000/svg">
<path d="M8.94444 24.4286H14.0556C14.0556 25.8429 12.9056 27 11.5 27C10.0944 27 8.94444 25.8429 8.94444 24.4286ZM23 21.8571V23.1429H0V21.8571L2.55556 19.2857V11.5714C2.55556 7.58571 5.11111 4.11429 8.94444 2.95714V2.57143C8.94444 1.15714 10.0944 0 11.5 0C12.9056 0 14.0556 1.15714 14.0556 2.57143V2.95714C17.8889 4.11429 20.4444 7.58571 20.4444 11.5714V19.2857L23 21.8571ZM17.8889 11.5714C17.8889 7.97143 15.0778 5.14286 11.5 5.14286C7.92222 5.14286 5.11111 7.97143 5.11111 11.5714V20.5714H17.8889V11.5714Z" fill="#FF87DD"/>
</svg>
