<svg width="30" height="27" viewBox="0 0 30 27" fill="none" xmlns="http://www.w3.org/2000/svg">
<path d="M27 3H22.245L20.385 0.975C19.83 0.36 19.02 0 18.18 0H11.82C10.98 0 10.17 0.36 9.6 0.975L7.755 3H3C1.35 3 0 4.35 0 6V24C0 25.65 1.35 27 3 27H27C28.65 27 30 25.65 30 24V6C30 4.35 28.65 3 27 3ZM15 22.5C10.86 22.5 7.5 19.14 7.5 15C7.5 10.86 10.86 7.5 15 7.5C19.14 7.5 22.5 10.86 22.5 15C22.5 19.14 19.14 22.5 15 22.5Z" fill="#FFFDF9"/>
<path d="M15 19.5C17.4853 19.5 19.5 17.4853 19.5 15C19.5 12.5147 17.4853 10.5 15 10.5C12.5147 10.5 10.5 12.5147 10.5 15C10.5 17.4853 12.5147 19.5 15 19.5Z" fill="#FFFDF9"/>
</svg>
