<svg width="36" height="27" viewBox="0 0 36 27" fill="none" xmlns="http://www.w3.org/2000/svg">
<path fill-rule="evenodd" clip-rule="evenodd" d="M35.2839 0.65802C35.7052 1.0799 35.9419 1.65177 35.9419 2.24802C35.9419 2.84427 35.7052 3.41614 35.2839 3.83802L13.5339 25.588C13.112 26.0094 12.5401 26.246 11.9439 26.246C11.3476 26.246 10.7758 26.0094 10.3539 25.588L0.603875 15.838C0.206435 15.4115 -0.00993411 14.8474 0.000350541 14.2645C0.0106352 13.6816 0.246771 13.1254 0.65901 12.7132C1.07125 12.3009 1.6274 12.0648 2.21031 12.0545C2.79321 12.0442 3.35735 12.2606 3.78388 12.658L11.9439 20.818L32.1039 0.65802C32.5258 0.236668 33.0976 0 33.6939 0C34.2901 0 34.862 0.236668 35.2839 0.65802Z" fill="#ff87dd"/>
</svg>
