<svg width="12" height="14" viewBox="0 0 12 14" fill="none" xmlns="http://www.w3.org/2000/svg">
<path d="M8.66667 10.5V8.4H4V5.6H8.66667V3.5L12 7L8.66667 10.5ZM7.33333 0C7.68696 0 8.02609 0.1475 8.27614 0.41005C8.52619 0.672601 8.66667 1.0287 8.66667 1.4V2.8H7.33333V1.4H1.33333V12.6H7.33333V11.2H8.66667V12.6C8.66667 12.9713 8.52619 13.3274 8.27614 13.5899C8.02609 13.8525 7.68696 14 7.33333 14H1.33333C0.979711 14 0.640573 13.8525 0.390524 13.5899C0.140476 13.3274 0 12.9713 0 12.6V1.4C0 1.0287 0.140476 0.672601 0.390524 0.41005C0.640573 0.1475 0.979711 0 1.33333 0H7.33333Z" fill="#FFFDF9"/>
</svg>
