<svg width="40" height="40" viewBox="0 0 40 40" fill="none" xmlns="http://www.w3.org/2000/svg">
<path d="M13.5698 4.5C14.6744 4.5 15.5698 3.60457 15.5698 2.5C15.5698 1.39543 14.6744 0.5 13.5698 0.5C12.4653 0.5 11.5698 1.39543 11.5698 2.5C11.5698 3.60457 12.4653 4.5 13.5698 4.5Z" stroke="white" stroke-width="0.5" stroke-miterlimit="10"/>
<path d="M28.2979 4.47452C28.9539 5.13852 29.6079 5.80252 30.2639 6.46652C30.9419 7.15452 32.0039 6.09452 31.3239 5.40652C30.6679 4.74252 30.0139 4.07852 29.3579 3.41452C28.6799 2.72652 27.6199 3.78652 28.2979 4.47452Z" fill="white"/>
<path d="M30.3479 3.50115C29.6379 4.10715 28.9279 4.71315 28.2199 5.31915C27.9119 5.58315 27.9499 6.10915 28.2199 6.37915C28.5259 6.68515 28.9719 6.64315 29.2799 6.37915C29.9899 5.77315 30.6999 5.16715 31.4079 4.56115C31.7159 4.29715 31.6779 3.77115 31.4079 3.50115C31.1019 3.19515 30.6559 3.23715 30.3479 3.50115Z" fill="white"/>
<path d="M35.8241 13.4557C36.2692 13.4557 36.6301 13.0949 36.6301 12.6497C36.6301 12.2046 36.2692 11.8438 35.8241 11.8438C35.3789 11.8438 35.0181 12.2046 35.0181 12.6497C35.0181 13.0949 35.3789 13.4557 35.8241 13.4557Z" fill="white"/>
<path d="M3.9942 19.8943C8.1062 22.7383 12.2162 25.5843 16.3282 28.4283C16.5042 28.5503 16.7562 28.5263 16.9342 28.4283C17.9102 27.8883 18.8862 27.3483 19.8622 26.8083C19.6602 26.8083 19.4582 26.8083 19.2562 26.8083C20.3362 27.3483 21.4162 27.8883 22.4962 28.4283C22.6822 28.5203 22.9182 28.5523 23.1022 28.4283C27.3162 25.5843 31.5322 22.7383 35.7462 19.8943C35.4462 19.7223 35.1442 19.5483 34.8442 19.3763C34.8442 24.4623 34.8442 29.5463 34.8442 34.6323C34.8442 35.3603 34.8442 36.0903 34.8442 36.8183C35.0442 36.6183 35.2442 36.4183 35.4442 36.2183C25.0622 36.2183 14.6802 36.2183 4.3002 36.2183C4.5002 36.4183 4.7002 36.6183 4.9002 36.8183C4.9002 31.0043 4.9002 25.1903 4.9002 19.3783C4.9002 18.6063 3.7002 18.6043 3.7002 19.3783C3.7002 25.1923 3.7002 31.0063 3.7002 36.8183C3.7002 37.1423 3.9742 37.4183 4.3002 37.4183C14.6822 37.4183 25.0642 37.4183 35.4442 37.4183C35.7682 37.4183 36.0442 37.1443 36.0442 36.8183C36.0442 31.7323 36.0442 26.6483 36.0442 21.5623C36.0442 20.8343 36.0442 20.1043 36.0442 19.3763C36.0442 18.9443 35.5262 18.5983 35.1422 18.8583C30.9282 21.7023 26.7122 24.5483 22.4982 27.3923C22.7002 27.3923 22.9022 27.3923 23.1042 27.3923C22.5062 27.0943 21.9082 26.7943 21.3122 26.4963C20.8402 26.2603 20.2502 25.8003 19.7222 25.7123C19.1922 25.6243 18.5682 26.1563 18.1322 26.3963C17.5322 26.7283 16.9322 27.0603 16.3342 27.3923C16.5362 27.3923 16.7382 27.3923 16.9402 27.3923C12.8222 24.5483 8.7102 21.7023 4.6002 18.8583C3.9642 18.4183 3.3622 19.4583 3.9942 19.8943Z" fill="white"/>
<path d="M4.60014 37.3354C8.71214 34.3654 12.8221 31.3974 16.9341 28.4274C17.5541 27.9794 16.9561 26.9374 16.3281 27.3914C12.2161 30.3614 8.10614 33.3294 3.99414 36.2994C3.37414 36.7474 3.97214 37.7874 4.60014 37.3354Z" fill="white"/>
<path d="M22.4501 28.4283C26.6801 31.2263 30.9101 34.0243 35.1381 36.8223C35.7841 37.2503 36.3861 36.2103 35.7441 35.7863C31.5141 32.9883 27.2841 30.1903 23.0561 27.3923C22.4101 26.9643 21.8081 28.0043 22.4501 28.4283Z" fill="white"/>
<path d="M7.97184 11.6922C15.9858 11.7122 24.0018 11.7342 32.0158 11.7542C32.7878 11.7562 32.7898 10.5562 32.0158 10.5542C24.0018 10.5342 15.9858 10.5122 7.97184 10.4922C7.19984 10.4902 7.19784 11.6902 7.97184 11.6922Z" fill="white"/>
<path d="M8.15606 21.6315C8.17606 18.1175 8.19806 14.6055 8.21806 11.0915C8.22206 10.3195 7.02206 10.3175 7.01806 11.0915C6.99806 14.6055 6.97606 18.1175 6.95606 21.6315C6.95206 22.4035 8.15206 22.4035 8.15606 21.6315Z" fill="white"/>
<path d="M32.5838 21.694C32.6038 18.18 32.6258 14.668 32.6458 11.154C32.6498 10.382 31.4498 10.38 31.4458 11.154C31.4258 14.668 31.4038 18.18 31.3838 21.694C31.3798 22.466 32.5798 22.468 32.5838 21.694Z" fill="white"/>
<path d="M4.85021 19.6945C5.82421 18.8825 6.79621 18.0705 7.77021 17.2585C8.36421 16.7625 7.51021 15.9185 6.92221 16.4105C5.94821 17.2225 4.97621 18.0345 4.00221 18.8485C3.40821 19.3405 4.26021 20.1865 4.85021 19.6945Z" fill="white"/>
<path d="M35.7301 18.8301C34.7061 17.9741 33.6801 17.1181 32.6561 16.2641C32.0681 15.7721 31.2141 16.6161 31.8081 17.1121C32.8321 17.9681 33.8581 18.8241 34.8821 19.6781C35.4721 20.1701 36.3241 19.3241 35.7301 18.8301Z" fill="white"/>
<path d="M15.834 11.3125C16.802 10.3185 17.948 9.05251 19.218 8.44851C20.172 7.99451 20.844 8.71851 21.538 9.27051C22.322 9.89451 23.098 10.5305 23.866 11.1745C24.454 11.6665 25.308 10.8225 24.714 10.3265C23.724 9.49851 22.726 8.68051 21.708 7.88651C21.05 7.37451 20.358 6.96251 19.486 7.10451C18.644 7.24251 17.944 7.83651 17.296 8.35051C16.478 9.00051 15.716 9.71651 14.986 10.4645C14.446 11.0165 15.294 11.8665 15.834 11.3125Z" fill="white"/>
<path d="M10.8362 20.7337C10.8362 19.4337 10.8362 18.1337 10.8362 16.8317C10.8362 16.0597 9.63623 16.0577 9.63623 16.8317C9.63623 18.1317 9.63623 19.4317 9.63623 20.7337C9.63623 21.5057 10.8362 21.5077 10.8362 20.7337Z" fill="white"/>
<path d="M12.8138 20.7337C12.8138 19.4337 12.8138 18.1337 12.8138 16.8317C12.8138 16.0597 11.6138 16.0577 11.6138 16.8317C11.6138 18.1317 11.6138 19.4317 11.6138 20.7337C11.6138 21.5057 12.8138 21.5077 12.8138 20.7337Z" fill="white"/>
<path d="M15.366 20.7337C15.366 19.4337 15.366 18.1337 15.366 16.8317C15.366 16.0597 14.166 16.0577 14.166 16.8317C14.166 18.1317 14.166 19.4317 14.166 20.7337C14.166 21.5057 15.366 21.5077 15.366 20.7337Z" fill="white"/>
<path d="M15.2142 20.5435C14.4102 19.2215 13.6062 17.8995 12.8022 16.5775C12.4022 15.9195 11.3642 16.5215 11.7662 17.1835C12.5702 18.5055 13.3742 19.8275 14.1782 21.1495C14.5782 21.8075 15.6162 21.2055 15.2142 20.5435Z" fill="white"/>
<path d="M21.824 20.7337C21.824 19.4337 21.824 18.1337 21.824 16.8317C21.824 16.0597 20.624 16.0577 20.624 16.8317C20.624 18.1317 20.624 19.4317 20.624 20.7337C20.624 21.5057 21.824 21.5077 21.824 20.7337Z" fill="white"/>
<path d="M18.6798 21.0063C19.0978 19.6763 19.5178 18.3483 19.9358 17.0183C20.1678 16.2803 19.0098 15.9643 18.7778 16.6983C18.3598 18.0283 17.9398 19.3563 17.5218 20.6863C17.2898 21.4263 18.4478 21.7423 18.6798 21.0063Z" fill="white"/>
<path d="M18.532 20.6888C18.114 19.3588 17.694 18.0308 17.276 16.7008C17.044 15.9668 15.886 16.2808 16.118 17.0208C16.536 18.3508 16.956 19.6788 17.374 21.0088C17.606 21.7408 18.764 21.4268 18.532 20.6888Z" fill="white"/>
<path d="M25.0599 20.7337C25.0599 19.4337 25.0599 18.1337 25.0599 16.8317C25.0599 16.0597 23.8599 16.0577 23.8599 16.8317C23.8599 18.1317 23.8599 19.4317 23.8599 20.7337C23.8599 21.5057 25.0599 21.5077 25.0599 20.7337Z" fill="white"/>
<path d="M25.9402 16.2812C24.9522 16.2812 23.9662 16.2812 22.9782 16.2812C22.2062 16.2812 22.2042 17.4813 22.9782 17.4813C23.9662 17.4813 24.9522 17.4813 25.9402 17.4813C26.7122 17.4813 26.7142 16.2812 25.9402 16.2812Z" fill="white"/>
<path d="M29.6399 16.2812C28.9659 16.2812 28.2899 16.2812 27.6159 16.2812C26.8439 16.2812 26.8419 17.4813 27.6159 17.4813C28.2899 17.4813 28.9659 17.4813 29.6399 17.4813C30.4119 17.4813 30.4139 16.2812 29.6399 16.2812Z" fill="white"/>
<path d="M29.6399 18.252C28.9659 18.252 28.2899 18.252 27.6159 18.252C26.8439 18.252 26.8419 19.452 27.6159 19.452C28.2899 19.452 28.9659 19.452 29.6399 19.452C30.4119 19.452 30.4139 18.252 29.6399 18.252Z" fill="white"/>
<path d="M29.6399 20.1348C28.9659 20.1348 28.2899 20.1348 27.6159 20.1348C26.8439 20.1348 26.8419 21.3348 27.6159 21.3348C28.2899 21.3348 28.9659 21.3348 29.6399 21.3348C30.4119 21.3348 30.4139 20.1348 29.6399 20.1348Z" fill="white"/>
<path d="M28.2161 20.7337C28.2161 19.4337 28.2161 18.1337 28.2161 16.8317C28.2161 16.0597 27.0161 16.0577 27.0161 16.8317C27.0161 18.1317 27.0161 19.4317 27.0161 20.7337C27.0161 21.5057 28.2161 21.5077 28.2161 20.7337Z" fill="white"/>
<path d="M19.6922 34.3894C21.1271 34.3894 22.2902 33.2262 22.2902 31.7914C22.2902 30.3565 21.1271 29.1934 19.6922 29.1934C18.2574 29.1934 17.0942 30.3565 17.0942 31.7914C17.0942 33.2262 18.2574 34.3894 19.6922 34.3894Z" stroke="white" stroke-width="0.3" stroke-miterlimit="10"/>
<path d="M19.0618 30.8828L20.3618 30.9148L20.7358 32.1588L19.6658 32.8988L18.6318 32.1108L19.0618 30.8828Z" fill="white" stroke="white" stroke-width="0.3" stroke-miterlimit="10"/>
<path d="M20.2998 30.9346C20.6538 30.5586 21.0098 30.1826 21.3638 29.8066" stroke="white" stroke-width="0.3" stroke-miterlimit="10"/>
<path d="M19.272 30.9796C18.918 30.6036 18.562 30.2276 18.208 29.8516" stroke="white" stroke-width="0.3" stroke-miterlimit="10"/>
<path d="M19.6919 34.3547C19.6919 33.8387 19.6919 33.3207 19.6919 32.8047" stroke="white" stroke-width="0.3" stroke-miterlimit="10"/>
<path d="M22.0958 32.6195C21.6078 32.4475 21.1198 32.2775 20.6338 32.1055" stroke="white" stroke-width="0.3" stroke-miterlimit="10"/>
<path d="M17.2759 32.6195C17.7639 32.4475 18.2519 32.2775 18.7379 32.1055" stroke="white" stroke-width="0.3" stroke-miterlimit="10"/>
</svg>
