<svg width="26" height="26" viewBox="0 0 26 26" fill="none" xmlns="http://www.w3.org/2000/svg">
<g clip-path="url(#clip0_617_165)">
<path d="M10.1845 0.837891C12.6631 0.837891 15.0402 1.82252 16.7928 3.57516C18.5455 5.3278 19.5301 7.7049 19.5301 10.1835C19.5301 12.4984 18.6818 14.6263 17.2872 16.2654L17.6754 16.6536H18.8112L26.0002 23.8425L23.8435 25.9992L16.6545 18.8102V17.6744L16.2663 17.2862C14.6273 18.6808 12.4993 19.5291 10.1845 19.5291C7.70588 19.5291 5.32878 18.5445 3.57614 16.7919C1.82349 15.0392 0.838867 12.6621 0.838867 10.1835C0.838867 7.7049 1.82349 5.3278 3.57614 3.57516C5.32878 1.82252 7.70588 0.837891 10.1845 0.837891M10.1845 3.71347C6.59002 3.71347 3.71444 6.58904 3.71444 10.1835C3.71444 13.778 6.59002 16.6536 10.1845 16.6536C13.779 16.6536 16.6545 13.778 16.6545 10.1835C16.6545 6.58904 13.779 3.71347 10.1845 3.71347Z" fill="#B4B4B4"/>
</g>
<defs>
<clipPath id="clip0_617_165">
<rect width="26" height="26" fill="white"/>
</clipPath>
</defs>
</svg>
