<svg width="20" height="23" viewBox="0 0 20 23" fill="none" xmlns="http://www.w3.org/2000/svg">
<path d="M15.5556 22.2222H4.44444C3.21714 22.2222 2.22222 21.2273 2.22222 20V5.55556H0V3.33333H4.44444V2.22222C4.44444 0.994922 5.43937 0 6.66667 0H13.3333C14.5607 0 15.5556 0.994922 15.5556 2.22222V3.33333H20V5.55556H17.7778V20C17.7778 21.2273 16.7829 22.2222 15.5556 22.2222ZM4.44444 5.55556V20H15.5556V5.55556H4.44444ZM6.66667 2.22222V3.33333H13.3333V2.22222H6.66667ZM13.3333 17.7778H11.1111V7.77778H13.3333V17.7778ZM8.88889 17.7778H6.66667V7.77778H8.88889V17.7778Z" fill="black"/>
</svg>
